G75*
G70*
%OFA0B0*%
%FSLAX24Y24*%
%IPPOS*%
%LPD*%
%AMOC8*
5,1,8,0,0,1.08239X$1,22.5*
%
%ADD10R,0.0354X0.0114*%
%ADD11R,0.0114X0.0354*%
%ADD12R,0.1220X0.1220*%
%ADD13R,0.0433X0.0394*%
%ADD14R,0.0394X0.0433*%
%ADD15R,0.2000X0.0700*%
%ADD16R,0.1575X0.1181*%
%ADD17O,0.1200X0.0600*%
%ADD18R,0.0512X0.0512*%
%ADD19O,0.1040X0.0520*%
%ADD20C,0.0515*%
%ADD21C,0.0709*%
%ADD22C,0.0100*%
%ADD23C,0.0396*%
%ADD24C,0.0396*%
%ADD25C,0.0240*%
%ADD26C,0.0120*%
%ADD27C,0.0400*%
D10*
X013831Y010858D03*
X013831Y011055D03*
X013831Y011252D03*
X013831Y011449D03*
X013831Y011645D03*
X013831Y011842D03*
X013831Y012039D03*
X013831Y012236D03*
X015838Y012236D03*
X015838Y012039D03*
X015838Y011842D03*
X015838Y011645D03*
X015838Y011449D03*
X015838Y011252D03*
X015838Y011055D03*
X015838Y010858D03*
D11*
X015523Y010543D03*
X015327Y010543D03*
X015130Y010543D03*
X014933Y010543D03*
X014736Y010543D03*
X014539Y010543D03*
X014342Y010543D03*
X014146Y010543D03*
X014146Y012551D03*
X014342Y012551D03*
X014539Y012551D03*
X014736Y012551D03*
X014933Y012551D03*
X015130Y012551D03*
X015327Y012551D03*
X015523Y012551D03*
D12*
X014834Y011547D03*
D13*
X015909Y009921D03*
X016579Y009921D03*
X016425Y006744D03*
X015756Y006744D03*
X013960Y006752D03*
X013291Y006752D03*
X013579Y013267D03*
X014248Y013267D03*
X013972Y013980D03*
X013303Y013980D03*
X013303Y014669D03*
X013972Y014669D03*
X013972Y015295D03*
X013972Y015842D03*
X013303Y015842D03*
X013303Y015295D03*
X012468Y015342D03*
X011799Y015342D03*
X011799Y014626D03*
X012468Y014626D03*
X013303Y016389D03*
X013972Y016389D03*
X013972Y016937D03*
X013972Y017484D03*
X013303Y017484D03*
X013303Y016937D03*
X015023Y016941D03*
X015023Y017488D03*
X015693Y017488D03*
X015693Y016941D03*
X015693Y016393D03*
X015023Y016393D03*
X015023Y015846D03*
X015023Y015299D03*
X015693Y015299D03*
X015693Y015846D03*
X015693Y014665D03*
X015023Y014665D03*
X015807Y013980D03*
X016476Y013980D03*
X015807Y013267D03*
X015138Y013267D03*
D14*
X016842Y013240D03*
X016842Y012571D03*
X016842Y011811D03*
X016842Y011141D03*
X010752Y005610D03*
X010752Y004941D03*
D15*
X012631Y008122D03*
X016431Y008122D03*
D16*
X007787Y003701D03*
X007787Y017063D03*
D17*
X010004Y017330D03*
X010004Y016330D03*
X018518Y015992D03*
X018518Y014992D03*
X018518Y013992D03*
X018518Y012992D03*
X018518Y011992D03*
X018518Y010992D03*
X018518Y009992D03*
X018518Y008992D03*
X018518Y007992D03*
X017523Y007153D03*
X017523Y006153D03*
X024535Y008000D03*
X024535Y009000D03*
X024535Y010000D03*
X024535Y011000D03*
X024535Y012000D03*
X024535Y013000D03*
X024535Y014000D03*
X024535Y015000D03*
X024535Y016000D03*
D18*
X019787Y015964D03*
X019787Y015295D03*
X017386Y014763D03*
X017386Y014094D03*
X016815Y015610D03*
X016815Y016279D03*
X012740Y013169D03*
X012071Y013169D03*
X011972Y012303D03*
X012642Y012303D03*
X012130Y006594D03*
X011460Y006594D03*
X011539Y005649D03*
X011539Y004980D03*
X012405Y004980D03*
X012405Y005649D03*
D19*
X011669Y016323D03*
X011669Y017323D03*
D20*
X005665Y003173D03*
X003894Y003173D03*
X022960Y003189D03*
X023748Y003189D03*
X024535Y003189D03*
D21*
X006177Y003960D03*
X003382Y003960D03*
D22*
X010752Y004724D02*
X010752Y004941D01*
X010752Y005610D02*
X011539Y005610D01*
X011539Y005649D01*
X011925Y005655D02*
X012355Y005655D01*
X012355Y005699D02*
X012355Y005599D01*
X011999Y005599D01*
X011999Y005331D01*
X012030Y005300D01*
X012019Y005290D01*
X012019Y005230D01*
X011925Y005230D01*
X011925Y005290D01*
X011900Y005315D01*
X011925Y005340D01*
X011925Y005959D01*
X011849Y006035D01*
X011789Y006035D01*
X011789Y006211D01*
X011812Y006188D01*
X012080Y006188D01*
X012080Y006544D01*
X012180Y006544D01*
X012180Y006644D01*
X012536Y006644D01*
X012536Y006912D01*
X012448Y007000D01*
X012180Y007000D01*
X012180Y006644D01*
X012080Y006644D01*
X012080Y007000D01*
X011812Y007000D01*
X011781Y006969D01*
X011770Y006980D01*
X011651Y006980D01*
X011651Y007642D01*
X013111Y007642D01*
X013111Y007078D01*
X013021Y007078D01*
X012945Y007002D01*
X012945Y006501D01*
X013021Y006425D01*
X013562Y006425D01*
X013612Y006475D01*
X013682Y006405D01*
X013912Y006405D01*
X013912Y006703D01*
X014009Y006703D01*
X014009Y006405D01*
X014239Y006405D01*
X014327Y006493D01*
X014327Y006703D01*
X014009Y006703D01*
X014009Y006800D01*
X014327Y006800D01*
X014327Y007011D01*
X014239Y007098D01*
X014009Y007098D01*
X014009Y006800D01*
X013912Y006800D01*
X013912Y007098D01*
X013682Y007098D01*
X013612Y007028D01*
X013562Y007078D01*
X013471Y007078D01*
X013471Y007642D01*
X013685Y007642D01*
X013761Y007718D01*
X013761Y008481D01*
X015301Y008481D01*
X015301Y007718D01*
X015377Y007642D01*
X016241Y007642D01*
X016241Y007071D01*
X016155Y007071D01*
X016105Y007020D01*
X016034Y007091D01*
X015804Y007091D01*
X015804Y006792D01*
X015707Y006792D01*
X015707Y006695D01*
X015804Y006695D01*
X015804Y006397D01*
X016034Y006397D01*
X016105Y006467D01*
X016155Y006417D01*
X016695Y006417D01*
X016772Y006493D01*
X016772Y006994D01*
X016695Y007071D01*
X016601Y007071D01*
X016601Y007642D01*
X017485Y007642D01*
X017561Y007718D01*
X017561Y008526D01*
X017485Y008602D01*
X016204Y008602D01*
X015964Y008841D01*
X015815Y008841D01*
X014527Y008841D01*
X014564Y008930D01*
X014564Y009061D01*
X014514Y009182D01*
X014422Y009274D01*
X014301Y009324D01*
X014171Y009324D01*
X014165Y009321D01*
X014003Y009484D01*
X014003Y010268D01*
X014035Y010236D01*
X014256Y010236D01*
X014453Y010236D01*
X014650Y010236D01*
X014753Y010236D01*
X014753Y009594D01*
X014753Y009445D01*
X015284Y008914D01*
X015433Y008914D01*
X017263Y008914D01*
X017369Y009020D01*
X017976Y009626D01*
X018040Y009562D01*
X018996Y009562D01*
X019248Y009814D01*
X019248Y010170D01*
X018996Y010422D01*
X018040Y010422D01*
X017900Y010282D01*
X017900Y010702D01*
X018040Y010562D01*
X018996Y010562D01*
X019248Y010814D01*
X019248Y011170D01*
X018996Y011422D01*
X018040Y011422D01*
X017900Y011282D01*
X017900Y011362D01*
X018100Y011562D01*
X018996Y011562D01*
X019248Y011814D01*
X019248Y011984D01*
X019267Y011966D01*
X019273Y011963D01*
X019273Y007948D01*
X019248Y007924D01*
X019248Y008170D01*
X018996Y008422D01*
X018040Y008422D01*
X017788Y008170D01*
X017788Y007814D01*
X017999Y007603D01*
X017573Y007603D01*
X017573Y007203D01*
X017473Y007203D01*
X017473Y007103D01*
X016773Y007103D01*
X016773Y006967D01*
X017037Y006703D01*
X017473Y006703D01*
X017473Y007103D01*
X017573Y007103D01*
X017573Y006703D01*
X018010Y006703D01*
X018273Y006967D01*
X018273Y007103D01*
X017574Y007103D01*
X017574Y007203D01*
X018273Y007203D01*
X018273Y007340D01*
X018051Y007562D01*
X018886Y007562D01*
X017908Y006583D01*
X017045Y006583D01*
X016793Y006331D01*
X016793Y006260D01*
X014039Y006260D01*
X013010Y005230D01*
X012791Y005230D01*
X012791Y005290D01*
X012780Y005300D01*
X012811Y005331D01*
X012811Y005599D01*
X012455Y005599D01*
X012455Y005699D01*
X012355Y005699D01*
X011999Y005699D01*
X011999Y005967D01*
X012087Y006055D01*
X012355Y006055D01*
X012355Y005699D01*
X012355Y005754D02*
X012455Y005754D01*
X012455Y005699D02*
X012455Y006055D01*
X012723Y006055D01*
X012811Y005967D01*
X012811Y005699D01*
X012455Y005699D01*
X012455Y005655D02*
X013435Y005655D01*
X013533Y005754D02*
X012811Y005754D01*
X012811Y005852D02*
X013632Y005852D01*
X013730Y005951D02*
X012811Y005951D01*
X012729Y006049D02*
X013829Y006049D01*
X013927Y006148D02*
X011789Y006148D01*
X011789Y006049D02*
X012081Y006049D01*
X011999Y005951D02*
X011925Y005951D01*
X011925Y005852D02*
X011999Y005852D01*
X011999Y005754D02*
X011925Y005754D01*
X011925Y005557D02*
X011999Y005557D01*
X011999Y005458D02*
X011925Y005458D01*
X011925Y005359D02*
X011999Y005359D01*
X012019Y005261D02*
X011925Y005261D01*
X012355Y005852D02*
X012455Y005852D01*
X012455Y005951D02*
X012355Y005951D01*
X012355Y006049D02*
X012455Y006049D01*
X012448Y006188D02*
X012180Y006188D01*
X012180Y006544D01*
X012536Y006544D01*
X012536Y006276D01*
X012448Y006188D01*
X012506Y006246D02*
X014026Y006246D01*
X014009Y006443D02*
X013912Y006443D01*
X013912Y006542D02*
X014009Y006542D01*
X014009Y006641D02*
X013912Y006641D01*
X014009Y006739D02*
X015707Y006739D01*
X015707Y006695D02*
X015389Y006695D01*
X015389Y006485D01*
X015477Y006397D01*
X015707Y006397D01*
X015707Y006695D01*
X015707Y006641D02*
X015804Y006641D01*
X015804Y006542D02*
X015707Y006542D01*
X015707Y006443D02*
X015804Y006443D01*
X016081Y006443D02*
X016128Y006443D01*
X016421Y006748D02*
X016425Y006744D01*
X016421Y006748D02*
X016421Y008111D01*
X016431Y008122D01*
X016429Y008122D01*
X015890Y008661D01*
X013390Y008661D01*
X013173Y008878D01*
X013173Y010925D01*
X013500Y011252D01*
X013831Y011252D01*
X013831Y011449D02*
X013362Y011449D01*
X012976Y011063D01*
X012976Y008208D01*
X012897Y008130D01*
X012639Y008130D01*
X012631Y008122D01*
X012976Y008208D02*
X013291Y007893D01*
X013291Y007775D01*
X013291Y007795D01*
X013291Y007775D02*
X013291Y006752D01*
X012945Y006739D02*
X012536Y006739D01*
X012536Y006838D02*
X012945Y006838D01*
X012945Y006936D02*
X012512Y006936D01*
X012180Y006936D02*
X012080Y006936D01*
X012080Y006838D02*
X012180Y006838D01*
X012180Y006739D02*
X012080Y006739D01*
X012180Y006641D02*
X012945Y006641D01*
X012945Y006542D02*
X012536Y006542D01*
X012536Y006443D02*
X013002Y006443D01*
X012536Y006345D02*
X016807Y006345D01*
X016722Y006443D02*
X016906Y006443D01*
X017004Y006542D02*
X016772Y006542D01*
X016772Y006641D02*
X017965Y006641D01*
X018046Y006739D02*
X018063Y006739D01*
X018144Y006838D02*
X018162Y006838D01*
X018243Y006936D02*
X018261Y006936D01*
X018273Y007035D02*
X018359Y007035D01*
X018458Y007133D02*
X017574Y007133D01*
X017573Y007035D02*
X017473Y007035D01*
X017473Y007133D02*
X016601Y007133D01*
X016601Y007232D02*
X016773Y007232D01*
X016773Y007203D02*
X017473Y007203D01*
X017473Y007603D01*
X017037Y007603D01*
X016773Y007340D01*
X016773Y007203D01*
X016773Y007330D02*
X016601Y007330D01*
X016601Y007429D02*
X016863Y007429D01*
X016961Y007527D02*
X016601Y007527D01*
X016601Y007626D02*
X017976Y007626D01*
X017878Y007724D02*
X017561Y007724D01*
X017561Y007823D02*
X017788Y007823D01*
X017788Y007922D02*
X017561Y007922D01*
X017561Y008020D02*
X017788Y008020D01*
X017788Y008119D02*
X017561Y008119D01*
X017561Y008217D02*
X017836Y008217D01*
X017934Y008316D02*
X017561Y008316D01*
X017561Y008414D02*
X018033Y008414D01*
X018040Y008562D02*
X018996Y008562D01*
X019248Y008814D01*
X019248Y009170D01*
X018996Y009422D01*
X018040Y009422D01*
X017788Y009170D01*
X017788Y008814D01*
X018040Y008562D01*
X017991Y008611D02*
X016194Y008611D01*
X016095Y008710D02*
X017892Y008710D01*
X017794Y008808D02*
X015997Y008808D01*
X015358Y009094D02*
X014933Y009519D01*
X014933Y010543D01*
X015122Y010551D02*
X015130Y010543D01*
X015122Y010551D02*
X015122Y009626D01*
X015457Y009291D01*
X017071Y009291D01*
X017720Y009941D01*
X017720Y011437D01*
X018275Y011992D01*
X018518Y011992D01*
X018040Y012422D02*
X017788Y012170D01*
X017788Y011814D01*
X017816Y011786D01*
X017684Y011655D01*
X017684Y012209D01*
X018039Y012563D01*
X018040Y012562D01*
X018996Y012562D01*
X019248Y012814D01*
X019248Y013170D01*
X018996Y013422D01*
X018040Y013422D01*
X017788Y013170D01*
X017788Y012822D01*
X017324Y012358D01*
X017324Y012209D01*
X017324Y010114D01*
X016925Y009715D01*
X016925Y010172D01*
X016849Y010248D01*
X016506Y010248D01*
X016483Y010271D01*
X016483Y010379D01*
X016511Y010352D01*
X016631Y010302D01*
X016762Y010302D01*
X016882Y010352D01*
X016975Y010444D01*
X017025Y010564D01*
X017025Y010695D01*
X016983Y010795D01*
X017093Y010795D01*
X017169Y010871D01*
X017169Y011412D01*
X017105Y011476D01*
X017169Y011540D01*
X017169Y012081D01*
X017093Y012157D01*
X017022Y012157D01*
X017022Y012224D01*
X017093Y012224D01*
X017169Y012300D01*
X017169Y012841D01*
X017105Y012905D01*
X017169Y012969D01*
X017169Y013510D01*
X017093Y013586D01*
X016592Y013586D01*
X016516Y013510D01*
X016516Y013428D01*
X016153Y013428D01*
X016153Y013518D01*
X016077Y013594D01*
X015997Y013594D01*
X015997Y013653D01*
X016077Y013653D01*
X016127Y013703D01*
X016198Y013633D01*
X016428Y013633D01*
X016428Y013931D01*
X016525Y013931D01*
X016525Y013633D01*
X016755Y013633D01*
X016843Y013721D01*
X016843Y013931D01*
X016525Y013931D01*
X016525Y014028D01*
X016843Y014028D01*
X016843Y014239D01*
X016755Y014327D01*
X016525Y014327D01*
X016525Y014029D01*
X016428Y014029D01*
X016428Y014327D01*
X016198Y014327D01*
X016127Y014257D01*
X016077Y014307D01*
X015737Y014307D01*
X015644Y014399D01*
X015644Y014616D01*
X015741Y014616D01*
X015741Y014318D01*
X015971Y014318D01*
X016059Y014406D01*
X016059Y014617D01*
X015741Y014617D01*
X015741Y014713D01*
X016059Y014713D01*
X016059Y014924D01*
X015987Y014996D01*
X016039Y015048D01*
X016039Y015550D01*
X016016Y015573D01*
X016039Y015595D01*
X016039Y016097D01*
X016016Y016120D01*
X016039Y016143D01*
X016039Y016644D01*
X016016Y016667D01*
X016039Y016690D01*
X016039Y016771D01*
X020083Y016771D01*
X020083Y016350D01*
X019477Y016350D01*
X019401Y016274D01*
X019401Y016242D01*
X019176Y016242D01*
X018996Y016422D01*
X018040Y016422D01*
X017860Y016242D01*
X017723Y016242D01*
X017694Y016213D01*
X017694Y016246D01*
X017644Y016367D01*
X017552Y016459D01*
X017431Y016509D01*
X017301Y016509D01*
X017201Y016467D01*
X017201Y016589D01*
X017125Y016665D01*
X016505Y016665D01*
X016429Y016589D01*
X016429Y015969D01*
X016454Y015945D01*
X016429Y015920D01*
X016429Y015880D01*
X016353Y015849D01*
X016261Y015756D01*
X016211Y015636D01*
X016211Y015505D01*
X016261Y015385D01*
X016353Y015292D01*
X016474Y015242D01*
X016487Y015242D01*
X016505Y015224D01*
X017125Y015224D01*
X017201Y015300D01*
X017201Y015894D01*
X017301Y015853D01*
X017334Y015853D01*
X017214Y015733D01*
X017214Y015149D01*
X017076Y015149D01*
X017012Y015086D01*
X016998Y015092D01*
X016868Y015092D01*
X016747Y015042D01*
X016655Y014949D01*
X016605Y014829D01*
X016605Y014698D01*
X016655Y014578D01*
X016747Y014485D01*
X016868Y014435D01*
X016998Y014435D01*
X017006Y014439D01*
X016980Y014412D01*
X016980Y014144D01*
X017336Y014144D01*
X017336Y014044D01*
X017436Y014044D01*
X017436Y013688D01*
X017704Y013688D01*
X017792Y013776D01*
X017792Y013811D01*
X018040Y013562D01*
X018996Y013562D01*
X019248Y013814D01*
X019248Y014170D01*
X018996Y014422D01*
X018040Y014422D01*
X017792Y014173D01*
X017792Y014412D01*
X017761Y014443D01*
X017772Y014454D01*
X017772Y015073D01*
X017714Y015130D01*
X017714Y015526D01*
X017895Y015707D01*
X018040Y015562D01*
X018996Y015562D01*
X019176Y015742D01*
X019401Y015742D01*
X019401Y015654D01*
X019426Y015630D01*
X019401Y015605D01*
X019401Y014985D01*
X019459Y014927D01*
X019459Y014875D01*
X019509Y014755D01*
X019601Y014662D01*
X019722Y014613D01*
X019853Y014613D01*
X019973Y014662D01*
X020065Y014755D01*
X020083Y014796D01*
X020083Y008504D01*
X019633Y008054D01*
X019633Y011963D01*
X019638Y011966D01*
X019731Y012058D01*
X019781Y012178D01*
X019781Y012309D01*
X019731Y012430D01*
X019638Y012522D01*
X019518Y012572D01*
X019387Y012572D01*
X019267Y012522D01*
X019174Y012430D01*
X019124Y012309D01*
X019124Y012294D01*
X018996Y012422D01*
X018040Y012422D01*
X017974Y012356D02*
X017831Y012356D01*
X017876Y012257D02*
X017733Y012257D01*
X017684Y012159D02*
X017788Y012159D01*
X017788Y012060D02*
X017684Y012060D01*
X017684Y011962D02*
X017788Y011962D01*
X017788Y011863D02*
X017684Y011863D01*
X017684Y011765D02*
X017794Y011765D01*
X017695Y011666D02*
X017684Y011666D01*
X017324Y011666D02*
X017169Y011666D01*
X017169Y011568D02*
X017324Y011568D01*
X017324Y011469D02*
X017112Y011469D01*
X017169Y011371D02*
X017324Y011371D01*
X017324Y011272D02*
X017169Y011272D01*
X017169Y011174D02*
X017324Y011174D01*
X017324Y011075D02*
X017169Y011075D01*
X017169Y010976D02*
X017324Y010976D01*
X017324Y010878D02*
X017169Y010878D01*
X017324Y010779D02*
X016990Y010779D01*
X017025Y010681D02*
X017324Y010681D01*
X017324Y010582D02*
X017025Y010582D01*
X016991Y010484D02*
X017324Y010484D01*
X017324Y010385D02*
X016916Y010385D01*
X016909Y010188D02*
X017324Y010188D01*
X017324Y010287D02*
X016483Y010287D01*
X016303Y010197D02*
X016303Y011063D01*
X016295Y011055D01*
X015846Y011055D01*
X015846Y011252D01*
X015838Y011252D01*
X015838Y011449D02*
X015838Y011649D01*
X015838Y011645D01*
X015839Y011645D01*
X015839Y011449D01*
X015838Y011449D01*
X015838Y011645D01*
X015838Y011646D02*
X015838Y011655D01*
X015839Y011655D01*
X015839Y011646D01*
X015838Y011646D01*
X015838Y011649D02*
X015397Y011649D01*
X015397Y010984D01*
X015523Y010858D01*
X015838Y010858D01*
X015839Y010858D01*
X015839Y010651D01*
X016078Y010651D01*
X016123Y010696D01*
X016123Y010248D01*
X015837Y010248D01*
X015711Y010374D01*
X015711Y010651D01*
X015838Y010651D01*
X015838Y010858D01*
X015838Y010779D02*
X015839Y010779D01*
X015838Y010681D02*
X015839Y010681D01*
X015711Y010582D02*
X016123Y010582D01*
X016123Y010484D02*
X015711Y010484D01*
X015711Y010385D02*
X016123Y010385D01*
X016123Y010287D02*
X015798Y010287D01*
X015523Y010307D02*
X015523Y010543D01*
X015327Y010543D02*
X015319Y010551D01*
X015319Y009724D01*
X015555Y009488D01*
X016953Y009488D01*
X017504Y010039D01*
X017504Y012283D01*
X018232Y013011D01*
X018527Y013011D01*
X018527Y013001D01*
X018518Y012992D01*
X018028Y012553D02*
X019342Y012553D01*
X019199Y012455D02*
X017930Y012455D01*
X017716Y012750D02*
X017169Y012750D01*
X017169Y012652D02*
X017618Y012652D01*
X017519Y012553D02*
X017169Y012553D01*
X017169Y012455D02*
X017421Y012455D01*
X017324Y012356D02*
X017169Y012356D01*
X017126Y012257D02*
X017324Y012257D01*
X017324Y012159D02*
X017022Y012159D01*
X017169Y012060D02*
X017324Y012060D01*
X017324Y011962D02*
X017169Y011962D01*
X017169Y011863D02*
X017324Y011863D01*
X017324Y011765D02*
X017169Y011765D01*
X016842Y011811D02*
X016842Y012571D01*
X016709Y012571D01*
X016516Y012553D02*
X016296Y012553D01*
X016296Y012533D02*
X016296Y012663D01*
X016246Y012784D01*
X016154Y012876D01*
X016034Y012926D01*
X015903Y012926D01*
X015782Y012876D01*
X015699Y012793D01*
X015634Y012858D01*
X015466Y012858D01*
X015446Y012878D01*
X015327Y012878D01*
X015327Y012551D01*
X015326Y012551D01*
X015326Y012878D01*
X015302Y012878D01*
X015302Y012941D01*
X015408Y012941D01*
X015472Y013005D01*
X015537Y012941D01*
X016077Y012941D01*
X016153Y013017D01*
X016153Y013068D01*
X016516Y013068D01*
X016516Y012969D01*
X016580Y012905D01*
X016516Y012841D01*
X016516Y012300D01*
X016592Y012224D01*
X016662Y012224D01*
X016662Y012157D01*
X016592Y012157D01*
X016516Y012081D01*
X016489Y012109D01*
X016368Y012158D01*
X016238Y012158D01*
X016146Y012120D01*
X016146Y012125D01*
X016146Y012316D01*
X016154Y012320D01*
X016246Y012412D01*
X016296Y012533D01*
X016264Y012455D02*
X016516Y012455D01*
X016516Y012356D02*
X016190Y012356D01*
X016146Y012257D02*
X016558Y012257D01*
X016662Y012159D02*
X016146Y012159D01*
X016271Y011842D02*
X015838Y011842D01*
X015838Y011649D02*
X015850Y011649D01*
X015838Y011568D02*
X015839Y011568D01*
X015838Y011469D02*
X015839Y011469D01*
X015846Y011055D02*
X015838Y011055D01*
X016108Y010681D02*
X016123Y010681D01*
X016303Y010197D02*
X016579Y009921D01*
X016925Y009892D02*
X017103Y009892D01*
X017004Y009794D02*
X016925Y009794D01*
X016925Y009991D02*
X017201Y009991D01*
X017300Y010090D02*
X016925Y010090D01*
X016697Y010630D02*
X016697Y010996D01*
X016842Y011141D01*
X016303Y011830D02*
X016271Y011842D01*
X015968Y012598D02*
X015516Y012598D01*
X015523Y012590D01*
X015523Y012551D01*
X015327Y012553D02*
X015326Y012553D01*
X015327Y012551D02*
X015327Y011649D01*
X014941Y011649D01*
X014846Y011555D01*
X014413Y011122D01*
X013831Y011055D02*
X013598Y011055D01*
X013429Y010886D01*
X013429Y009193D01*
X013547Y009074D01*
X013823Y009409D02*
X013823Y010866D01*
X013831Y010858D01*
X014834Y011547D02*
X014838Y011547D01*
X014846Y011555D01*
X014925Y011634D01*
X014925Y011968D01*
X014925Y012047D01*
X014539Y012047D01*
X013831Y012047D01*
X013831Y012039D01*
X013831Y012048D01*
X013830Y012048D01*
X013830Y012039D01*
X013831Y012039D01*
X013842Y012228D02*
X013551Y012228D01*
X013271Y011949D01*
X013275Y011945D01*
X013275Y011842D01*
X013366Y012425D02*
X013291Y012500D01*
X013366Y012425D02*
X014146Y012425D01*
X014146Y012551D01*
X014342Y012551D02*
X014342Y012791D01*
X014240Y012893D01*
X013941Y012893D01*
X013803Y012756D01*
X013831Y012236D02*
X013842Y012228D01*
X014539Y012047D02*
X014539Y012551D01*
X014736Y012551D02*
X014736Y012775D01*
X014260Y013252D01*
X014260Y013256D01*
X014248Y013267D01*
X014118Y013267D01*
X014248Y013267D02*
X014256Y013267D01*
X014705Y013082D02*
X014941Y012846D01*
X014941Y012689D01*
X014933Y012551D01*
X015122Y012551D02*
X015122Y013267D01*
X015063Y013326D01*
X015122Y013267D02*
X015138Y013267D01*
X014705Y013082D02*
X014705Y013515D01*
X014996Y013807D01*
X015177Y013807D01*
X014748Y014015D02*
X014744Y014019D01*
X014748Y014023D02*
X014748Y014015D01*
X015644Y014425D02*
X015741Y014425D01*
X015741Y014327D02*
X015717Y014327D01*
X015741Y014524D02*
X015644Y014524D01*
X015741Y014623D02*
X016636Y014623D01*
X016605Y014721D02*
X016059Y014721D01*
X016059Y014820D02*
X016605Y014820D01*
X016642Y014918D02*
X016059Y014918D01*
X016008Y015017D02*
X016722Y015017D01*
X017042Y015115D02*
X016039Y015115D01*
X016039Y015214D02*
X017214Y015214D01*
X017201Y015312D02*
X017214Y015312D01*
X017201Y015411D02*
X017214Y015411D01*
X017201Y015509D02*
X017214Y015509D01*
X017201Y015608D02*
X017214Y015608D01*
X017201Y015706D02*
X017214Y015706D01*
X017201Y015805D02*
X017286Y015805D01*
X017714Y015509D02*
X019401Y015509D01*
X019401Y015411D02*
X019007Y015411D01*
X018996Y015422D02*
X018040Y015422D01*
X017788Y015170D01*
X017788Y014814D01*
X018040Y014562D01*
X018996Y014562D01*
X019248Y014814D01*
X019248Y015170D01*
X018996Y015422D01*
X019106Y015312D02*
X019401Y015312D01*
X019401Y015214D02*
X019204Y015214D01*
X019248Y015115D02*
X019401Y015115D01*
X019401Y015017D02*
X019248Y015017D01*
X019248Y014918D02*
X019459Y014918D01*
X019482Y014820D02*
X019248Y014820D01*
X019156Y014721D02*
X019543Y014721D01*
X019698Y014623D02*
X019057Y014623D01*
X019091Y014327D02*
X020083Y014327D01*
X020083Y014425D02*
X017778Y014425D01*
X017792Y014327D02*
X017945Y014327D01*
X017847Y014228D02*
X017792Y014228D01*
X017772Y014524D02*
X020083Y014524D01*
X020083Y014623D02*
X019877Y014623D01*
X020032Y014721D02*
X020083Y014721D01*
X019787Y014941D02*
X019787Y015295D01*
X019787Y015315D01*
X019405Y015608D02*
X019043Y015608D01*
X019141Y015706D02*
X019401Y015706D01*
X019787Y015964D02*
X019787Y015984D01*
X019779Y015992D01*
X019425Y016298D02*
X019120Y016298D01*
X019022Y016396D02*
X020083Y016396D01*
X020083Y016495D02*
X017465Y016495D01*
X017614Y016396D02*
X018015Y016396D01*
X017916Y016298D02*
X017673Y016298D01*
X017366Y016181D02*
X017268Y016279D01*
X016815Y016279D01*
X016429Y016298D02*
X016039Y016298D01*
X016039Y016396D02*
X016429Y016396D01*
X016429Y016495D02*
X016039Y016495D01*
X016039Y016593D02*
X016433Y016593D01*
X016039Y016692D02*
X020083Y016692D01*
X020083Y016593D02*
X017196Y016593D01*
X017201Y016495D02*
X017267Y016495D01*
X016429Y016199D02*
X016039Y016199D01*
X016035Y016101D02*
X016429Y016101D01*
X016429Y016002D02*
X016039Y016002D01*
X016039Y015904D02*
X016429Y015904D01*
X016310Y015805D02*
X016039Y015805D01*
X016039Y015706D02*
X016240Y015706D01*
X016211Y015608D02*
X016039Y015608D01*
X016039Y015509D02*
X016211Y015509D01*
X016250Y015411D02*
X016039Y015411D01*
X016039Y015312D02*
X016333Y015312D01*
X016539Y015571D02*
X016579Y015610D01*
X016815Y015610D01*
X017714Y015411D02*
X018029Y015411D01*
X017931Y015312D02*
X017714Y015312D01*
X017714Y015214D02*
X017832Y015214D01*
X017788Y015115D02*
X017729Y015115D01*
X017772Y015017D02*
X017788Y015017D01*
X017788Y014918D02*
X017772Y014918D01*
X017772Y014820D02*
X017788Y014820D01*
X017772Y014721D02*
X017881Y014721D01*
X017980Y014623D02*
X017772Y014623D01*
X017386Y014763D02*
X017327Y014724D01*
X016993Y014425D02*
X016059Y014425D01*
X016059Y014524D02*
X016708Y014524D01*
X016980Y014327D02*
X015980Y014327D01*
X015791Y014015D02*
X015775Y014000D01*
X015791Y014015D02*
X015807Y013980D01*
X015997Y013637D02*
X016194Y013637D01*
X016133Y013539D02*
X016544Y013539D01*
X016525Y013637D02*
X016428Y013637D01*
X016428Y013736D02*
X016525Y013736D01*
X016525Y013834D02*
X016428Y013834D01*
X016525Y013933D02*
X016980Y013933D01*
X016980Y014031D02*
X016843Y014031D01*
X016843Y014130D02*
X017336Y014130D01*
X017336Y014044D02*
X016980Y014044D01*
X016980Y013776D01*
X017068Y013688D01*
X017336Y013688D01*
X017336Y014044D01*
X017336Y014031D02*
X017436Y014031D01*
X017436Y013933D02*
X017336Y013933D01*
X017336Y013834D02*
X017436Y013834D01*
X017436Y013736D02*
X017336Y013736D01*
X017141Y013539D02*
X020083Y013539D01*
X020083Y013637D02*
X019072Y013637D01*
X019170Y013736D02*
X020083Y013736D01*
X020083Y013834D02*
X019248Y013834D01*
X019248Y013933D02*
X020083Y013933D01*
X020083Y014031D02*
X019248Y014031D01*
X019248Y014130D02*
X020083Y014130D01*
X020083Y014228D02*
X019190Y014228D01*
X019077Y013341D02*
X020083Y013341D01*
X020083Y013243D02*
X019175Y013243D01*
X019248Y013144D02*
X020083Y013144D01*
X020083Y013046D02*
X019248Y013046D01*
X019248Y012947D02*
X020083Y012947D01*
X020083Y012849D02*
X019248Y012849D01*
X019185Y012750D02*
X020083Y012750D01*
X020083Y012652D02*
X019086Y012652D01*
X019062Y012356D02*
X019144Y012356D01*
X019453Y012244D02*
X019453Y007874D01*
X017740Y006161D01*
X017516Y006161D01*
X017523Y006153D01*
X017516Y006161D02*
X017504Y006161D01*
X017473Y006739D02*
X017573Y006739D01*
X017573Y006838D02*
X017473Y006838D01*
X017473Y006936D02*
X017573Y006936D01*
X017573Y007232D02*
X017473Y007232D01*
X017473Y007330D02*
X017573Y007330D01*
X017573Y007429D02*
X017473Y007429D01*
X017473Y007527D02*
X017573Y007527D01*
X018086Y007527D02*
X018852Y007527D01*
X018753Y007429D02*
X018184Y007429D01*
X018273Y007330D02*
X018655Y007330D01*
X018556Y007232D02*
X018273Y007232D01*
X019248Y008020D02*
X019273Y008020D01*
X019273Y008119D02*
X019248Y008119D01*
X019273Y008217D02*
X019201Y008217D01*
X019273Y008316D02*
X019102Y008316D01*
X019004Y008414D02*
X019273Y008414D01*
X019273Y008513D02*
X017561Y008513D01*
X017788Y008907D02*
X014554Y008907D01*
X014564Y009006D02*
X015192Y009006D01*
X015094Y009104D02*
X014546Y009104D01*
X014493Y009203D02*
X014995Y009203D01*
X014897Y009301D02*
X014356Y009301D01*
X014087Y009400D02*
X014798Y009400D01*
X014753Y009498D02*
X014003Y009498D01*
X014003Y009597D02*
X014753Y009597D01*
X014753Y009695D02*
X014003Y009695D01*
X014003Y009794D02*
X014753Y009794D01*
X014753Y009892D02*
X014003Y009892D01*
X014003Y009991D02*
X014753Y009991D01*
X014753Y010090D02*
X014003Y010090D01*
X014003Y010188D02*
X014753Y010188D01*
X015523Y010307D02*
X015909Y009921D01*
X015358Y009094D02*
X017189Y009094D01*
X018086Y009992D01*
X018518Y009992D01*
X018005Y009597D02*
X017946Y009597D01*
X017847Y009498D02*
X019273Y009498D01*
X019273Y009400D02*
X019018Y009400D01*
X019117Y009301D02*
X019273Y009301D01*
X019273Y009203D02*
X019216Y009203D01*
X019248Y009104D02*
X019273Y009104D01*
X019273Y009006D02*
X019248Y009006D01*
X019248Y008907D02*
X019273Y008907D01*
X019273Y008808D02*
X019243Y008808D01*
X019273Y008710D02*
X019145Y008710D01*
X019046Y008611D02*
X019273Y008611D01*
X019633Y008611D02*
X020083Y008611D01*
X020083Y008513D02*
X019633Y008513D01*
X019633Y008414D02*
X019993Y008414D01*
X019895Y008316D02*
X019633Y008316D01*
X019633Y008217D02*
X019796Y008217D01*
X019698Y008119D02*
X019633Y008119D01*
X019633Y008710D02*
X020083Y008710D01*
X020083Y008808D02*
X019633Y008808D01*
X019633Y008907D02*
X020083Y008907D01*
X020083Y009006D02*
X019633Y009006D01*
X019633Y009104D02*
X020083Y009104D01*
X020083Y009203D02*
X019633Y009203D01*
X019633Y009301D02*
X020083Y009301D01*
X020083Y009400D02*
X019633Y009400D01*
X019633Y009498D02*
X020083Y009498D01*
X020083Y009597D02*
X019633Y009597D01*
X019633Y009695D02*
X020083Y009695D01*
X020083Y009794D02*
X019633Y009794D01*
X019633Y009892D02*
X020083Y009892D01*
X020083Y009991D02*
X019633Y009991D01*
X019633Y010090D02*
X020083Y010090D01*
X020083Y010188D02*
X019633Y010188D01*
X019633Y010287D02*
X020083Y010287D01*
X020083Y010385D02*
X019633Y010385D01*
X019633Y010484D02*
X020083Y010484D01*
X020083Y010582D02*
X019633Y010582D01*
X019633Y010681D02*
X020083Y010681D01*
X020083Y010779D02*
X019633Y010779D01*
X019633Y010878D02*
X020083Y010878D01*
X020083Y010976D02*
X019633Y010976D01*
X019633Y011075D02*
X020083Y011075D01*
X020083Y011174D02*
X019633Y011174D01*
X019633Y011272D02*
X020083Y011272D01*
X020083Y011371D02*
X019633Y011371D01*
X019633Y011469D02*
X020083Y011469D01*
X020083Y011568D02*
X019633Y011568D01*
X019633Y011666D02*
X020083Y011666D01*
X020083Y011765D02*
X019633Y011765D01*
X019633Y011863D02*
X020083Y011863D01*
X020083Y011962D02*
X019633Y011962D01*
X019732Y012060D02*
X020083Y012060D01*
X020083Y012159D02*
X019773Y012159D01*
X019781Y012257D02*
X020083Y012257D01*
X020083Y012356D02*
X019761Y012356D01*
X019706Y012455D02*
X020083Y012455D01*
X020083Y012553D02*
X019563Y012553D01*
X019273Y011962D02*
X019248Y011962D01*
X019248Y011863D02*
X019273Y011863D01*
X019273Y011765D02*
X019199Y011765D01*
X019273Y011666D02*
X019101Y011666D01*
X019002Y011568D02*
X019273Y011568D01*
X019273Y011469D02*
X018007Y011469D01*
X017989Y011371D02*
X017909Y011371D01*
X017900Y010681D02*
X017921Y010681D01*
X017900Y010582D02*
X018020Y010582D01*
X017900Y010484D02*
X019273Y010484D01*
X019273Y010582D02*
X019017Y010582D01*
X019115Y010681D02*
X019273Y010681D01*
X019273Y010779D02*
X019214Y010779D01*
X019248Y010878D02*
X019273Y010878D01*
X019273Y010976D02*
X019248Y010976D01*
X019248Y011075D02*
X019273Y011075D01*
X019273Y011174D02*
X019245Y011174D01*
X019273Y011272D02*
X019146Y011272D01*
X019048Y011371D02*
X019273Y011371D01*
X019273Y010385D02*
X019033Y010385D01*
X019132Y010287D02*
X019273Y010287D01*
X019273Y010188D02*
X019230Y010188D01*
X019248Y010090D02*
X019273Y010090D01*
X019273Y009991D02*
X019248Y009991D01*
X019248Y009892D02*
X019273Y009892D01*
X019273Y009794D02*
X019229Y009794D01*
X019273Y009695D02*
X019130Y009695D01*
X019031Y009597D02*
X019273Y009597D01*
X018518Y008992D02*
X018514Y008996D01*
X018508Y008996D01*
X018018Y009400D02*
X017749Y009400D01*
X017650Y009301D02*
X017920Y009301D01*
X017821Y009203D02*
X017552Y009203D01*
X017453Y009104D02*
X017788Y009104D01*
X017788Y009006D02*
X017355Y009006D01*
X016894Y008130D02*
X016886Y008122D01*
X016431Y008122D01*
X016241Y007626D02*
X013471Y007626D01*
X013471Y007527D02*
X016241Y007527D01*
X016241Y007429D02*
X013471Y007429D01*
X013471Y007330D02*
X016241Y007330D01*
X016241Y007232D02*
X013471Y007232D01*
X013471Y007133D02*
X016241Y007133D01*
X016119Y007035D02*
X016090Y007035D01*
X015804Y007035D02*
X015707Y007035D01*
X015707Y007091D02*
X015477Y007091D01*
X015389Y007003D01*
X015389Y006792D01*
X015707Y006792D01*
X015707Y007091D01*
X015707Y006936D02*
X015804Y006936D01*
X015804Y006838D02*
X015707Y006838D01*
X015389Y006838D02*
X014327Y006838D01*
X014327Y006936D02*
X015389Y006936D01*
X015421Y007035D02*
X014303Y007035D01*
X014009Y007035D02*
X013912Y007035D01*
X013912Y006936D02*
X014009Y006936D01*
X014009Y006838D02*
X013912Y006838D01*
X013618Y007035D02*
X013605Y007035D01*
X013111Y007133D02*
X011651Y007133D01*
X011651Y007035D02*
X012977Y007035D01*
X013111Y007232D02*
X011651Y007232D01*
X011651Y007330D02*
X013111Y007330D01*
X013111Y007429D02*
X011651Y007429D01*
X011651Y007527D02*
X013111Y007527D01*
X013111Y007626D02*
X011651Y007626D01*
X011151Y007626D02*
X011146Y007626D01*
X011146Y007724D02*
X011151Y007724D01*
X011146Y007823D02*
X011151Y007823D01*
X011146Y007922D02*
X011151Y007922D01*
X011146Y008020D02*
X011151Y008020D01*
X011146Y008119D02*
X011151Y008119D01*
X011146Y008217D02*
X011151Y008217D01*
X011146Y008316D02*
X011151Y008316D01*
X011146Y008414D02*
X011151Y008414D01*
X011146Y008513D02*
X011151Y008513D01*
X011146Y008611D02*
X011151Y008611D01*
X011146Y008710D02*
X011151Y008710D01*
X011146Y008808D02*
X011151Y008808D01*
X011151Y008833D02*
X011151Y006980D01*
X011146Y006975D01*
X011146Y016006D01*
X011239Y015913D01*
X011639Y015913D01*
X011639Y016292D01*
X011699Y016292D01*
X011699Y015913D01*
X012099Y015913D01*
X012339Y016153D01*
X012339Y016292D01*
X011699Y016292D01*
X011699Y016353D01*
X011639Y016353D01*
X011639Y016732D01*
X011239Y016732D01*
X011146Y016639D01*
X011146Y016771D01*
X012956Y016771D01*
X012956Y016686D01*
X012979Y016663D01*
X012956Y016640D01*
X012956Y016139D01*
X012979Y016116D01*
X012956Y016093D01*
X012956Y015591D01*
X012979Y015569D01*
X012956Y015546D01*
X012956Y015044D01*
X013005Y014996D01*
X012936Y014928D01*
X012936Y014717D01*
X013254Y014717D01*
X013254Y014620D01*
X012936Y014620D01*
X012936Y014410D01*
X013022Y014324D01*
X012936Y014239D01*
X012936Y014028D01*
X013254Y014028D01*
X013254Y013931D01*
X012936Y013931D01*
X012936Y013721D01*
X012944Y013714D01*
X012891Y013714D01*
X012771Y013664D01*
X012678Y013571D01*
X012672Y013555D01*
X012430Y013555D01*
X012419Y013544D01*
X012389Y013575D01*
X012121Y013575D01*
X012121Y013219D01*
X012021Y013219D01*
X012021Y013575D01*
X011753Y013575D01*
X011665Y013487D01*
X011665Y013219D01*
X012021Y013219D01*
X012021Y013119D01*
X012121Y013119D01*
X012121Y012763D01*
X012389Y012763D01*
X012419Y012794D01*
X012430Y012783D01*
X012490Y012783D01*
X012490Y012689D01*
X012332Y012689D01*
X012321Y012678D01*
X012290Y012709D01*
X012022Y012709D01*
X012022Y012353D01*
X011922Y012353D01*
X011922Y012253D01*
X011566Y012253D01*
X011566Y011985D01*
X011654Y011897D01*
X011922Y011897D01*
X011922Y012253D01*
X012022Y012253D01*
X012022Y011897D01*
X012290Y011897D01*
X012321Y011928D01*
X012332Y011917D01*
X012392Y011917D01*
X012392Y010280D01*
X011151Y009040D01*
X011151Y008833D01*
X011146Y008907D02*
X011151Y008907D01*
X011146Y009006D02*
X011151Y009006D01*
X011146Y009104D02*
X011215Y009104D01*
X011146Y009203D02*
X011314Y009203D01*
X011412Y009301D02*
X011146Y009301D01*
X011146Y009400D02*
X011511Y009400D01*
X011609Y009498D02*
X011146Y009498D01*
X011146Y009597D02*
X011708Y009597D01*
X011807Y009695D02*
X011146Y009695D01*
X011146Y009794D02*
X011905Y009794D01*
X012004Y009892D02*
X011146Y009892D01*
X011146Y009991D02*
X012102Y009991D01*
X012201Y010090D02*
X011146Y010090D01*
X011146Y010188D02*
X012299Y010188D01*
X012392Y010287D02*
X011146Y010287D01*
X011146Y010385D02*
X012392Y010385D01*
X012392Y010484D02*
X011146Y010484D01*
X011146Y010582D02*
X012392Y010582D01*
X012392Y010681D02*
X011146Y010681D01*
X011146Y010779D02*
X012392Y010779D01*
X012392Y010878D02*
X011146Y010878D01*
X011146Y010976D02*
X012392Y010976D01*
X012392Y011075D02*
X011146Y011075D01*
X011146Y011174D02*
X012392Y011174D01*
X012392Y011272D02*
X011146Y011272D01*
X011146Y011371D02*
X012392Y011371D01*
X012392Y011469D02*
X011146Y011469D01*
X011146Y011568D02*
X012392Y011568D01*
X012392Y011666D02*
X011146Y011666D01*
X011146Y011765D02*
X012392Y011765D01*
X012392Y011863D02*
X011146Y011863D01*
X011146Y011962D02*
X011589Y011962D01*
X011566Y012060D02*
X011146Y012060D01*
X011146Y012159D02*
X011566Y012159D01*
X011566Y012353D02*
X011922Y012353D01*
X011922Y012709D01*
X011654Y012709D01*
X011566Y012621D01*
X011566Y012353D01*
X011566Y012356D02*
X011146Y012356D01*
X011146Y012257D02*
X011922Y012257D01*
X011972Y012303D02*
X012051Y012500D01*
X012051Y013169D01*
X012071Y013169D01*
X012021Y013144D02*
X011146Y013144D01*
X011146Y013046D02*
X011665Y013046D01*
X011665Y013119D02*
X011665Y012851D01*
X011753Y012763D01*
X012021Y012763D01*
X012021Y013119D01*
X011665Y013119D01*
X011665Y013243D02*
X011146Y013243D01*
X011146Y013341D02*
X011665Y013341D01*
X011665Y013440D02*
X011146Y013440D01*
X011146Y013539D02*
X011716Y013539D01*
X012021Y013539D02*
X012121Y013539D01*
X012121Y013440D02*
X012021Y013440D01*
X012021Y013341D02*
X012121Y013341D01*
X012121Y013243D02*
X012021Y013243D01*
X012021Y013046D02*
X012121Y013046D01*
X012121Y012947D02*
X012021Y012947D01*
X012021Y012849D02*
X012121Y012849D01*
X012022Y012652D02*
X011922Y012652D01*
X011922Y012553D02*
X012022Y012553D01*
X012022Y012455D02*
X011922Y012455D01*
X011922Y012356D02*
X012022Y012356D01*
X012022Y012159D02*
X011922Y012159D01*
X011922Y012060D02*
X012022Y012060D01*
X012022Y011962D02*
X011922Y011962D01*
X011566Y012455D02*
X011146Y012455D01*
X011146Y012553D02*
X011566Y012553D01*
X011597Y012652D02*
X011146Y012652D01*
X011146Y012750D02*
X012490Y012750D01*
X012740Y012519D02*
X012642Y012303D01*
X011667Y012849D02*
X011146Y012849D01*
X011146Y012947D02*
X011665Y012947D01*
X011146Y013637D02*
X012744Y013637D01*
X012936Y013736D02*
X011146Y013736D01*
X011146Y013834D02*
X012936Y013834D01*
X012936Y014031D02*
X012491Y014031D01*
X012473Y014013D02*
X012565Y014105D01*
X012615Y014226D01*
X012615Y014299D01*
X012739Y014299D01*
X012815Y014375D01*
X012815Y014876D01*
X012739Y014952D01*
X012644Y014952D01*
X012644Y015015D01*
X012739Y015015D01*
X012815Y015091D01*
X012815Y015593D01*
X012739Y015669D01*
X012198Y015669D01*
X012148Y015619D01*
X012078Y015689D01*
X011847Y015689D01*
X011847Y015391D01*
X011751Y015391D01*
X011751Y015689D01*
X011520Y015689D01*
X011433Y015601D01*
X011433Y015391D01*
X011750Y015391D01*
X011750Y015294D01*
X011433Y015294D01*
X011433Y015083D01*
X011520Y014995D01*
X011751Y014995D01*
X011751Y015294D01*
X011847Y015294D01*
X011847Y014995D01*
X012078Y014995D01*
X012148Y015066D01*
X012198Y015015D01*
X012284Y015015D01*
X012284Y014952D01*
X012198Y014952D01*
X012134Y014888D01*
X012069Y014952D01*
X011529Y014952D01*
X011453Y014876D01*
X011453Y014569D01*
X011452Y014569D01*
X011359Y014477D01*
X011310Y014356D01*
X011310Y014226D01*
X011359Y014105D01*
X011452Y014013D01*
X011572Y013963D01*
X011703Y013963D01*
X011823Y014013D01*
X011916Y014105D01*
X011962Y014218D01*
X012009Y014105D01*
X012101Y014013D01*
X012222Y013963D01*
X012353Y013963D01*
X012473Y014013D01*
X012576Y014130D02*
X012936Y014130D01*
X012936Y014228D02*
X012615Y014228D01*
X012767Y014327D02*
X013020Y014327D01*
X012936Y014425D02*
X012815Y014425D01*
X012815Y014524D02*
X012936Y014524D01*
X012815Y014623D02*
X013254Y014623D01*
X013254Y014620D02*
X013351Y014620D01*
X013351Y014327D01*
X013254Y014327D01*
X013254Y014029D01*
X013351Y014029D01*
X013351Y014327D01*
X013254Y014327D02*
X013254Y014620D01*
X013254Y014524D02*
X013351Y014524D01*
X013351Y014425D02*
X013254Y014425D01*
X013254Y014228D02*
X013351Y014228D01*
X013351Y014130D02*
X013254Y014130D01*
X013254Y014031D02*
X013351Y014031D01*
X013351Y013931D02*
X013351Y013633D01*
X013449Y013633D01*
X013449Y013594D01*
X013308Y013594D01*
X013249Y013535D01*
X013235Y013571D01*
X013173Y013633D01*
X013254Y013633D01*
X013254Y013931D01*
X013351Y013931D01*
X013254Y013933D02*
X011146Y013933D01*
X011146Y014031D02*
X011433Y014031D01*
X011349Y014130D02*
X011146Y014130D01*
X011146Y014228D02*
X011310Y014228D01*
X011310Y014327D02*
X011146Y014327D01*
X011146Y014425D02*
X011338Y014425D01*
X011407Y014524D02*
X011146Y014524D01*
X011146Y014623D02*
X011453Y014623D01*
X011453Y014721D02*
X011146Y014721D01*
X011146Y014820D02*
X011453Y014820D01*
X011494Y014918D02*
X011146Y014918D01*
X011146Y015017D02*
X011499Y015017D01*
X011433Y015115D02*
X011146Y015115D01*
X011146Y015214D02*
X011433Y015214D01*
X011433Y015411D02*
X011146Y015411D01*
X011146Y015509D02*
X011433Y015509D01*
X011439Y015608D02*
X011146Y015608D01*
X011146Y015706D02*
X012956Y015706D01*
X012956Y015608D02*
X012800Y015608D01*
X012815Y015509D02*
X012956Y015509D01*
X012956Y015411D02*
X012815Y015411D01*
X012815Y015312D02*
X012956Y015312D01*
X012956Y015214D02*
X012815Y015214D01*
X012815Y015115D02*
X012956Y015115D01*
X012984Y015017D02*
X012740Y015017D01*
X012773Y014918D02*
X012936Y014918D01*
X012936Y014820D02*
X012815Y014820D01*
X012815Y014721D02*
X012936Y014721D01*
X012468Y014661D02*
X012468Y014626D01*
X012464Y014630D01*
X012464Y014665D01*
X012287Y014488D01*
X012287Y014291D01*
X011999Y014130D02*
X011926Y014130D01*
X011842Y014031D02*
X012083Y014031D01*
X011638Y014291D02*
X011638Y014626D01*
X011799Y014626D01*
X011775Y014626D01*
X011751Y015017D02*
X011847Y015017D01*
X011847Y015115D02*
X011751Y015115D01*
X011751Y015214D02*
X011847Y015214D01*
X011834Y015334D02*
X011807Y015334D01*
X011799Y015342D01*
X011750Y015312D02*
X011146Y015312D01*
X011146Y015805D02*
X012956Y015805D01*
X012956Y015904D02*
X011146Y015904D01*
X011146Y016002D02*
X011150Y016002D01*
X011639Y016002D02*
X011699Y016002D01*
X011699Y016101D02*
X011639Y016101D01*
X011639Y016199D02*
X011699Y016199D01*
X011699Y016298D02*
X012956Y016298D01*
X012956Y016396D02*
X012339Y016396D01*
X012339Y016353D02*
X012339Y016492D01*
X012099Y016732D01*
X011699Y016732D01*
X011699Y016353D01*
X012339Y016353D01*
X012337Y016495D02*
X012956Y016495D01*
X012956Y016593D02*
X012238Y016593D01*
X012139Y016692D02*
X012956Y016692D01*
X012956Y016199D02*
X012339Y016199D01*
X012287Y016101D02*
X012964Y016101D01*
X012956Y016002D02*
X012189Y016002D01*
X011847Y015608D02*
X011751Y015608D01*
X011751Y015509D02*
X011847Y015509D01*
X011847Y015411D02*
X011751Y015411D01*
X012099Y015017D02*
X012197Y015017D01*
X012164Y014918D02*
X012104Y014918D01*
X012464Y014665D02*
X012468Y014661D01*
X012464Y014665D02*
X012464Y015346D01*
X012468Y015342D01*
X012464Y015346D02*
X012464Y015374D01*
X012464Y014645D02*
X012464Y014630D01*
X013254Y013834D02*
X013351Y013834D01*
X013351Y013736D02*
X013254Y013736D01*
X013254Y013637D02*
X013351Y013637D01*
X013253Y013539D02*
X013248Y013539D01*
X013972Y014669D02*
X013980Y014685D01*
X015807Y013267D02*
X015807Y013248D01*
X016705Y013248D01*
X016842Y013240D01*
X017169Y013243D02*
X017861Y013243D01*
X017788Y013144D02*
X017169Y013144D01*
X017169Y013046D02*
X017788Y013046D01*
X017788Y012947D02*
X017147Y012947D01*
X017161Y012849D02*
X017788Y012849D01*
X017960Y013341D02*
X017169Y013341D01*
X017169Y013440D02*
X020083Y013440D01*
X017965Y013637D02*
X016759Y013637D01*
X016843Y013736D02*
X017020Y013736D01*
X016980Y013834D02*
X016843Y013834D01*
X016525Y014031D02*
X016428Y014031D01*
X016428Y014130D02*
X016525Y014130D01*
X016525Y014228D02*
X016428Y014228D01*
X016843Y014228D02*
X016980Y014228D01*
X017751Y013736D02*
X017866Y013736D01*
X016516Y013440D02*
X016153Y013440D01*
X016153Y013046D02*
X016516Y013046D01*
X016538Y012947D02*
X016084Y012947D01*
X016182Y012849D02*
X016523Y012849D01*
X016516Y012750D02*
X016260Y012750D01*
X016296Y012652D02*
X016516Y012652D01*
X015755Y012849D02*
X015644Y012849D01*
X015530Y012947D02*
X015415Y012947D01*
X015327Y012849D02*
X015326Y012849D01*
X015326Y012750D02*
X015327Y012750D01*
X015326Y012652D02*
X015327Y012652D01*
X015130Y012551D02*
X015122Y012551D01*
X015327Y011649D02*
X015397Y011649D01*
X015795Y013248D02*
X015807Y013248D01*
X017796Y015608D02*
X017994Y015608D01*
X017896Y015706D02*
X017895Y015706D01*
X011699Y016396D02*
X011639Y016396D01*
X011639Y016495D02*
X011699Y016495D01*
X011699Y016593D02*
X011639Y016593D01*
X011639Y016692D02*
X011699Y016692D01*
X011199Y016692D02*
X011146Y016692D01*
X017900Y010385D02*
X018004Y010385D01*
X017905Y010287D02*
X017900Y010287D01*
X015301Y008414D02*
X013761Y008414D01*
X013761Y008316D02*
X015301Y008316D01*
X015301Y008217D02*
X013761Y008217D01*
X013761Y008119D02*
X015301Y008119D01*
X015301Y008020D02*
X013761Y008020D01*
X013761Y007922D02*
X015301Y007922D01*
X015301Y007823D02*
X013761Y007823D01*
X013761Y007724D02*
X015301Y007724D01*
X015389Y006641D02*
X014327Y006641D01*
X014327Y006542D02*
X015389Y006542D01*
X015431Y006443D02*
X014278Y006443D01*
X013643Y006443D02*
X013580Y006443D01*
X013336Y005557D02*
X012811Y005557D01*
X012811Y005458D02*
X013238Y005458D01*
X013139Y005359D02*
X012811Y005359D01*
X012791Y005261D02*
X013041Y005261D01*
X012180Y006246D02*
X012080Y006246D01*
X012080Y006345D02*
X012180Y006345D01*
X012180Y006443D02*
X012080Y006443D01*
X012080Y006542D02*
X012180Y006542D01*
X011151Y006980D02*
X011151Y006980D01*
X011146Y007035D02*
X011151Y007035D01*
X011146Y007133D02*
X011151Y007133D01*
X011146Y007232D02*
X011151Y007232D01*
X011146Y007330D02*
X011151Y007330D01*
X011146Y007429D02*
X011151Y007429D01*
X011146Y007527D02*
X011151Y007527D01*
X013823Y009409D02*
X014236Y008996D01*
X011716Y010137D02*
X011677Y010137D01*
X016731Y007035D02*
X016773Y007035D01*
X016772Y006936D02*
X016804Y006936D01*
X016772Y006838D02*
X016903Y006838D01*
X017001Y006739D02*
X016772Y006739D01*
D23*
X017031Y008760D03*
X017090Y010354D03*
X016303Y011830D03*
X015968Y012598D03*
X014925Y011968D03*
X014413Y011122D03*
X013275Y011842D03*
X013291Y012500D03*
X013803Y012756D03*
X014118Y013267D03*
X015063Y013326D03*
X015177Y013807D03*
X014744Y014019D03*
X016303Y014941D03*
X016933Y014763D03*
X016539Y015571D03*
X017366Y016181D03*
X019177Y016574D03*
X019216Y015492D03*
X019787Y014941D03*
X017543Y013307D03*
X019453Y012244D03*
X019866Y011496D03*
X014590Y010059D03*
X014630Y009330D03*
X014236Y008996D03*
X013547Y009074D03*
X011677Y010137D03*
X011933Y011397D03*
X012957Y013386D03*
X012701Y014015D03*
X012287Y014291D03*
X011638Y014291D03*
X012523Y015964D03*
X013980Y018681D03*
X014492Y019035D03*
X015023Y018681D03*
X014000Y007697D03*
X013764Y006200D03*
X012779Y006260D03*
X010752Y004724D03*
X014630Y001338D03*
X015535Y002401D03*
D24*
X016697Y010630D03*
X016303Y011063D03*
D25*
X012957Y013386D02*
X012740Y013169D01*
X012740Y012519D01*
X012642Y012342D02*
X012642Y012303D01*
X012642Y010177D01*
X011401Y008937D01*
X011401Y006594D01*
X011460Y006594D01*
X011539Y006594D01*
X011539Y005649D01*
X011539Y004980D02*
X012405Y004980D01*
X021957Y004980D01*
X023748Y003189D01*
X022960Y003189D02*
X022957Y003189D01*
X021972Y004173D01*
X007787Y004173D01*
X007787Y003701D01*
X011480Y004921D02*
X011539Y004980D01*
X012386Y004960D02*
X012405Y004980D01*
X012405Y004941D01*
X013970Y013980D02*
X013972Y013980D01*
X016933Y014763D02*
X017386Y014763D01*
X017464Y014763D01*
X017464Y015630D01*
X017827Y015992D01*
X018518Y015992D01*
X019779Y015992D01*
X020023Y014547D02*
X021476Y016000D01*
X024535Y016000D01*
D26*
X003114Y001338D02*
X000397Y004055D01*
X000397Y016673D01*
X003114Y019389D01*
X026027Y019389D01*
X028724Y016693D01*
X028724Y004035D01*
X026027Y001338D01*
X015201Y001338D01*
X014846Y001693D01*
X003173Y001693D01*
X000752Y004114D01*
X000752Y016614D01*
X003173Y019035D01*
X014492Y019035D01*
X014492Y018267D01*
X014492Y018326D01*
X014492Y018267D02*
X014492Y016941D01*
X015023Y016941D01*
X014492Y016941D02*
X014492Y016937D01*
X013972Y016937D01*
X014492Y016937D02*
X014492Y016389D01*
X014500Y016389D01*
X013972Y016389D01*
X014492Y016389D02*
X014492Y014279D01*
X014748Y014023D01*
X015023Y014409D02*
X015220Y014212D01*
X015563Y014212D01*
X015775Y014000D01*
X015795Y013980D01*
X015791Y013976D01*
X015807Y013980D02*
X015807Y013267D01*
X015023Y014409D02*
X015023Y014665D01*
X015023Y014653D01*
X015020Y014653D01*
X015023Y014653D02*
X015023Y015299D01*
X015023Y015838D01*
X015020Y015838D01*
X015023Y015838D02*
X015023Y015846D01*
X015689Y015858D02*
X015693Y015858D01*
X015693Y015846D01*
X015693Y016346D01*
X015689Y016346D01*
X015693Y016346D02*
X015693Y016393D01*
X015693Y016941D01*
X015693Y017488D01*
X015023Y017488D02*
X015023Y018326D01*
X025850Y018326D01*
X027661Y016515D01*
X027661Y004212D01*
X025850Y002401D01*
X015535Y002401D01*
X015358Y002047D02*
X015004Y002401D01*
X003291Y002401D01*
X001480Y004212D01*
X001480Y016515D01*
X003291Y018326D01*
X013972Y018326D01*
X013972Y017484D01*
X013303Y017484D02*
X013303Y016937D01*
X013303Y016389D01*
X013303Y015842D01*
X013303Y015807D01*
X013303Y015295D01*
X013303Y015799D02*
X013303Y015807D01*
X013972Y015842D02*
X013976Y015838D01*
X013976Y015291D01*
X013972Y015295D01*
X013980Y015287D01*
X013980Y014685D01*
X013980Y014665D01*
X013980Y013988D01*
X013972Y013980D01*
X013970Y013980D02*
X013970Y013821D01*
X013579Y013429D01*
X013579Y013267D01*
X013980Y014626D02*
X013980Y014665D01*
X013976Y014665D01*
X015693Y015299D02*
X015693Y015846D01*
X015693Y016386D02*
X015689Y016386D01*
X015693Y016386D02*
X015693Y016393D01*
X015023Y016389D02*
X014500Y016389D01*
X015023Y016389D02*
X015023Y016393D01*
X013303Y016389D02*
X013303Y016386D01*
X013980Y018681D02*
X003232Y018681D01*
X001146Y016594D01*
X001106Y016555D01*
X001106Y004173D01*
X003232Y002047D01*
X014925Y002047D01*
X015279Y001693D01*
X025968Y001693D01*
X028370Y004094D01*
X028370Y016634D01*
X025968Y019035D01*
X014492Y019035D01*
X015023Y018681D02*
X025909Y018681D01*
X028016Y016574D01*
X028016Y004153D01*
X025909Y002047D01*
X015358Y002047D01*
X014630Y001338D02*
X003114Y001338D01*
X001126Y016574D02*
X001146Y016594D01*
D27*
X007787Y017063D02*
X009516Y015334D01*
X011807Y015334D01*
X011799Y015342D02*
X011791Y015334D01*
X011799Y015342D02*
X011787Y015354D01*
X012071Y013169D02*
X012071Y013149D01*
M02*
