%
M48
M72
T01C0.0236
T02C0.0236
T03C0.0315
T04C0.0320
T05C0.0400
T06C0.0472
T07C0.0866
%
T01
X16303Y11063
X16697Y10630
T02
X17090Y10354
X17031Y8760
X14630Y9330
X14236Y8996
X13547Y9074
X14590Y10059
X14413Y11122
X14925Y11968
X15968Y12598
X16303Y11830
X17543Y13307
X19453Y12244
X19866Y11496
X16933Y14763
X16303Y14941
X16539Y15571
X17366Y16181
X19177Y16574
X19216Y15492
X19787Y14941
X15177Y13807
X14744Y14019
X15063Y13326
X14118Y13267
X13803Y12756
X13291Y12500
X13275Y11842
X11933Y11397
X11677Y10137
X14000Y7697
X13764Y6200
X12779Y6260
X10752Y4724
X14630Y1338
X15535Y2401
X12957Y13386
X12701Y14015
X12287Y14291
X11638Y14291
X12523Y15964
X13980Y18681
X14492Y19035
X15023Y18681
T03
X22960Y3189
X23748Y3189
X24535Y3189
X5665Y3173
X3894Y3173
T04
X11669Y16323
X11669Y17323
T05
X10004Y17330
X10004Y16330
X18518Y15992
X18518Y14992
X18518Y13992
X18518Y12992
X18518Y11992
X18518Y10992
X18518Y9992
X18518Y8992
X18518Y7992
X17523Y7153
X17523Y6153
X24535Y8000
X24535Y9000
X24535Y10000
X24535Y11000
X24535Y12000
X24535Y13000
X24535Y14000
X24535Y15000
X24535Y16000
T06
X6177Y3960
X3382Y3960
T07
X1205Y2145
X1205Y18582
X27917Y18582
X27917Y2145
M30
