G75*
G70*
%OFA0B0*%
%FSLAX24Y24*%
%IPPOS*%
%LPD*%
%AMOC8*
5,1,8,0,0,1.08239X$1,22.5*
%
%ADD10O,0.1200X0.0600*%
%ADD11O,0.1040X0.0520*%
%ADD12C,0.0515*%
%ADD13C,0.0709*%
%ADD14C,0.0396*%
%ADD15C,0.0396*%
%ADD16C,0.0100*%
%ADD17C,0.0240*%
%ADD18C,0.0120*%
D10*
X017523Y006153D03*
X017523Y007153D03*
X018518Y007992D03*
X018518Y008992D03*
X018518Y009992D03*
X018518Y010992D03*
X018518Y011992D03*
X018518Y012992D03*
X018518Y013992D03*
X018518Y014992D03*
X018518Y015992D03*
X024535Y016000D03*
X024535Y015000D03*
X024535Y014000D03*
X024535Y013000D03*
X024535Y012000D03*
X024535Y011000D03*
X024535Y010000D03*
X024535Y009000D03*
X024535Y008000D03*
X010004Y016330D03*
X010004Y017330D03*
D11*
X011669Y017323D03*
X011669Y016323D03*
D12*
X005665Y003173D03*
X003894Y003173D03*
X022960Y003189D03*
X023748Y003189D03*
X024535Y003189D03*
D13*
X006177Y003960D03*
X003382Y003960D03*
D14*
X010752Y004724D03*
X012779Y006260D03*
X013764Y006200D03*
X014000Y007697D03*
X014236Y008996D03*
X014630Y009330D03*
X014590Y010059D03*
X014413Y011122D03*
X014925Y011968D03*
X015968Y012598D03*
X016303Y011830D03*
X017543Y013307D03*
X019453Y012244D03*
X019866Y011496D03*
X017090Y010354D03*
X017031Y008760D03*
X013547Y009074D03*
X011677Y010137D03*
X011933Y011397D03*
X013275Y011842D03*
X013291Y012500D03*
X013803Y012756D03*
X014118Y013267D03*
X015063Y013326D03*
X015177Y013807D03*
X014744Y014019D03*
X016303Y014941D03*
X016933Y014763D03*
X016539Y015571D03*
X017366Y016181D03*
X019177Y016574D03*
X019216Y015492D03*
X019787Y014941D03*
X015023Y018681D03*
X014492Y019035D03*
X013980Y018681D03*
X012523Y015964D03*
X012287Y014291D03*
X012701Y014015D03*
X012957Y013386D03*
X011638Y014291D03*
X015535Y002401D03*
X014630Y001338D03*
D15*
X016697Y010630D03*
X016303Y011063D03*
D16*
X016295Y011055D01*
X015984Y010976D02*
X013727Y010976D01*
X013727Y010878D02*
X016024Y010878D01*
X016025Y010877D02*
X016117Y010785D01*
X016238Y010735D01*
X016350Y010735D01*
X016320Y010704D01*
X015480Y009865D01*
X013727Y009865D01*
X013727Y011645D01*
X013622Y011751D01*
X013601Y011771D01*
X013604Y011777D01*
X013604Y011907D01*
X013554Y012028D01*
X013461Y012120D01*
X013341Y012170D01*
X013210Y012170D01*
X013207Y012169D01*
X013189Y012187D01*
X013226Y012172D01*
X013356Y012172D01*
X013477Y012222D01*
X013553Y012298D01*
X013553Y012278D01*
X014222Y011609D01*
X014242Y011589D01*
X014585Y011246D01*
X014792Y011246D01*
X015609Y011246D01*
X015751Y011246D01*
X015975Y011021D01*
X015975Y010997D01*
X016025Y010877D01*
X016130Y010779D02*
X013727Y010779D01*
X013727Y010681D02*
X016296Y010681D01*
X016198Y010582D02*
X013727Y010582D01*
X013727Y010484D02*
X016099Y010484D01*
X016001Y010385D02*
X013727Y010385D01*
X013727Y010287D02*
X015902Y010287D01*
X015804Y010188D02*
X013727Y010188D01*
X013727Y010090D02*
X015705Y010090D01*
X015607Y009991D02*
X013727Y009991D01*
X013727Y009892D02*
X015508Y009892D01*
X015555Y009685D02*
X013547Y009685D01*
X013547Y011571D01*
X013275Y011842D01*
X013275Y011846D01*
X011638Y013484D01*
X011638Y014291D01*
X011869Y014524D02*
X012056Y014524D01*
X012101Y014569D02*
X012009Y014477D01*
X011962Y014364D01*
X011916Y014477D01*
X011823Y014569D01*
X011703Y014619D01*
X011572Y014619D01*
X011452Y014569D01*
X011359Y014477D01*
X011310Y014356D01*
X011310Y014226D01*
X011359Y014105D01*
X011452Y014013D01*
X011458Y014010D01*
X011458Y013558D01*
X011458Y013409D01*
X012951Y011916D01*
X012947Y011907D01*
X012947Y011777D01*
X012997Y011656D01*
X013090Y011564D01*
X013210Y011514D01*
X013341Y011514D01*
X013347Y011517D01*
X013367Y011496D01*
X013367Y009759D01*
X013367Y009610D01*
X013473Y009505D01*
X015629Y009505D01*
X015735Y009610D01*
X016494Y010369D01*
X016511Y010352D01*
X016631Y010302D01*
X016762Y010302D01*
X016882Y010352D01*
X016975Y010444D01*
X017025Y010564D01*
X017025Y010695D01*
X016975Y010815D01*
X016882Y010908D01*
X016762Y010958D01*
X016631Y010958D01*
X016611Y010949D01*
X016631Y010997D01*
X016631Y011128D01*
X016581Y011248D01*
X016489Y011341D01*
X016368Y011391D01*
X016313Y011391D01*
X016175Y011528D01*
X016238Y011502D01*
X016368Y011502D01*
X016489Y011552D01*
X016581Y011645D01*
X016584Y011650D01*
X017272Y011650D01*
X017540Y011382D01*
X017646Y011276D01*
X017895Y011276D01*
X017788Y011170D01*
X017788Y010814D01*
X018040Y010562D01*
X018996Y010562D01*
X019121Y010687D01*
X019154Y010653D01*
X019154Y010264D01*
X018996Y010422D01*
X018040Y010422D01*
X017788Y010170D01*
X017788Y009814D01*
X017915Y009688D01*
X017362Y009688D01*
X017213Y009688D01*
X016701Y009176D01*
X014517Y009176D01*
X014514Y009182D01*
X014422Y009274D01*
X014301Y009324D01*
X014171Y009324D01*
X014050Y009274D01*
X013958Y009182D01*
X013908Y009061D01*
X013908Y008968D01*
X013873Y009003D01*
X013875Y009009D01*
X013875Y009140D01*
X013825Y009260D01*
X013733Y009353D01*
X013612Y009403D01*
X013482Y009403D01*
X013361Y009353D01*
X013269Y009260D01*
X013219Y009140D01*
X013219Y009009D01*
X013269Y008889D01*
X013361Y008796D01*
X013482Y008746D01*
X013612Y008746D01*
X013618Y008749D01*
X014450Y007917D01*
X014555Y007812D01*
X017790Y007812D01*
X017999Y007603D01*
X017573Y007603D01*
X017573Y007203D01*
X017473Y007203D01*
X017473Y007103D01*
X016773Y007103D01*
X016773Y006967D01*
X016907Y006833D01*
X013689Y006833D01*
X013584Y006728D01*
X011760Y004904D01*
X011146Y004904D01*
X011146Y015164D01*
X011165Y015144D01*
X011972Y015144D01*
X013790Y013327D01*
X013790Y013202D01*
X013839Y013084D01*
X013828Y013084D01*
X013710Y013202D01*
X013503Y013202D01*
X013493Y013202D01*
X013285Y013411D01*
X013285Y013451D01*
X013235Y013571D01*
X013142Y013664D01*
X013022Y013714D01*
X012891Y013714D01*
X012771Y013664D01*
X012678Y013571D01*
X012628Y013451D01*
X012628Y013417D01*
X012467Y013578D01*
X012467Y014010D01*
X012473Y014013D01*
X012565Y014105D01*
X012615Y014226D01*
X012615Y014356D01*
X012565Y014477D01*
X012473Y014569D01*
X012353Y014619D01*
X012222Y014619D01*
X012101Y014569D01*
X011988Y014425D02*
X011937Y014425D01*
X011407Y014524D02*
X011146Y014524D01*
X011146Y014623D02*
X012494Y014623D01*
X012518Y014524D02*
X012593Y014524D01*
X012587Y014425D02*
X012691Y014425D01*
X012615Y014327D02*
X012790Y014327D01*
X012888Y014228D02*
X012615Y014228D01*
X012576Y014130D02*
X012987Y014130D01*
X013085Y014031D02*
X012491Y014031D01*
X012467Y013933D02*
X013184Y013933D01*
X013282Y013834D02*
X012467Y013834D01*
X012467Y013736D02*
X013381Y013736D01*
X013480Y013637D02*
X013169Y013637D01*
X013248Y013539D02*
X013578Y013539D01*
X013677Y013440D02*
X013285Y013440D01*
X013354Y013341D02*
X013775Y013341D01*
X013790Y013243D02*
X013453Y013243D01*
X013768Y013144D02*
X013814Y013144D01*
X014082Y012939D02*
X014183Y012939D01*
X014304Y012989D01*
X014396Y013082D01*
X014446Y013202D01*
X014446Y013261D01*
X014571Y013136D01*
X014728Y013136D01*
X014789Y013136D01*
X014877Y013048D01*
X014998Y012998D01*
X015128Y012998D01*
X015249Y013048D01*
X015341Y013141D01*
X015383Y013243D01*
X015383Y013243D01*
X015718Y012908D01*
X015718Y012812D01*
X015690Y012784D01*
X015640Y012663D01*
X015640Y012624D01*
X015581Y012564D01*
X015581Y011746D01*
X014792Y011746D01*
X014595Y011943D01*
X014576Y011962D01*
X015581Y011962D01*
X015581Y012060D02*
X014478Y012060D01*
X014576Y011962D02*
X014053Y012485D01*
X014053Y012542D01*
X014081Y012570D01*
X014131Y012690D01*
X014131Y012821D01*
X014082Y012939D01*
X014120Y012849D02*
X015718Y012849D01*
X015679Y012947D02*
X014202Y012947D01*
X014360Y013046D02*
X014883Y013046D01*
X015243Y013046D02*
X015580Y013046D01*
X015482Y013144D02*
X015342Y013144D01*
X015676Y012750D02*
X014131Y012750D01*
X014115Y012652D02*
X015640Y012652D01*
X015581Y012553D02*
X014064Y012553D01*
X014083Y012455D02*
X015581Y012455D01*
X015581Y012356D02*
X014182Y012356D01*
X014281Y012257D02*
X015581Y012257D01*
X015581Y012159D02*
X014379Y012159D01*
X014675Y011863D02*
X015581Y011863D01*
X015581Y011765D02*
X014773Y011765D01*
X014492Y011693D02*
X014453Y011653D01*
X014413Y011771D01*
X014263Y011568D02*
X013727Y011568D01*
X013727Y011469D02*
X014362Y011469D01*
X014460Y011371D02*
X013727Y011371D01*
X013727Y011272D02*
X014559Y011272D01*
X014165Y011666D02*
X013706Y011666D01*
X013607Y011765D02*
X014066Y011765D01*
X013968Y011863D02*
X013604Y011863D01*
X013581Y011962D02*
X013869Y011962D01*
X013771Y012060D02*
X013521Y012060D01*
X013672Y012159D02*
X013368Y012159D01*
X013513Y012257D02*
X013574Y012257D01*
X013291Y012500D02*
X012287Y013504D01*
X012287Y014291D01*
X012396Y014721D02*
X011146Y014721D01*
X011146Y014820D02*
X012297Y014820D01*
X012199Y014918D02*
X011146Y014918D01*
X011146Y015017D02*
X012100Y015017D01*
X012001Y015115D02*
X011146Y015115D01*
X011401Y015820D02*
X011308Y015913D01*
X011639Y015913D01*
X011639Y016292D01*
X011699Y016292D01*
X011699Y015913D01*
X012099Y015913D01*
X012339Y016153D01*
X012339Y016292D01*
X011699Y016292D01*
X011699Y016353D01*
X011639Y016353D01*
X011639Y016732D01*
X011239Y016732D01*
X011146Y016639D01*
X011146Y016771D01*
X011974Y016771D01*
X012013Y016732D01*
X011699Y016732D01*
X011699Y016353D01*
X012339Y016353D01*
X012339Y016406D01*
X013304Y015441D01*
X013304Y015437D01*
X013410Y015331D01*
X013413Y015331D01*
X013563Y015331D01*
X016314Y015331D01*
X016353Y015292D01*
X016474Y015242D01*
X016604Y015242D01*
X016725Y015292D01*
X016817Y015385D01*
X016867Y015505D01*
X016867Y015636D01*
X016817Y015756D01*
X016725Y015849D01*
X016604Y015899D01*
X016474Y015899D01*
X016353Y015849D01*
X016261Y015756D01*
X016234Y015691D01*
X013563Y015691D01*
X012483Y016771D01*
X020075Y016771D01*
X020075Y015104D01*
X020065Y015126D01*
X019973Y015219D01*
X019853Y015269D01*
X019722Y015269D01*
X019601Y015219D01*
X019509Y015126D01*
X019459Y015006D01*
X019459Y014875D01*
X019509Y014755D01*
X019601Y014662D01*
X019607Y014660D01*
X019607Y014157D01*
X019527Y014238D01*
X019100Y014665D01*
X019248Y014814D01*
X019248Y015170D01*
X018996Y015422D01*
X018040Y015422D01*
X017788Y015170D01*
X017788Y014989D01*
X017546Y015232D01*
X017546Y015900D01*
X017552Y015903D01*
X017644Y015995D01*
X017694Y016115D01*
X017694Y016246D01*
X017644Y016367D01*
X017552Y016459D01*
X017431Y016509D01*
X017301Y016509D01*
X017180Y016459D01*
X017088Y016367D01*
X017038Y016246D01*
X017038Y016115D01*
X017088Y015995D01*
X017180Y015903D01*
X017186Y015900D01*
X017186Y015232D01*
X017186Y015083D01*
X017944Y014325D01*
X017788Y014170D01*
X017788Y013814D01*
X018040Y013562D01*
X018996Y013562D01*
X019248Y013814D01*
X019248Y014007D01*
X019273Y013983D01*
X019273Y012524D01*
X019267Y012522D01*
X019174Y012430D01*
X019124Y012309D01*
X019124Y012294D01*
X018996Y012422D01*
X018040Y012422D01*
X017788Y012170D01*
X017788Y011814D01*
X017966Y011636D01*
X017795Y011636D01*
X017421Y012010D01*
X017272Y012010D01*
X016584Y012010D01*
X016581Y012016D01*
X016489Y012109D01*
X016368Y012158D01*
X016238Y012158D01*
X016117Y012109D01*
X016081Y012072D01*
X016081Y012289D01*
X016154Y012320D01*
X016246Y012412D01*
X016296Y012533D01*
X016296Y012663D01*
X016246Y012784D01*
X016218Y012812D01*
X016218Y012908D01*
X016218Y013695D01*
X016958Y014435D01*
X016998Y014435D01*
X017119Y014485D01*
X017211Y014578D01*
X017261Y014698D01*
X017261Y014829D01*
X017211Y014949D01*
X017119Y015042D01*
X016998Y015092D01*
X016868Y015092D01*
X016747Y015042D01*
X016655Y014949D01*
X016605Y014829D01*
X016605Y014789D01*
X015718Y013902D01*
X015718Y013695D01*
X015718Y013615D01*
X015505Y013828D01*
X015505Y013872D01*
X015455Y013993D01*
X015363Y014085D01*
X015242Y014135D01*
X015112Y014135D01*
X014991Y014085D01*
X014899Y013993D01*
X014849Y013872D01*
X014849Y013741D01*
X014899Y013621D01*
X014904Y013616D01*
X014877Y013605D01*
X014789Y013516D01*
X014728Y013516D01*
X012425Y015820D01*
X012268Y015820D01*
X011401Y015820D01*
X011317Y015904D02*
X012841Y015904D01*
X012743Y016002D02*
X012189Y016002D01*
X012287Y016101D02*
X012644Y016101D01*
X012546Y016199D02*
X012339Y016199D01*
X012447Y016298D02*
X011699Y016298D01*
X011699Y016396D02*
X011639Y016396D01*
X011639Y016495D02*
X011699Y016495D01*
X011699Y016593D02*
X011639Y016593D01*
X011639Y016692D02*
X011699Y016692D01*
X011699Y016199D02*
X011639Y016199D01*
X011639Y016101D02*
X011699Y016101D01*
X011699Y016002D02*
X011639Y016002D01*
X012339Y016396D02*
X012349Y016396D01*
X012562Y016692D02*
X020075Y016692D01*
X020075Y016593D02*
X012661Y016593D01*
X012759Y016495D02*
X017267Y016495D01*
X017118Y016396D02*
X012858Y016396D01*
X012956Y016298D02*
X017059Y016298D01*
X017038Y016199D02*
X013055Y016199D01*
X013153Y016101D02*
X017044Y016101D01*
X017085Y016002D02*
X013252Y016002D01*
X013350Y015904D02*
X017179Y015904D01*
X017186Y015805D02*
X016769Y015805D01*
X016838Y015706D02*
X017186Y015706D01*
X017186Y015608D02*
X016867Y015608D01*
X016867Y015509D02*
X017186Y015509D01*
X017186Y015411D02*
X016828Y015411D01*
X016745Y015312D02*
X017186Y015312D01*
X017186Y015214D02*
X013031Y015214D01*
X012932Y015312D02*
X016333Y015312D01*
X016480Y015511D02*
X016539Y015571D01*
X016480Y015511D02*
X013488Y015511D01*
X011687Y017313D01*
X011697Y017323D01*
X011669Y017323D01*
X011669Y017330D02*
X011687Y017313D01*
X011199Y016692D02*
X011146Y016692D01*
X012439Y015805D02*
X012940Y015805D01*
X013038Y015706D02*
X012538Y015706D01*
X012637Y015608D02*
X013137Y015608D01*
X013236Y015509D02*
X012735Y015509D01*
X012834Y015411D02*
X013330Y015411D01*
X013484Y015511D02*
X013488Y015511D01*
X013548Y015706D02*
X016240Y015706D01*
X016310Y015805D02*
X013449Y015805D01*
X013129Y015115D02*
X017186Y015115D01*
X017144Y015017D02*
X017252Y015017D01*
X017224Y014918D02*
X017350Y014918D01*
X017261Y014820D02*
X017449Y014820D01*
X017548Y014721D02*
X017261Y014721D01*
X017230Y014623D02*
X017646Y014623D01*
X017745Y014524D02*
X017157Y014524D01*
X016948Y014425D02*
X017843Y014425D01*
X017942Y014327D02*
X016850Y014327D01*
X016751Y014228D02*
X017847Y014228D01*
X017788Y014130D02*
X016653Y014130D01*
X016554Y014031D02*
X017788Y014031D01*
X017788Y013933D02*
X016456Y013933D01*
X016357Y013834D02*
X017788Y013834D01*
X017866Y013736D02*
X016259Y013736D01*
X016218Y013637D02*
X017965Y013637D01*
X018040Y013422D02*
X017788Y013170D01*
X017788Y012814D01*
X018040Y012562D01*
X018996Y012562D01*
X019248Y012814D01*
X019248Y013170D01*
X018996Y013422D01*
X018040Y013422D01*
X017960Y013341D02*
X016218Y013341D01*
X016218Y013243D02*
X017861Y013243D01*
X017788Y013144D02*
X016218Y013144D01*
X016218Y013046D02*
X017788Y013046D01*
X017788Y012947D02*
X016218Y012947D01*
X016218Y012849D02*
X017788Y012849D01*
X017852Y012750D02*
X016260Y012750D01*
X016296Y012652D02*
X017950Y012652D01*
X017974Y012356D02*
X016190Y012356D01*
X016264Y012455D02*
X019199Y012455D01*
X019144Y012356D02*
X019062Y012356D01*
X019273Y012553D02*
X016296Y012553D01*
X016081Y012257D02*
X017876Y012257D01*
X017788Y012159D02*
X016081Y012159D01*
X016303Y011830D02*
X017346Y011830D01*
X017720Y011456D01*
X019138Y011456D01*
X019787Y012106D01*
X019787Y014941D01*
X019482Y014820D02*
X019248Y014820D01*
X019248Y014918D02*
X019459Y014918D01*
X019464Y015017D02*
X019248Y015017D01*
X019248Y015115D02*
X019504Y015115D01*
X019596Y015214D02*
X019204Y015214D01*
X019106Y015312D02*
X020075Y015312D01*
X020075Y015214D02*
X019978Y015214D01*
X020070Y015115D02*
X020075Y015115D01*
X020075Y015411D02*
X019007Y015411D01*
X018996Y015562D02*
X019248Y015814D01*
X019248Y016170D01*
X018996Y016422D01*
X018040Y016422D01*
X017788Y016170D01*
X017788Y015814D01*
X018040Y015562D01*
X018996Y015562D01*
X019043Y015608D02*
X020075Y015608D01*
X020075Y015706D02*
X019141Y015706D01*
X019240Y015805D02*
X020075Y015805D01*
X020075Y015904D02*
X019248Y015904D01*
X019248Y016002D02*
X020075Y016002D01*
X020075Y016101D02*
X019248Y016101D01*
X019219Y016199D02*
X020075Y016199D01*
X020075Y016298D02*
X019120Y016298D01*
X019022Y016396D02*
X020075Y016396D01*
X020075Y016495D02*
X017465Y016495D01*
X017614Y016396D02*
X018015Y016396D01*
X017916Y016298D02*
X017673Y016298D01*
X017694Y016199D02*
X017818Y016199D01*
X017788Y016101D02*
X017688Y016101D01*
X017647Y016002D02*
X017788Y016002D01*
X017788Y015904D02*
X017553Y015904D01*
X017546Y015805D02*
X017797Y015805D01*
X017896Y015706D02*
X017546Y015706D01*
X017546Y015608D02*
X017994Y015608D01*
X018029Y015411D02*
X017546Y015411D01*
X017546Y015509D02*
X020075Y015509D01*
X020075Y014777D02*
X020075Y008500D01*
X019728Y008152D01*
X019476Y008152D01*
X019371Y008047D01*
X019248Y007924D01*
X019248Y008170D01*
X018996Y008422D01*
X018040Y008422D01*
X017790Y008172D01*
X014704Y008172D01*
X014208Y008668D01*
X014301Y008668D01*
X014422Y008718D01*
X014514Y008810D01*
X014517Y008816D01*
X016850Y008816D01*
X016955Y008921D01*
X017362Y009328D01*
X017946Y009328D01*
X017788Y009170D01*
X017788Y008814D01*
X018040Y008562D01*
X018996Y008562D01*
X019248Y008814D01*
X019248Y009049D01*
X019751Y009551D01*
X019751Y009700D01*
X019751Y010968D01*
X019751Y011118D01*
X019402Y011466D01*
X019862Y011926D01*
X019967Y012031D01*
X019967Y014660D01*
X019973Y014662D01*
X020065Y014755D01*
X020075Y014777D01*
X020075Y014721D02*
X020032Y014721D01*
X020075Y014623D02*
X019967Y014623D01*
X019967Y014524D02*
X020075Y014524D01*
X020075Y014425D02*
X019967Y014425D01*
X019967Y014327D02*
X020075Y014327D01*
X020075Y014228D02*
X019967Y014228D01*
X019967Y014130D02*
X020075Y014130D01*
X020075Y014031D02*
X019967Y014031D01*
X019967Y013933D02*
X020075Y013933D01*
X020075Y013834D02*
X019967Y013834D01*
X019967Y013736D02*
X020075Y013736D01*
X020075Y013637D02*
X019967Y013637D01*
X019967Y013539D02*
X020075Y013539D01*
X020075Y013440D02*
X019967Y013440D01*
X019967Y013341D02*
X020075Y013341D01*
X020075Y013243D02*
X019967Y013243D01*
X019967Y013144D02*
X020075Y013144D01*
X020075Y013046D02*
X019967Y013046D01*
X019967Y012947D02*
X020075Y012947D01*
X020075Y012849D02*
X019967Y012849D01*
X019967Y012750D02*
X020075Y012750D01*
X020075Y012652D02*
X019967Y012652D01*
X019967Y012553D02*
X020075Y012553D01*
X020075Y012455D02*
X019967Y012455D01*
X019967Y012356D02*
X020075Y012356D01*
X020075Y012257D02*
X019967Y012257D01*
X019967Y012159D02*
X020075Y012159D01*
X020075Y012060D02*
X019967Y012060D01*
X019898Y011962D02*
X020075Y011962D01*
X020075Y011863D02*
X019799Y011863D01*
X019701Y011765D02*
X020075Y011765D01*
X020075Y011666D02*
X019602Y011666D01*
X019503Y011568D02*
X020075Y011568D01*
X020075Y011469D02*
X019405Y011469D01*
X019498Y011371D02*
X020075Y011371D01*
X020075Y011272D02*
X019596Y011272D01*
X019695Y011174D02*
X020075Y011174D01*
X020075Y011075D02*
X019751Y011075D01*
X019751Y010976D02*
X020075Y010976D01*
X020075Y010878D02*
X019751Y010878D01*
X019751Y010779D02*
X020075Y010779D01*
X020075Y010681D02*
X019751Y010681D01*
X019751Y010582D02*
X020075Y010582D01*
X020075Y010484D02*
X019751Y010484D01*
X019751Y010385D02*
X020075Y010385D01*
X020075Y010287D02*
X019751Y010287D01*
X019751Y010188D02*
X020075Y010188D01*
X020075Y010090D02*
X019751Y010090D01*
X019751Y009991D02*
X020075Y009991D01*
X020075Y009892D02*
X019751Y009892D01*
X019751Y009794D02*
X020075Y009794D01*
X020075Y009695D02*
X019751Y009695D01*
X019751Y009597D02*
X020075Y009597D01*
X020075Y009498D02*
X019698Y009498D01*
X019599Y009400D02*
X020075Y009400D01*
X020075Y009301D02*
X019501Y009301D01*
X019402Y009203D02*
X020075Y009203D01*
X020075Y009104D02*
X019304Y009104D01*
X019248Y009006D02*
X020075Y009006D01*
X020075Y008907D02*
X019248Y008907D01*
X019243Y008808D02*
X020075Y008808D01*
X020075Y008710D02*
X019145Y008710D01*
X019046Y008611D02*
X020075Y008611D01*
X020075Y008513D02*
X014363Y008513D01*
X014265Y008611D02*
X017991Y008611D01*
X017892Y008710D02*
X014403Y008710D01*
X014513Y008808D02*
X017794Y008808D01*
X017788Y008907D02*
X016941Y008907D01*
X017040Y009006D02*
X017788Y009006D01*
X017788Y009104D02*
X017138Y009104D01*
X017237Y009203D02*
X017821Y009203D01*
X017920Y009301D02*
X017335Y009301D01*
X017287Y009508D02*
X016775Y008996D01*
X014236Y008996D01*
X014116Y009301D02*
X013784Y009301D01*
X013849Y009203D02*
X013979Y009203D01*
X013926Y009104D02*
X013875Y009104D01*
X013874Y009006D02*
X013908Y009006D01*
X013547Y009074D02*
X014630Y007992D01*
X018518Y007992D01*
X018886Y007562D02*
X018051Y007562D01*
X018273Y007340D01*
X018273Y007203D01*
X017574Y007203D01*
X017574Y007103D01*
X018273Y007103D01*
X018273Y006967D01*
X018140Y006833D01*
X018158Y006833D01*
X018886Y007562D01*
X018852Y007527D02*
X018086Y007527D01*
X018184Y007429D02*
X018753Y007429D01*
X018655Y007330D02*
X018273Y007330D01*
X018273Y007232D02*
X018556Y007232D01*
X018458Y007133D02*
X017574Y007133D01*
X017573Y007232D02*
X017473Y007232D01*
X017473Y007203D02*
X017473Y007603D01*
X017037Y007603D01*
X016773Y007340D01*
X016773Y007203D01*
X017473Y007203D01*
X017473Y007133D02*
X011146Y007133D01*
X011146Y007035D02*
X016773Y007035D01*
X016804Y006936D02*
X011146Y006936D01*
X011146Y006838D02*
X016903Y006838D01*
X016935Y006473D02*
X016793Y006331D01*
X016793Y006260D01*
X014039Y006260D01*
X012563Y004783D01*
X012148Y004783D01*
X013838Y006473D01*
X016935Y006473D01*
X016906Y006443D02*
X013808Y006443D01*
X013710Y006345D02*
X016807Y006345D01*
X016773Y007232D02*
X011146Y007232D01*
X011146Y007330D02*
X016773Y007330D01*
X016863Y007429D02*
X011146Y007429D01*
X011146Y007527D02*
X016961Y007527D01*
X017473Y007527D02*
X017573Y007527D01*
X017573Y007429D02*
X017473Y007429D01*
X017473Y007330D02*
X017573Y007330D01*
X017878Y007724D02*
X011146Y007724D01*
X011146Y007626D02*
X017976Y007626D01*
X017836Y008217D02*
X014659Y008217D01*
X014560Y008316D02*
X017934Y008316D01*
X018033Y008414D02*
X014462Y008414D01*
X014150Y008217D02*
X011146Y008217D01*
X011146Y008119D02*
X014248Y008119D01*
X014347Y008020D02*
X011146Y008020D01*
X011146Y007922D02*
X014445Y007922D01*
X014544Y007823D02*
X011146Y007823D01*
X011146Y008316D02*
X014051Y008316D01*
X013953Y008414D02*
X011146Y008414D01*
X011146Y008513D02*
X013854Y008513D01*
X013756Y008611D02*
X011146Y008611D01*
X011146Y008710D02*
X013657Y008710D01*
X013349Y008808D02*
X011146Y008808D01*
X011146Y008907D02*
X013261Y008907D01*
X013220Y009006D02*
X011146Y009006D01*
X011146Y009104D02*
X013219Y009104D01*
X013245Y009203D02*
X011146Y009203D01*
X011146Y009301D02*
X013310Y009301D01*
X013475Y009400D02*
X011146Y009400D01*
X011146Y009498D02*
X017023Y009498D01*
X016925Y009400D02*
X013619Y009400D01*
X013380Y009597D02*
X011146Y009597D01*
X011146Y009695D02*
X013367Y009695D01*
X013367Y009794D02*
X011146Y009794D01*
X011146Y009892D02*
X013367Y009892D01*
X013367Y009991D02*
X011146Y009991D01*
X011146Y010090D02*
X013367Y010090D01*
X013367Y010188D02*
X011146Y010188D01*
X011146Y010287D02*
X013367Y010287D01*
X013367Y010385D02*
X011146Y010385D01*
X011146Y010484D02*
X013367Y010484D01*
X013367Y010582D02*
X011146Y010582D01*
X011146Y010681D02*
X013367Y010681D01*
X013367Y010779D02*
X011146Y010779D01*
X011146Y010878D02*
X013367Y010878D01*
X013367Y010976D02*
X011146Y010976D01*
X011146Y011075D02*
X013367Y011075D01*
X013367Y011174D02*
X011146Y011174D01*
X011146Y011272D02*
X013367Y011272D01*
X013367Y011371D02*
X011146Y011371D01*
X011146Y011469D02*
X013367Y011469D01*
X013086Y011568D02*
X011146Y011568D01*
X011146Y011666D02*
X012993Y011666D01*
X012952Y011765D02*
X011146Y011765D01*
X011146Y011863D02*
X012947Y011863D01*
X012905Y011962D02*
X011146Y011962D01*
X011146Y012060D02*
X012807Y012060D01*
X012708Y012159D02*
X011146Y012159D01*
X011146Y012257D02*
X012610Y012257D01*
X012511Y012356D02*
X011146Y012356D01*
X011146Y012455D02*
X012412Y012455D01*
X012314Y012553D02*
X011146Y012553D01*
X011146Y012652D02*
X012215Y012652D01*
X012117Y012750D02*
X011146Y012750D01*
X011146Y012849D02*
X012018Y012849D01*
X011920Y012947D02*
X011146Y012947D01*
X011146Y013046D02*
X011821Y013046D01*
X011723Y013144D02*
X011146Y013144D01*
X011146Y013243D02*
X011624Y013243D01*
X011526Y013341D02*
X011146Y013341D01*
X011146Y013440D02*
X011458Y013440D01*
X011458Y013539D02*
X011146Y013539D01*
X011146Y013637D02*
X011458Y013637D01*
X011458Y013736D02*
X011146Y013736D01*
X011146Y013834D02*
X011458Y013834D01*
X011458Y013933D02*
X011146Y013933D01*
X011146Y014031D02*
X011433Y014031D01*
X011349Y014130D02*
X011146Y014130D01*
X011146Y014228D02*
X011310Y014228D01*
X011310Y014327D02*
X011146Y014327D01*
X011146Y014425D02*
X011338Y014425D01*
X012467Y013637D02*
X012744Y013637D01*
X012665Y013539D02*
X012507Y013539D01*
X012605Y013440D02*
X012628Y013440D01*
X013819Y014425D02*
X016241Y014425D01*
X016143Y014327D02*
X013918Y014327D01*
X014016Y014228D02*
X016044Y014228D01*
X015946Y014130D02*
X015254Y014130D01*
X015100Y014130D02*
X014115Y014130D01*
X014213Y014031D02*
X014938Y014031D01*
X014874Y013933D02*
X014312Y013933D01*
X014410Y013834D02*
X014849Y013834D01*
X014851Y013736D02*
X014509Y013736D01*
X014607Y013637D02*
X014892Y013637D01*
X014811Y013539D02*
X014706Y013539D01*
X014464Y013243D02*
X014446Y013243D01*
X014422Y013144D02*
X014563Y013144D01*
X015173Y013807D02*
X015177Y013807D01*
X015181Y013803D01*
X015173Y013807D02*
X015161Y013819D01*
X015416Y014031D02*
X015847Y014031D01*
X015749Y013933D02*
X015480Y013933D01*
X015505Y013834D02*
X015718Y013834D01*
X015718Y013736D02*
X015598Y013736D01*
X015696Y013637D02*
X015718Y013637D01*
X016218Y013539D02*
X019273Y013539D01*
X019273Y013637D02*
X019072Y013637D01*
X019170Y013736D02*
X019273Y013736D01*
X019273Y013834D02*
X019248Y013834D01*
X019248Y013933D02*
X019273Y013933D01*
X019453Y014058D02*
X019453Y012244D01*
X019273Y012652D02*
X019086Y012652D01*
X019185Y012750D02*
X019273Y012750D01*
X019273Y012849D02*
X019248Y012849D01*
X019248Y012947D02*
X019273Y012947D01*
X019273Y013046D02*
X019248Y013046D01*
X019248Y013144D02*
X019273Y013144D01*
X019273Y013243D02*
X019175Y013243D01*
X019077Y013341D02*
X019273Y013341D01*
X019273Y013440D02*
X016218Y013440D01*
X016340Y014524D02*
X013721Y014524D01*
X013622Y014623D02*
X016438Y014623D01*
X016537Y014721D02*
X013523Y014721D01*
X013425Y014820D02*
X016605Y014820D01*
X016642Y014918D02*
X013326Y014918D01*
X013228Y015017D02*
X016722Y015017D01*
X017366Y015157D02*
X018527Y013996D01*
X018523Y013992D01*
X018518Y013992D01*
X019142Y014623D02*
X019607Y014623D01*
X019607Y014524D02*
X019241Y014524D01*
X019339Y014425D02*
X019607Y014425D01*
X019607Y014327D02*
X019438Y014327D01*
X019536Y014228D02*
X019607Y014228D01*
X019453Y014058D02*
X018518Y014992D01*
X017931Y015312D02*
X017546Y015312D01*
X017564Y015214D02*
X017832Y015214D01*
X017788Y015115D02*
X017662Y015115D01*
X017761Y015017D02*
X017788Y015017D01*
X017366Y015157D02*
X017366Y016181D01*
X019156Y014721D02*
X019543Y014721D01*
X017788Y012060D02*
X016537Y012060D01*
X016504Y011568D02*
X017354Y011568D01*
X017453Y011469D02*
X016234Y011469D01*
X016417Y011371D02*
X017552Y011371D01*
X017792Y011174D02*
X016612Y011174D01*
X016631Y011075D02*
X017788Y011075D01*
X017788Y010976D02*
X016622Y010976D01*
X016912Y010878D02*
X017788Y010878D01*
X017823Y010779D02*
X016990Y010779D01*
X017025Y010681D02*
X017921Y010681D01*
X018020Y010582D02*
X017025Y010582D01*
X016991Y010484D02*
X019154Y010484D01*
X019154Y010582D02*
X019017Y010582D01*
X019115Y010681D02*
X019127Y010681D01*
X019334Y010728D02*
X019079Y010984D01*
X018527Y010984D01*
X018520Y010992D01*
X018518Y010992D01*
X017891Y011272D02*
X016557Y011272D01*
X015921Y011075D02*
X013727Y011075D01*
X013727Y011174D02*
X015823Y011174D01*
X015712Y011496D02*
X015831Y011519D01*
X016500Y010630D02*
X016697Y010630D01*
X016500Y010630D02*
X015555Y009685D01*
X015722Y009597D02*
X017122Y009597D01*
X017287Y009508D02*
X019098Y009508D01*
X019334Y009744D01*
X019334Y010728D01*
X019154Y010385D02*
X019033Y010385D01*
X019132Y010287D02*
X019154Y010287D01*
X019571Y009626D02*
X018937Y008992D01*
X018518Y008992D01*
X019004Y008414D02*
X019989Y008414D01*
X019891Y008316D02*
X019102Y008316D01*
X019201Y008217D02*
X019793Y008217D01*
X019945Y007972D02*
X020023Y007972D01*
X019551Y007972D01*
X018232Y006653D01*
X013764Y006653D01*
X011834Y004724D01*
X010752Y004724D01*
X009201Y003173D01*
X005665Y003173D01*
X003894Y003173D02*
X005799Y005078D01*
X011185Y005078D01*
X011146Y005064D02*
X011920Y005064D01*
X012018Y005162D02*
X011146Y005162D01*
X011146Y005261D02*
X012117Y005261D01*
X012215Y005359D02*
X011146Y005359D01*
X011146Y005458D02*
X012314Y005458D01*
X012412Y005557D02*
X011146Y005557D01*
X011146Y005655D02*
X012511Y005655D01*
X012609Y005754D02*
X011146Y005754D01*
X011146Y005852D02*
X012708Y005852D01*
X012807Y005951D02*
X011146Y005951D01*
X011146Y006049D02*
X012905Y006049D01*
X013004Y006148D02*
X011146Y006148D01*
X011146Y006246D02*
X013102Y006246D01*
X013201Y006345D02*
X011146Y006345D01*
X011146Y006443D02*
X013299Y006443D01*
X013398Y006542D02*
X011146Y006542D01*
X011146Y006641D02*
X013496Y006641D01*
X013595Y006739D02*
X011146Y006739D01*
X012921Y005557D02*
X013336Y005557D01*
X013435Y005655D02*
X013020Y005655D01*
X013119Y005754D02*
X013533Y005754D01*
X013632Y005852D02*
X013217Y005852D01*
X013316Y005951D02*
X013730Y005951D01*
X013829Y006049D02*
X013414Y006049D01*
X013513Y006148D02*
X013927Y006148D01*
X014026Y006246D02*
X013611Y006246D01*
X013238Y005458D02*
X012823Y005458D01*
X012724Y005359D02*
X013139Y005359D01*
X013041Y005261D02*
X012626Y005261D01*
X012527Y005162D02*
X012942Y005162D01*
X012844Y005064D02*
X012429Y005064D01*
X012330Y004965D02*
X012745Y004965D01*
X012646Y004867D02*
X012232Y004867D01*
X011821Y004965D02*
X011146Y004965D01*
X014356Y009301D02*
X016826Y009301D01*
X016728Y009203D02*
X014493Y009203D01*
X015820Y009695D02*
X017907Y009695D01*
X017808Y009794D02*
X015919Y009794D01*
X016017Y009892D02*
X017788Y009892D01*
X017788Y009991D02*
X016116Y009991D01*
X016214Y010090D02*
X017788Y010090D01*
X017807Y010188D02*
X016313Y010188D01*
X016411Y010287D02*
X017905Y010287D01*
X018004Y010385D02*
X016916Y010385D01*
X017765Y011666D02*
X017936Y011666D01*
X017837Y011765D02*
X017666Y011765D01*
X017568Y011863D02*
X017788Y011863D01*
X017788Y011962D02*
X017469Y011962D01*
X019138Y011456D02*
X019157Y011456D01*
X019571Y011043D01*
X019571Y009626D01*
X019443Y008119D02*
X019248Y008119D01*
X019248Y008020D02*
X019345Y008020D01*
X020023Y007972D02*
X024551Y007972D01*
X024551Y007984D01*
X024535Y008000D01*
X018359Y007035D02*
X018273Y007035D01*
X018261Y006936D02*
X018243Y006936D01*
X018162Y006838D02*
X018144Y006838D01*
D17*
X016295Y011055D02*
X015831Y011519D01*
X015831Y012460D01*
X015968Y012598D01*
X015968Y013011D01*
X015968Y013799D01*
X016933Y014763D01*
X015968Y013011D02*
X015173Y013807D01*
X013803Y012756D02*
X013606Y012952D01*
X013390Y012952D01*
X012957Y013386D01*
X013803Y012756D02*
X013803Y012382D01*
X014413Y011771D01*
X014472Y011712D02*
X014492Y011693D01*
X014689Y011496D01*
X015712Y011496D01*
X015850Y011496D01*
D18*
X000321Y019466D02*
X000321Y001262D01*
X014275Y001262D01*
X014275Y002756D01*
X003977Y002756D01*
X003977Y002755D01*
X003912Y002755D01*
X003912Y002756D01*
X003875Y002756D01*
X003875Y002755D01*
X003810Y002755D01*
X003810Y002756D01*
X003350Y002756D01*
X001834Y004271D01*
X001834Y016456D01*
X003350Y017972D01*
X013586Y017972D01*
X013586Y018779D01*
X013842Y019035D01*
X014118Y019035D01*
X014374Y018779D01*
X014610Y018779D01*
X014866Y019035D01*
X015161Y019035D01*
X015417Y018779D01*
X015417Y017972D01*
X025791Y017972D01*
X027307Y016456D01*
X027307Y004271D01*
X025791Y002756D01*
X015890Y002756D01*
X015890Y001262D01*
X028800Y001262D01*
X028800Y019466D01*
X000321Y019466D01*
X000321Y019438D02*
X028800Y019438D01*
X028800Y019319D02*
X000321Y019319D01*
X000321Y019201D02*
X028800Y019201D01*
X028800Y019082D02*
X028256Y019082D01*
X028253Y019085D02*
X028035Y019175D01*
X027799Y019175D01*
X027581Y019085D01*
X027414Y018918D01*
X027324Y018700D01*
X027324Y018464D01*
X027414Y018246D01*
X027581Y018080D01*
X027799Y017989D01*
X028035Y017989D01*
X028253Y018080D01*
X028420Y018246D01*
X028510Y018464D01*
X028510Y018700D01*
X028420Y018918D01*
X028253Y019085D01*
X028375Y018964D02*
X028800Y018964D01*
X028800Y018845D02*
X028450Y018845D01*
X028499Y018726D02*
X028800Y018726D01*
X028800Y018608D02*
X028510Y018608D01*
X028510Y018489D02*
X028800Y018489D01*
X028800Y018371D02*
X028471Y018371D01*
X028422Y018252D02*
X028800Y018252D01*
X028800Y018134D02*
X028307Y018134D01*
X028098Y018015D02*
X028800Y018015D01*
X028800Y017897D02*
X025867Y017897D01*
X025985Y017778D02*
X028800Y017778D01*
X028800Y017660D02*
X026104Y017660D01*
X026222Y017541D02*
X028800Y017541D01*
X028800Y017423D02*
X026341Y017423D01*
X026459Y017304D02*
X028800Y017304D01*
X028800Y017185D02*
X026578Y017185D01*
X026696Y017067D02*
X028800Y017067D01*
X028800Y016948D02*
X026815Y016948D01*
X026934Y016830D02*
X028800Y016830D01*
X028800Y016711D02*
X027052Y016711D01*
X027171Y016593D02*
X028800Y016593D01*
X028800Y016474D02*
X027289Y016474D01*
X027307Y016356D02*
X028800Y016356D01*
X028800Y016237D02*
X027307Y016237D01*
X027307Y016119D02*
X028800Y016119D01*
X028800Y016000D02*
X027307Y016000D01*
X027307Y015881D02*
X028800Y015881D01*
X028800Y015763D02*
X027307Y015763D01*
X027307Y015644D02*
X028800Y015644D01*
X028800Y015526D02*
X027307Y015526D01*
X027307Y015407D02*
X028800Y015407D01*
X028800Y015289D02*
X027307Y015289D01*
X027307Y015170D02*
X028800Y015170D01*
X028800Y015052D02*
X027307Y015052D01*
X027307Y014933D02*
X028800Y014933D01*
X028800Y014815D02*
X027307Y014815D01*
X027307Y014696D02*
X028800Y014696D01*
X028800Y014577D02*
X027307Y014577D01*
X027307Y014459D02*
X028800Y014459D01*
X028800Y014340D02*
X027307Y014340D01*
X027307Y014222D02*
X028800Y014222D01*
X028800Y014103D02*
X027307Y014103D01*
X027307Y013985D02*
X028800Y013985D01*
X028800Y013866D02*
X027307Y013866D01*
X027307Y013748D02*
X028800Y013748D01*
X028800Y013629D02*
X027307Y013629D01*
X027307Y013511D02*
X028800Y013511D01*
X028800Y013392D02*
X027307Y013392D01*
X027307Y013274D02*
X028800Y013274D01*
X028800Y013155D02*
X027307Y013155D01*
X027307Y013036D02*
X028800Y013036D01*
X028800Y012918D02*
X027307Y012918D01*
X027307Y012799D02*
X028800Y012799D01*
X028800Y012681D02*
X027307Y012681D01*
X027307Y012562D02*
X028800Y012562D01*
X028800Y012444D02*
X027307Y012444D01*
X027307Y012325D02*
X028800Y012325D01*
X028800Y012207D02*
X027307Y012207D01*
X027307Y012088D02*
X028800Y012088D01*
X028800Y011970D02*
X027307Y011970D01*
X027307Y011851D02*
X028800Y011851D01*
X028800Y011732D02*
X027307Y011732D01*
X027307Y011614D02*
X028800Y011614D01*
X028800Y011495D02*
X027307Y011495D01*
X027307Y011377D02*
X028800Y011377D01*
X028800Y011258D02*
X027307Y011258D01*
X027307Y011140D02*
X028800Y011140D01*
X028800Y011021D02*
X027307Y011021D01*
X027307Y010903D02*
X028800Y010903D01*
X028800Y010784D02*
X027307Y010784D01*
X027307Y010666D02*
X028800Y010666D01*
X028800Y010547D02*
X027307Y010547D01*
X027307Y010428D02*
X028800Y010428D01*
X028800Y010310D02*
X027307Y010310D01*
X027307Y010191D02*
X028800Y010191D01*
X028800Y010073D02*
X027307Y010073D01*
X027307Y009954D02*
X028800Y009954D01*
X028800Y009836D02*
X027307Y009836D01*
X027307Y009717D02*
X028800Y009717D01*
X028800Y009599D02*
X027307Y009599D01*
X027307Y009480D02*
X028800Y009480D01*
X028800Y009362D02*
X027307Y009362D01*
X027307Y009243D02*
X028800Y009243D01*
X028800Y009124D02*
X027307Y009124D01*
X027307Y009006D02*
X028800Y009006D01*
X028800Y008887D02*
X027307Y008887D01*
X027307Y008769D02*
X028800Y008769D01*
X028800Y008650D02*
X027307Y008650D01*
X027307Y008532D02*
X028800Y008532D01*
X028800Y008413D02*
X027307Y008413D01*
X027307Y008295D02*
X028800Y008295D01*
X028800Y008176D02*
X027307Y008176D01*
X027307Y008058D02*
X028800Y008058D01*
X028800Y007939D02*
X027307Y007939D01*
X027307Y007821D02*
X028800Y007821D01*
X028800Y007702D02*
X027307Y007702D01*
X027307Y007583D02*
X028800Y007583D01*
X028800Y007465D02*
X027307Y007465D01*
X027307Y007346D02*
X028800Y007346D01*
X028800Y007228D02*
X027307Y007228D01*
X027307Y007109D02*
X028800Y007109D01*
X028800Y006991D02*
X027307Y006991D01*
X027307Y006872D02*
X028800Y006872D01*
X028800Y006754D02*
X027307Y006754D01*
X027307Y006635D02*
X028800Y006635D01*
X028800Y006517D02*
X027307Y006517D01*
X027307Y006398D02*
X028800Y006398D01*
X028800Y006279D02*
X027307Y006279D01*
X027307Y006161D02*
X028800Y006161D01*
X028800Y006042D02*
X027307Y006042D01*
X027307Y005924D02*
X028800Y005924D01*
X028800Y005805D02*
X027307Y005805D01*
X027307Y005687D02*
X028800Y005687D01*
X028800Y005568D02*
X027307Y005568D01*
X027307Y005450D02*
X028800Y005450D01*
X028800Y005331D02*
X027307Y005331D01*
X027307Y005213D02*
X028800Y005213D01*
X028800Y005094D02*
X027307Y005094D01*
X027307Y004975D02*
X028800Y004975D01*
X028800Y004857D02*
X027307Y004857D01*
X027307Y004738D02*
X028800Y004738D01*
X028800Y004620D02*
X027307Y004620D01*
X027307Y004501D02*
X028800Y004501D01*
X028800Y004383D02*
X027307Y004383D01*
X027300Y004264D02*
X028800Y004264D01*
X028800Y004146D02*
X027181Y004146D01*
X027063Y004027D02*
X028800Y004027D01*
X028800Y003909D02*
X026944Y003909D01*
X026826Y003790D02*
X028800Y003790D01*
X028800Y003671D02*
X026707Y003671D01*
X026589Y003553D02*
X028800Y003553D01*
X028800Y003434D02*
X026470Y003434D01*
X026351Y003316D02*
X028800Y003316D01*
X028800Y003197D02*
X026233Y003197D01*
X026114Y003079D02*
X028800Y003079D01*
X028800Y002960D02*
X025996Y002960D01*
X025877Y002842D02*
X028800Y002842D01*
X028800Y002723D02*
X028072Y002723D01*
X028035Y002738D02*
X027799Y002738D01*
X027581Y002648D01*
X027414Y002481D01*
X027324Y002263D01*
X027324Y002027D01*
X027414Y001809D01*
X027581Y001643D01*
X027799Y001552D01*
X028035Y001552D01*
X028253Y001643D01*
X028420Y001809D01*
X028510Y002027D01*
X028510Y002263D01*
X028420Y002481D01*
X028253Y002648D01*
X028035Y002738D01*
X027762Y002723D02*
X015890Y002723D01*
X015890Y002605D02*
X027538Y002605D01*
X027419Y002486D02*
X015890Y002486D01*
X015890Y002368D02*
X027367Y002368D01*
X027324Y002249D02*
X015890Y002249D01*
X015890Y002130D02*
X027324Y002130D01*
X027330Y002012D02*
X015890Y002012D01*
X015890Y001893D02*
X027380Y001893D01*
X027449Y001775D02*
X015890Y001775D01*
X015890Y001656D02*
X027567Y001656D01*
X028267Y001656D02*
X028800Y001656D01*
X028800Y001538D02*
X015890Y001538D01*
X015890Y001419D02*
X028800Y001419D01*
X028800Y001301D02*
X015890Y001301D01*
X015535Y002323D02*
X014630Y001417D01*
X014630Y001338D01*
X014275Y001301D02*
X000321Y001301D01*
X000321Y001419D02*
X014275Y001419D01*
X014275Y001538D02*
X000321Y001538D01*
X000321Y001656D02*
X000855Y001656D01*
X000869Y001643D02*
X001087Y001552D01*
X001323Y001552D01*
X001541Y001643D01*
X001707Y001809D01*
X001798Y002027D01*
X001798Y002263D01*
X001707Y002481D01*
X001541Y002648D01*
X001323Y002738D01*
X001087Y002738D01*
X000869Y002648D01*
X000702Y002481D01*
X000611Y002263D01*
X000611Y002027D01*
X000702Y001809D01*
X000869Y001643D01*
X000736Y001775D02*
X000321Y001775D01*
X000321Y001893D02*
X000667Y001893D01*
X000618Y002012D02*
X000321Y002012D01*
X000321Y002130D02*
X000611Y002130D01*
X000611Y002249D02*
X000321Y002249D01*
X000321Y002368D02*
X000655Y002368D01*
X000707Y002486D02*
X000321Y002486D01*
X000321Y002605D02*
X000825Y002605D01*
X001050Y002723D02*
X000321Y002723D01*
X000321Y002842D02*
X003264Y002842D01*
X003146Y002960D02*
X000321Y002960D01*
X000321Y003079D02*
X003027Y003079D01*
X002909Y003197D02*
X000321Y003197D01*
X000321Y003316D02*
X002790Y003316D01*
X002671Y003434D02*
X000321Y003434D01*
X000321Y003553D02*
X002553Y003553D01*
X002434Y003671D02*
X000321Y003671D01*
X000321Y003790D02*
X002316Y003790D01*
X002197Y003909D02*
X000321Y003909D01*
X000321Y004027D02*
X002079Y004027D01*
X001960Y004146D02*
X000321Y004146D01*
X000321Y004264D02*
X001842Y004264D01*
X001834Y004383D02*
X000321Y004383D01*
X000321Y004501D02*
X001834Y004501D01*
X001834Y004620D02*
X000321Y004620D01*
X000321Y004738D02*
X001834Y004738D01*
X001834Y004857D02*
X000321Y004857D01*
X000321Y004975D02*
X001834Y004975D01*
X001834Y005094D02*
X000321Y005094D01*
X000321Y005213D02*
X001834Y005213D01*
X001834Y005331D02*
X000321Y005331D01*
X000321Y005450D02*
X001834Y005450D01*
X001834Y005568D02*
X000321Y005568D01*
X000321Y005687D02*
X001834Y005687D01*
X001834Y005805D02*
X000321Y005805D01*
X000321Y005924D02*
X001834Y005924D01*
X001834Y006042D02*
X000321Y006042D01*
X000321Y006161D02*
X001834Y006161D01*
X001834Y006279D02*
X000321Y006279D01*
X000321Y006398D02*
X001834Y006398D01*
X001834Y006517D02*
X000321Y006517D01*
X000321Y006635D02*
X001834Y006635D01*
X001834Y006754D02*
X000321Y006754D01*
X000321Y006872D02*
X001834Y006872D01*
X001834Y006991D02*
X000321Y006991D01*
X000321Y007109D02*
X001834Y007109D01*
X001834Y007228D02*
X000321Y007228D01*
X000321Y007346D02*
X001834Y007346D01*
X001834Y007465D02*
X000321Y007465D01*
X000321Y007583D02*
X001834Y007583D01*
X001834Y007702D02*
X000321Y007702D01*
X000321Y007821D02*
X001834Y007821D01*
X001834Y007939D02*
X000321Y007939D01*
X000321Y008058D02*
X001834Y008058D01*
X001834Y008176D02*
X000321Y008176D01*
X000321Y008295D02*
X001834Y008295D01*
X001834Y008413D02*
X000321Y008413D01*
X000321Y008532D02*
X001834Y008532D01*
X001834Y008650D02*
X000321Y008650D01*
X000321Y008769D02*
X001834Y008769D01*
X001834Y008887D02*
X000321Y008887D01*
X000321Y009006D02*
X001834Y009006D01*
X001834Y009124D02*
X000321Y009124D01*
X000321Y009243D02*
X001834Y009243D01*
X001834Y009362D02*
X000321Y009362D01*
X000321Y009480D02*
X001834Y009480D01*
X001834Y009599D02*
X000321Y009599D01*
X000321Y009717D02*
X001834Y009717D01*
X001834Y009836D02*
X000321Y009836D01*
X000321Y009954D02*
X001834Y009954D01*
X001834Y010073D02*
X000321Y010073D01*
X000321Y010191D02*
X001834Y010191D01*
X001834Y010310D02*
X000321Y010310D01*
X000321Y010428D02*
X001834Y010428D01*
X001834Y010547D02*
X000321Y010547D01*
X000321Y010666D02*
X001834Y010666D01*
X001834Y010784D02*
X000321Y010784D01*
X000321Y010903D02*
X001834Y010903D01*
X001834Y011021D02*
X000321Y011021D01*
X000321Y011140D02*
X001834Y011140D01*
X001834Y011258D02*
X000321Y011258D01*
X000321Y011377D02*
X001834Y011377D01*
X001834Y011495D02*
X000321Y011495D01*
X000321Y011614D02*
X001834Y011614D01*
X001834Y011732D02*
X000321Y011732D01*
X000321Y011851D02*
X001834Y011851D01*
X001834Y011970D02*
X000321Y011970D01*
X000321Y012088D02*
X001834Y012088D01*
X001834Y012207D02*
X000321Y012207D01*
X000321Y012325D02*
X001834Y012325D01*
X001834Y012444D02*
X000321Y012444D01*
X000321Y012562D02*
X001834Y012562D01*
X001834Y012681D02*
X000321Y012681D01*
X000321Y012799D02*
X001834Y012799D01*
X001834Y012918D02*
X000321Y012918D01*
X000321Y013036D02*
X001834Y013036D01*
X001834Y013155D02*
X000321Y013155D01*
X000321Y013274D02*
X001834Y013274D01*
X001834Y013392D02*
X000321Y013392D01*
X000321Y013511D02*
X001834Y013511D01*
X001834Y013629D02*
X000321Y013629D01*
X000321Y013748D02*
X001834Y013748D01*
X001834Y013866D02*
X000321Y013866D01*
X000321Y013985D02*
X001834Y013985D01*
X001834Y014103D02*
X000321Y014103D01*
X000321Y014222D02*
X001834Y014222D01*
X001834Y014340D02*
X000321Y014340D01*
X000321Y014459D02*
X001834Y014459D01*
X001834Y014577D02*
X000321Y014577D01*
X000321Y014696D02*
X001834Y014696D01*
X001834Y014815D02*
X000321Y014815D01*
X000321Y014933D02*
X001834Y014933D01*
X001834Y015052D02*
X000321Y015052D01*
X000321Y015170D02*
X001834Y015170D01*
X001834Y015289D02*
X000321Y015289D01*
X000321Y015407D02*
X001834Y015407D01*
X001834Y015526D02*
X000321Y015526D01*
X000321Y015644D02*
X001834Y015644D01*
X001834Y015763D02*
X000321Y015763D01*
X000321Y015881D02*
X001834Y015881D01*
X001834Y016000D02*
X000321Y016000D01*
X000321Y016119D02*
X001834Y016119D01*
X001834Y016237D02*
X000321Y016237D01*
X000321Y016356D02*
X001834Y016356D01*
X001852Y016474D02*
X000321Y016474D01*
X000321Y016593D02*
X001971Y016593D01*
X002089Y016711D02*
X000321Y016711D01*
X000321Y016830D02*
X002208Y016830D01*
X002326Y016948D02*
X000321Y016948D01*
X000321Y017067D02*
X002445Y017067D01*
X002564Y017185D02*
X000321Y017185D01*
X000321Y017304D02*
X002682Y017304D01*
X002801Y017423D02*
X000321Y017423D01*
X000321Y017541D02*
X002919Y017541D01*
X003038Y017660D02*
X000321Y017660D01*
X000321Y017778D02*
X003156Y017778D01*
X003275Y017897D02*
X000321Y017897D01*
X000321Y018015D02*
X001024Y018015D01*
X001087Y017989D02*
X001323Y017989D01*
X001541Y018080D01*
X001707Y018246D01*
X001798Y018464D01*
X001798Y018700D01*
X001707Y018918D01*
X001541Y019085D01*
X001323Y019175D01*
X001087Y019175D01*
X000869Y019085D01*
X000702Y018918D01*
X000611Y018700D01*
X000611Y018464D01*
X000702Y018246D01*
X000869Y018080D01*
X001087Y017989D01*
X001385Y018015D02*
X013586Y018015D01*
X013586Y018134D02*
X001595Y018134D01*
X001710Y018252D02*
X013586Y018252D01*
X013586Y018371D02*
X001759Y018371D01*
X001798Y018489D02*
X013586Y018489D01*
X013586Y018608D02*
X001798Y018608D01*
X001787Y018726D02*
X013586Y018726D01*
X013652Y018845D02*
X001738Y018845D01*
X001662Y018964D02*
X013771Y018964D01*
X014189Y018964D02*
X014794Y018964D01*
X014676Y018845D02*
X014308Y018845D01*
X014118Y018543D02*
X014886Y018543D01*
X015023Y018681D01*
X015351Y018845D02*
X027384Y018845D01*
X027335Y018726D02*
X015417Y018726D01*
X015417Y018608D02*
X027324Y018608D01*
X027324Y018489D02*
X015417Y018489D01*
X015417Y018371D02*
X027363Y018371D01*
X027412Y018252D02*
X015417Y018252D01*
X015417Y018134D02*
X027527Y018134D01*
X027736Y018015D02*
X015417Y018015D01*
X014118Y018543D02*
X013980Y018681D01*
X015233Y018964D02*
X027460Y018964D01*
X027578Y019082D02*
X001544Y019082D01*
X000866Y019082D02*
X000321Y019082D01*
X000321Y018964D02*
X000747Y018964D01*
X000671Y018845D02*
X000321Y018845D01*
X000321Y018726D02*
X000622Y018726D01*
X000611Y018608D02*
X000321Y018608D01*
X000321Y018489D02*
X000611Y018489D01*
X000650Y018371D02*
X000321Y018371D01*
X000321Y018252D02*
X000699Y018252D01*
X000814Y018134D02*
X000321Y018134D01*
X010004Y017330D02*
X010134Y017330D01*
X010870Y016594D01*
X010870Y016082D01*
X011323Y015630D01*
X012346Y015630D01*
X014649Y013326D01*
X015063Y013326D01*
X014118Y013267D02*
X012051Y015334D01*
X011244Y015334D01*
X010248Y016330D01*
X010004Y016330D01*
X014275Y002723D02*
X001359Y002723D01*
X001584Y002605D02*
X014275Y002605D01*
X014275Y002486D02*
X001703Y002486D01*
X001754Y002368D02*
X014275Y002368D01*
X014275Y002249D02*
X001798Y002249D01*
X001798Y002130D02*
X014275Y002130D01*
X014275Y002012D02*
X001791Y002012D01*
X001742Y001893D02*
X014275Y001893D01*
X014275Y001775D02*
X001673Y001775D01*
X001554Y001656D02*
X014275Y001656D01*
X015535Y002323D02*
X015535Y002401D01*
X028297Y002605D02*
X028800Y002605D01*
X028800Y002486D02*
X028415Y002486D01*
X028467Y002368D02*
X028800Y002368D01*
X028800Y002249D02*
X028510Y002249D01*
X028510Y002130D02*
X028800Y002130D01*
X028800Y002012D02*
X028504Y002012D01*
X028455Y001893D02*
X028800Y001893D01*
X028800Y001775D02*
X028385Y001775D01*
M02*
