G75*
G70*
%OFA0B0*%
%FSLAX24Y24*%
%IPPOS*%
%LPD*%
%AMOC8*
5,1,8,0,0,1.08239X$1,22.5*
%
%ADD10C,0.1039*%
%ADD11O,0.1320X0.0720*%
%ADD12O,0.1144X0.0624*%
%ADD13C,0.0618*%
%ADD14C,0.0850*%
%ADD15C,0.0475*%
%ADD16C,0.0475*%
D10*
X001205Y002145D03*
X001205Y018582D03*
X027917Y018582D03*
X027917Y002145D03*
D11*
X024535Y008000D03*
X024535Y009000D03*
X024535Y010000D03*
X024535Y011000D03*
X024535Y012000D03*
X024535Y013000D03*
X024535Y014000D03*
X024535Y015000D03*
X024535Y016000D03*
X018518Y015992D03*
X018518Y014992D03*
X018518Y013992D03*
X018518Y012992D03*
X018518Y011992D03*
X018518Y010992D03*
X018518Y009992D03*
X018518Y008992D03*
X018518Y007992D03*
X017523Y007153D03*
X017523Y006153D03*
X010004Y016330D03*
X010004Y017330D03*
D12*
X011669Y017323D03*
X011669Y016323D03*
D13*
X005665Y003173D03*
X003894Y003173D03*
X022960Y003189D03*
X023748Y003189D03*
X024535Y003189D03*
D14*
X006177Y003960D03*
X003382Y003960D03*
D15*
X010752Y004724D03*
X012779Y006260D03*
X013764Y006200D03*
X014000Y007697D03*
X014236Y008996D03*
X014630Y009330D03*
X014590Y010059D03*
X014413Y011122D03*
X014925Y011968D03*
X015968Y012598D03*
X016303Y011830D03*
X017543Y013307D03*
X019453Y012244D03*
X019866Y011496D03*
X017090Y010354D03*
X017031Y008760D03*
X013547Y009074D03*
X011677Y010137D03*
X011933Y011397D03*
X013275Y011842D03*
X013291Y012500D03*
X013803Y012756D03*
X014118Y013267D03*
X015063Y013326D03*
X015177Y013807D03*
X014744Y014019D03*
X016303Y014941D03*
X016933Y014763D03*
X016539Y015571D03*
X017366Y016181D03*
X019177Y016574D03*
X019216Y015492D03*
X019787Y014941D03*
X015023Y018681D03*
X014492Y019035D03*
X013980Y018681D03*
X012523Y015964D03*
X012287Y014291D03*
X012701Y014015D03*
X012957Y013386D03*
X011638Y014291D03*
X015535Y002401D03*
X014630Y001338D03*
D16*
X016697Y010630D03*
X016303Y011063D03*
M02*
