G75*
G70*
%OFA0B0*%
%FSLAX24Y24*%
%IPPOS*%
%LPD*%
%AMOC8*
5,1,8,0,0,1.08239X$1,22.5*
%
%ADD10C,0.0000*%
D10*
X000161Y001102D02*
X028960Y001102D01*
X028960Y019626D01*
X000161Y019626D01*
X000161Y001102D01*
X000772Y002145D02*
X000774Y002187D01*
X000780Y002228D01*
X000790Y002269D01*
X000804Y002308D01*
X000822Y002346D01*
X000843Y002382D01*
X000867Y002416D01*
X000895Y002447D01*
X000926Y002476D01*
X000959Y002501D01*
X000995Y002523D01*
X001032Y002542D01*
X001071Y002557D01*
X001112Y002568D01*
X001153Y002575D01*
X001195Y002578D01*
X001236Y002577D01*
X001278Y002572D01*
X001319Y002563D01*
X001359Y002550D01*
X001397Y002533D01*
X001433Y002513D01*
X001468Y002489D01*
X001500Y002462D01*
X001529Y002432D01*
X001555Y002400D01*
X001578Y002365D01*
X001598Y002327D01*
X001613Y002289D01*
X001625Y002249D01*
X001633Y002208D01*
X001637Y002166D01*
X001637Y002124D01*
X001633Y002082D01*
X001625Y002041D01*
X001613Y002001D01*
X001598Y001963D01*
X001578Y001925D01*
X001555Y001890D01*
X001529Y001858D01*
X001500Y001828D01*
X001468Y001801D01*
X001433Y001777D01*
X001397Y001757D01*
X001359Y001740D01*
X001319Y001727D01*
X001278Y001718D01*
X001236Y001713D01*
X001195Y001712D01*
X001153Y001715D01*
X001112Y001722D01*
X001071Y001733D01*
X001032Y001748D01*
X000995Y001767D01*
X000959Y001789D01*
X000926Y001814D01*
X000895Y001843D01*
X000867Y001874D01*
X000843Y001908D01*
X000822Y001944D01*
X000804Y001982D01*
X000790Y002021D01*
X000780Y002062D01*
X000774Y002103D01*
X000772Y002145D01*
X000772Y018582D02*
X000774Y018624D01*
X000780Y018665D01*
X000790Y018706D01*
X000804Y018745D01*
X000822Y018783D01*
X000843Y018819D01*
X000867Y018853D01*
X000895Y018884D01*
X000926Y018913D01*
X000959Y018938D01*
X000995Y018960D01*
X001032Y018979D01*
X001071Y018994D01*
X001112Y019005D01*
X001153Y019012D01*
X001195Y019015D01*
X001236Y019014D01*
X001278Y019009D01*
X001319Y019000D01*
X001359Y018987D01*
X001397Y018970D01*
X001433Y018950D01*
X001468Y018926D01*
X001500Y018899D01*
X001529Y018869D01*
X001555Y018837D01*
X001578Y018802D01*
X001598Y018764D01*
X001613Y018726D01*
X001625Y018686D01*
X001633Y018645D01*
X001637Y018603D01*
X001637Y018561D01*
X001633Y018519D01*
X001625Y018478D01*
X001613Y018438D01*
X001598Y018400D01*
X001578Y018362D01*
X001555Y018327D01*
X001529Y018295D01*
X001500Y018265D01*
X001468Y018238D01*
X001433Y018214D01*
X001397Y018194D01*
X001359Y018177D01*
X001319Y018164D01*
X001278Y018155D01*
X001236Y018150D01*
X001195Y018149D01*
X001153Y018152D01*
X001112Y018159D01*
X001071Y018170D01*
X001032Y018185D01*
X000995Y018204D01*
X000959Y018226D01*
X000926Y018251D01*
X000895Y018280D01*
X000867Y018311D01*
X000843Y018345D01*
X000822Y018381D01*
X000804Y018419D01*
X000790Y018458D01*
X000780Y018499D01*
X000774Y018540D01*
X000772Y018582D01*
X027484Y018582D02*
X027486Y018624D01*
X027492Y018665D01*
X027502Y018706D01*
X027516Y018745D01*
X027534Y018783D01*
X027555Y018819D01*
X027579Y018853D01*
X027607Y018884D01*
X027638Y018913D01*
X027671Y018938D01*
X027707Y018960D01*
X027744Y018979D01*
X027783Y018994D01*
X027824Y019005D01*
X027865Y019012D01*
X027907Y019015D01*
X027948Y019014D01*
X027990Y019009D01*
X028031Y019000D01*
X028071Y018987D01*
X028109Y018970D01*
X028145Y018950D01*
X028180Y018926D01*
X028212Y018899D01*
X028241Y018869D01*
X028267Y018837D01*
X028290Y018802D01*
X028310Y018764D01*
X028325Y018726D01*
X028337Y018686D01*
X028345Y018645D01*
X028349Y018603D01*
X028349Y018561D01*
X028345Y018519D01*
X028337Y018478D01*
X028325Y018438D01*
X028310Y018400D01*
X028290Y018362D01*
X028267Y018327D01*
X028241Y018295D01*
X028212Y018265D01*
X028180Y018238D01*
X028145Y018214D01*
X028109Y018194D01*
X028071Y018177D01*
X028031Y018164D01*
X027990Y018155D01*
X027948Y018150D01*
X027907Y018149D01*
X027865Y018152D01*
X027824Y018159D01*
X027783Y018170D01*
X027744Y018185D01*
X027707Y018204D01*
X027671Y018226D01*
X027638Y018251D01*
X027607Y018280D01*
X027579Y018311D01*
X027555Y018345D01*
X027534Y018381D01*
X027516Y018419D01*
X027502Y018458D01*
X027492Y018499D01*
X027486Y018540D01*
X027484Y018582D01*
X027484Y002145D02*
X027486Y002187D01*
X027492Y002228D01*
X027502Y002269D01*
X027516Y002308D01*
X027534Y002346D01*
X027555Y002382D01*
X027579Y002416D01*
X027607Y002447D01*
X027638Y002476D01*
X027671Y002501D01*
X027707Y002523D01*
X027744Y002542D01*
X027783Y002557D01*
X027824Y002568D01*
X027865Y002575D01*
X027907Y002578D01*
X027948Y002577D01*
X027990Y002572D01*
X028031Y002563D01*
X028071Y002550D01*
X028109Y002533D01*
X028145Y002513D01*
X028180Y002489D01*
X028212Y002462D01*
X028241Y002432D01*
X028267Y002400D01*
X028290Y002365D01*
X028310Y002327D01*
X028325Y002289D01*
X028337Y002249D01*
X028345Y002208D01*
X028349Y002166D01*
X028349Y002124D01*
X028345Y002082D01*
X028337Y002041D01*
X028325Y002001D01*
X028310Y001963D01*
X028290Y001925D01*
X028267Y001890D01*
X028241Y001858D01*
X028212Y001828D01*
X028180Y001801D01*
X028145Y001777D01*
X028109Y001757D01*
X028071Y001740D01*
X028031Y001727D01*
X027990Y001718D01*
X027948Y001713D01*
X027907Y001712D01*
X027865Y001715D01*
X027824Y001722D01*
X027783Y001733D01*
X027744Y001748D01*
X027707Y001767D01*
X027671Y001789D01*
X027638Y001814D01*
X027607Y001843D01*
X027579Y001874D01*
X027555Y001908D01*
X027534Y001944D01*
X027516Y001982D01*
X027502Y002021D01*
X027492Y002062D01*
X027486Y002103D01*
X027484Y002145D01*
M02*
