G75*
G70*
%OFA0B0*%
%FSLAX24Y24*%
%IPPOS*%
%LPD*%
%AMOC8*
5,1,8,0,0,1.08239X$1,22.5*
%
%ADD10C,0.0000*%
%ADD11C,0.0050*%
%ADD12C,0.0030*%
%ADD13C,0.0100*%
%ADD14C,0.0240*%
%ADD15C,0.0060*%
%ADD16C,0.0010*%
D10*
X000151Y001102D02*
X028950Y001102D01*
X028950Y019626D01*
X000151Y019626D01*
X000151Y001102D01*
X000761Y002145D02*
X000763Y002187D01*
X000769Y002228D01*
X000779Y002269D01*
X000793Y002308D01*
X000811Y002346D01*
X000832Y002382D01*
X000856Y002416D01*
X000884Y002447D01*
X000915Y002476D01*
X000948Y002501D01*
X000984Y002523D01*
X001021Y002542D01*
X001060Y002557D01*
X001101Y002568D01*
X001142Y002575D01*
X001184Y002578D01*
X001225Y002577D01*
X001267Y002572D01*
X001308Y002563D01*
X001348Y002550D01*
X001386Y002533D01*
X001422Y002513D01*
X001457Y002489D01*
X001489Y002462D01*
X001518Y002432D01*
X001544Y002400D01*
X001567Y002365D01*
X001587Y002327D01*
X001602Y002289D01*
X001614Y002249D01*
X001622Y002208D01*
X001626Y002166D01*
X001626Y002124D01*
X001622Y002082D01*
X001614Y002041D01*
X001602Y002001D01*
X001587Y001963D01*
X001567Y001925D01*
X001544Y001890D01*
X001518Y001858D01*
X001489Y001828D01*
X001457Y001801D01*
X001422Y001777D01*
X001386Y001757D01*
X001348Y001740D01*
X001308Y001727D01*
X001267Y001718D01*
X001225Y001713D01*
X001184Y001712D01*
X001142Y001715D01*
X001101Y001722D01*
X001060Y001733D01*
X001021Y001748D01*
X000984Y001767D01*
X000948Y001789D01*
X000915Y001814D01*
X000884Y001843D01*
X000856Y001874D01*
X000832Y001908D01*
X000811Y001944D01*
X000793Y001982D01*
X000779Y002021D01*
X000769Y002062D01*
X000763Y002103D01*
X000761Y002145D01*
X000761Y018582D02*
X000763Y018624D01*
X000769Y018665D01*
X000779Y018706D01*
X000793Y018745D01*
X000811Y018783D01*
X000832Y018819D01*
X000856Y018853D01*
X000884Y018884D01*
X000915Y018913D01*
X000948Y018938D01*
X000984Y018960D01*
X001021Y018979D01*
X001060Y018994D01*
X001101Y019005D01*
X001142Y019012D01*
X001184Y019015D01*
X001225Y019014D01*
X001267Y019009D01*
X001308Y019000D01*
X001348Y018987D01*
X001386Y018970D01*
X001422Y018950D01*
X001457Y018926D01*
X001489Y018899D01*
X001518Y018869D01*
X001544Y018837D01*
X001567Y018802D01*
X001587Y018764D01*
X001602Y018726D01*
X001614Y018686D01*
X001622Y018645D01*
X001626Y018603D01*
X001626Y018561D01*
X001622Y018519D01*
X001614Y018478D01*
X001602Y018438D01*
X001587Y018400D01*
X001567Y018362D01*
X001544Y018327D01*
X001518Y018295D01*
X001489Y018265D01*
X001457Y018238D01*
X001422Y018214D01*
X001386Y018194D01*
X001348Y018177D01*
X001308Y018164D01*
X001267Y018155D01*
X001225Y018150D01*
X001184Y018149D01*
X001142Y018152D01*
X001101Y018159D01*
X001060Y018170D01*
X001021Y018185D01*
X000984Y018204D01*
X000948Y018226D01*
X000915Y018251D01*
X000884Y018280D01*
X000856Y018311D01*
X000832Y018345D01*
X000811Y018381D01*
X000793Y018419D01*
X000779Y018458D01*
X000769Y018499D01*
X000763Y018540D01*
X000761Y018582D01*
X027474Y018582D02*
X027476Y018624D01*
X027482Y018665D01*
X027492Y018706D01*
X027506Y018745D01*
X027524Y018783D01*
X027545Y018819D01*
X027569Y018853D01*
X027597Y018884D01*
X027628Y018913D01*
X027661Y018938D01*
X027697Y018960D01*
X027734Y018979D01*
X027773Y018994D01*
X027814Y019005D01*
X027855Y019012D01*
X027897Y019015D01*
X027938Y019014D01*
X027980Y019009D01*
X028021Y019000D01*
X028061Y018987D01*
X028099Y018970D01*
X028135Y018950D01*
X028170Y018926D01*
X028202Y018899D01*
X028231Y018869D01*
X028257Y018837D01*
X028280Y018802D01*
X028300Y018764D01*
X028315Y018726D01*
X028327Y018686D01*
X028335Y018645D01*
X028339Y018603D01*
X028339Y018561D01*
X028335Y018519D01*
X028327Y018478D01*
X028315Y018438D01*
X028300Y018400D01*
X028280Y018362D01*
X028257Y018327D01*
X028231Y018295D01*
X028202Y018265D01*
X028170Y018238D01*
X028135Y018214D01*
X028099Y018194D01*
X028061Y018177D01*
X028021Y018164D01*
X027980Y018155D01*
X027938Y018150D01*
X027897Y018149D01*
X027855Y018152D01*
X027814Y018159D01*
X027773Y018170D01*
X027734Y018185D01*
X027697Y018204D01*
X027661Y018226D01*
X027628Y018251D01*
X027597Y018280D01*
X027569Y018311D01*
X027545Y018345D01*
X027524Y018381D01*
X027506Y018419D01*
X027492Y018458D01*
X027482Y018499D01*
X027476Y018540D01*
X027474Y018582D01*
X027474Y002145D02*
X027476Y002187D01*
X027482Y002228D01*
X027492Y002269D01*
X027506Y002308D01*
X027524Y002346D01*
X027545Y002382D01*
X027569Y002416D01*
X027597Y002447D01*
X027628Y002476D01*
X027661Y002501D01*
X027697Y002523D01*
X027734Y002542D01*
X027773Y002557D01*
X027814Y002568D01*
X027855Y002575D01*
X027897Y002578D01*
X027938Y002577D01*
X027980Y002572D01*
X028021Y002563D01*
X028061Y002550D01*
X028099Y002533D01*
X028135Y002513D01*
X028170Y002489D01*
X028202Y002462D01*
X028231Y002432D01*
X028257Y002400D01*
X028280Y002365D01*
X028300Y002327D01*
X028315Y002289D01*
X028327Y002249D01*
X028335Y002208D01*
X028339Y002166D01*
X028339Y002124D01*
X028335Y002082D01*
X028327Y002041D01*
X028315Y002001D01*
X028300Y001963D01*
X028280Y001925D01*
X028257Y001890D01*
X028231Y001858D01*
X028202Y001828D01*
X028170Y001801D01*
X028135Y001777D01*
X028099Y001757D01*
X028061Y001740D01*
X028021Y001727D01*
X027980Y001718D01*
X027938Y001713D01*
X027897Y001712D01*
X027855Y001715D01*
X027814Y001722D01*
X027773Y001733D01*
X027734Y001748D01*
X027697Y001767D01*
X027661Y001789D01*
X027628Y001814D01*
X027597Y001843D01*
X027569Y001874D01*
X027545Y001908D01*
X027524Y001944D01*
X027506Y001982D01*
X027492Y002021D01*
X027482Y002062D01*
X027476Y002103D01*
X027474Y002145D01*
D11*
X023780Y007495D02*
X023329Y007495D01*
X023780Y007795D01*
X023329Y007795D01*
X023480Y007955D02*
X023329Y008105D01*
X023480Y008255D01*
X023780Y008255D01*
X023780Y008415D02*
X023329Y008415D01*
X023780Y008716D01*
X023329Y008716D01*
X023404Y008876D02*
X023705Y008876D01*
X023780Y008951D01*
X023780Y009101D01*
X023705Y009176D01*
X023404Y009176D01*
X023329Y009101D01*
X023329Y008951D01*
X023404Y008876D01*
X023329Y009336D02*
X023480Y009486D01*
X023329Y009636D01*
X023780Y009636D01*
X023705Y009796D02*
X023404Y009796D01*
X023329Y009871D01*
X023329Y010022D01*
X023404Y010097D01*
X023705Y010097D01*
X023780Y010022D01*
X023780Y009871D01*
X023705Y009796D01*
X023780Y010257D02*
X023329Y010257D01*
X023329Y010482D01*
X023404Y010557D01*
X023705Y010557D01*
X023780Y010482D01*
X023780Y010257D01*
X023780Y010717D02*
X023780Y011017D01*
X023780Y010867D02*
X023329Y010867D01*
X023480Y010717D01*
X023404Y011178D02*
X023329Y011253D01*
X023329Y011403D01*
X023404Y011478D01*
X023705Y011178D01*
X023780Y011253D01*
X023780Y011403D01*
X023705Y011478D01*
X023404Y011478D01*
X023555Y011638D02*
X023555Y011938D01*
X023480Y012098D02*
X023329Y012248D01*
X023780Y012248D01*
X023780Y012098D02*
X023780Y012398D01*
X023705Y012559D02*
X023630Y012559D01*
X023555Y012634D01*
X023555Y012784D01*
X023630Y012859D01*
X023705Y012859D01*
X023780Y012784D01*
X023780Y012634D01*
X023705Y012559D01*
X023555Y012634D02*
X023480Y012559D01*
X023404Y012559D01*
X023329Y012634D01*
X023329Y012784D01*
X023404Y012859D01*
X023480Y012859D01*
X023555Y012784D01*
X023705Y011178D02*
X023404Y011178D01*
X023329Y009336D02*
X023780Y009336D01*
X023555Y008255D02*
X023555Y007955D01*
X023480Y007955D02*
X023780Y007955D01*
X019703Y011943D02*
X019253Y011943D01*
X019703Y012243D01*
X019253Y012243D01*
X019403Y012403D02*
X019253Y012553D01*
X019403Y012704D01*
X019703Y012704D01*
X019703Y012864D02*
X019253Y012864D01*
X019703Y013164D01*
X019253Y013164D01*
X019328Y013324D02*
X019628Y013324D01*
X019703Y013399D01*
X019703Y013549D01*
X019628Y013624D01*
X019328Y013624D01*
X019253Y013549D01*
X019253Y013399D01*
X019328Y013324D01*
X019253Y013784D02*
X019403Y013934D01*
X019253Y014085D01*
X019703Y014085D01*
X019628Y014245D02*
X019703Y014320D01*
X019703Y014470D01*
X019628Y014545D01*
X019328Y014545D01*
X019253Y014470D01*
X019253Y014320D01*
X019328Y014245D01*
X019628Y014245D01*
X019703Y013784D02*
X019253Y013784D01*
X019253Y014705D02*
X019253Y014930D01*
X019328Y015005D01*
X019628Y015005D01*
X019703Y014930D01*
X019703Y014705D01*
X019253Y014705D01*
X019403Y015165D02*
X019253Y015316D01*
X019703Y015316D01*
X019703Y015466D02*
X019703Y015165D01*
X019478Y015626D02*
X019478Y015926D01*
X019403Y016086D02*
X019478Y016161D01*
X019478Y016386D01*
X019328Y016386D02*
X019253Y016311D01*
X019253Y016161D01*
X019328Y016086D01*
X019403Y016086D01*
X019628Y016086D02*
X019703Y016161D01*
X019703Y016311D01*
X019628Y016386D01*
X019328Y016386D01*
X019478Y012704D02*
X019478Y012403D01*
X019403Y012403D02*
X019703Y012403D01*
X016006Y012728D02*
X016006Y010366D01*
X015986Y010366D02*
X013643Y010366D01*
X013643Y012728D01*
X016006Y012728D01*
X015375Y010740D02*
X015377Y010768D01*
X015383Y010796D01*
X015393Y010822D01*
X015406Y010847D01*
X015423Y010869D01*
X015443Y010889D01*
X015465Y010906D01*
X015490Y010919D01*
X015516Y010929D01*
X015544Y010935D01*
X015572Y010937D01*
X015600Y010935D01*
X015628Y010929D01*
X015654Y010919D01*
X015679Y010906D01*
X015701Y010889D01*
X015721Y010869D01*
X015738Y010847D01*
X015751Y010822D01*
X015761Y010796D01*
X015767Y010768D01*
X015769Y010740D01*
X015767Y010712D01*
X015761Y010684D01*
X015751Y010658D01*
X015738Y010633D01*
X015721Y010611D01*
X015701Y010591D01*
X015679Y010574D01*
X015654Y010561D01*
X015628Y010551D01*
X015600Y010545D01*
X015572Y010543D01*
X015544Y010545D01*
X015516Y010551D01*
X015490Y010561D01*
X015465Y010574D01*
X015443Y010591D01*
X015423Y010611D01*
X015406Y010633D01*
X015393Y010658D01*
X015383Y010684D01*
X015377Y010712D01*
X015375Y010740D01*
X013907Y008647D02*
X013907Y008197D01*
X013757Y008197D02*
X014057Y008197D01*
X013757Y008497D02*
X013907Y008647D01*
X013596Y008572D02*
X013596Y008272D01*
X013521Y008197D01*
X013371Y008197D01*
X013296Y008272D01*
X013296Y008572D01*
X013371Y008647D01*
X013521Y008647D01*
X013596Y008572D01*
X013446Y008347D02*
X013596Y008197D01*
X013662Y006514D02*
X013737Y006439D01*
X013737Y006289D01*
X013662Y006214D01*
X013437Y006214D01*
X013437Y006064D02*
X013437Y006514D01*
X013662Y006514D01*
X013898Y006439D02*
X013973Y006514D01*
X014123Y006514D01*
X014198Y006439D01*
X014198Y006364D01*
X013898Y006064D01*
X014198Y006064D01*
X013202Y006139D02*
X013127Y006064D01*
X013052Y006064D01*
X012977Y006139D01*
X013202Y006139D02*
X013202Y006514D01*
X013127Y006514D02*
X013277Y006514D01*
X009847Y005658D02*
X009547Y005658D01*
X009697Y005658D02*
X009697Y006108D01*
X009547Y005958D01*
X009387Y006033D02*
X009387Y005883D01*
X009312Y005808D01*
X009087Y005808D01*
X009087Y005658D02*
X009087Y006108D01*
X009312Y006108D01*
X009387Y006033D01*
X008927Y006108D02*
X008777Y006108D01*
X008852Y006108D02*
X008852Y005733D01*
X008777Y005658D01*
X008702Y005658D01*
X008626Y005733D01*
X004097Y004101D02*
X004097Y004026D01*
X004022Y003951D01*
X004097Y003876D01*
X004097Y003801D01*
X004022Y003726D01*
X003872Y003726D01*
X003797Y003801D01*
X003947Y003951D02*
X004022Y003951D01*
X004097Y004101D02*
X004022Y004176D01*
X003872Y004176D01*
X003797Y004101D01*
X003637Y004101D02*
X003637Y003951D01*
X003562Y003876D01*
X003337Y003876D01*
X003337Y003726D02*
X003337Y004176D01*
X003562Y004176D01*
X003637Y004101D01*
X003176Y004176D02*
X003026Y004176D01*
X003101Y004176D02*
X003101Y003801D01*
X003026Y003726D01*
X002951Y003726D01*
X002876Y003801D01*
X012884Y015506D02*
X013334Y015506D01*
X013334Y015806D01*
X013334Y015966D02*
X012884Y015966D01*
X012884Y016267D01*
X012884Y016427D02*
X012884Y016652D01*
X012959Y016727D01*
X013259Y016727D01*
X013334Y016652D01*
X013334Y016427D01*
X012884Y016427D01*
X013109Y016116D02*
X013109Y015966D01*
X013334Y015966D02*
X013334Y016267D01*
X013334Y016887D02*
X013334Y017187D01*
X013334Y017037D02*
X012884Y017037D01*
X013034Y016887D01*
D12*
X013089Y016707D02*
X013274Y016707D01*
X013335Y016646D01*
X013335Y016522D01*
X013274Y016461D01*
X013089Y016461D01*
X013212Y016461D02*
X013335Y016337D01*
X013457Y016399D02*
X013519Y016337D01*
X013642Y016337D01*
X013704Y016399D01*
X013704Y016461D01*
X013642Y016522D01*
X013580Y016522D01*
X013642Y016522D02*
X013704Y016584D01*
X013704Y016646D01*
X013642Y016707D01*
X013519Y016707D01*
X013457Y016646D01*
X013089Y016707D02*
X013089Y016337D01*
X013452Y015947D02*
X013452Y015700D01*
X013514Y015639D01*
X013637Y015639D01*
X013699Y015700D01*
X013820Y015700D02*
X013882Y015639D01*
X014005Y015639D01*
X014067Y015700D01*
X014067Y015824D01*
X014005Y015886D01*
X013944Y015886D01*
X013820Y015824D01*
X013820Y016009D01*
X014067Y016009D01*
X013699Y015947D02*
X013637Y016009D01*
X013514Y016009D01*
X013452Y015947D01*
X013587Y015411D02*
X013587Y015040D01*
X013464Y015040D02*
X013711Y015040D01*
X013832Y015040D02*
X013832Y015102D01*
X014079Y015349D01*
X014079Y015411D01*
X013832Y015411D01*
X013587Y015411D02*
X013464Y015287D01*
X013342Y015349D02*
X013281Y015411D01*
X013157Y015411D01*
X013096Y015349D01*
X013096Y015102D01*
X013157Y015040D01*
X013281Y015040D01*
X013342Y015102D01*
X013278Y014904D02*
X013154Y014904D01*
X013093Y014843D01*
X013093Y014596D01*
X013154Y014534D01*
X013278Y014534D01*
X013339Y014596D01*
X013461Y014534D02*
X013708Y014781D01*
X013708Y014843D01*
X013646Y014904D01*
X013523Y014904D01*
X013461Y014843D01*
X013339Y014843D02*
X013278Y014904D01*
X013461Y014534D02*
X013708Y014534D01*
X013646Y014215D02*
X013523Y014215D01*
X013461Y014154D01*
X013339Y014154D02*
X013278Y014215D01*
X013154Y014215D01*
X013093Y014154D01*
X013093Y013907D01*
X013154Y013845D01*
X013278Y013845D01*
X013339Y013907D01*
X013461Y013845D02*
X013708Y014092D01*
X013708Y014154D01*
X013646Y014215D01*
X013829Y014154D02*
X013829Y013907D01*
X014076Y014154D01*
X014076Y013907D01*
X014014Y013845D01*
X013891Y013845D01*
X013829Y013907D01*
X013708Y013845D02*
X013461Y013845D01*
X013855Y013464D02*
X013855Y012971D01*
X013917Y013032D02*
X013978Y013094D01*
X013978Y013156D01*
X013917Y013218D01*
X013793Y013218D01*
X013732Y013279D01*
X013732Y013341D01*
X013793Y013403D01*
X013917Y013403D01*
X013978Y013341D01*
X014100Y013341D02*
X014162Y013403D01*
X014285Y013403D01*
X014347Y013341D01*
X014347Y013279D01*
X014100Y013032D01*
X014347Y013032D01*
X013917Y013032D02*
X013793Y013032D01*
X013732Y013094D01*
X013610Y013094D02*
X013548Y013032D01*
X013425Y013032D01*
X013363Y013094D01*
X013363Y013403D01*
X013610Y013403D02*
X013610Y013094D01*
X012693Y013132D02*
X012645Y013084D01*
X012548Y013084D01*
X012500Y013132D01*
X012398Y013084D02*
X012205Y013084D01*
X012302Y013084D02*
X012302Y013374D01*
X012205Y013277D01*
X012104Y013326D02*
X012055Y013374D01*
X011959Y013374D01*
X011910Y013326D01*
X011910Y013132D01*
X011959Y013084D01*
X012055Y013084D01*
X012104Y013132D01*
X012500Y013326D02*
X012548Y013374D01*
X012645Y013374D01*
X012693Y013326D01*
X012693Y013277D01*
X012645Y013229D01*
X012693Y013181D01*
X012693Y013132D01*
X012645Y013229D02*
X012596Y013229D01*
X012595Y012508D02*
X012401Y012508D01*
X012401Y012363D01*
X012498Y012411D01*
X012546Y012411D01*
X012595Y012363D01*
X012595Y012266D01*
X012546Y012218D01*
X012449Y012218D01*
X012401Y012266D01*
X012300Y012218D02*
X012106Y012218D01*
X012203Y012218D02*
X012203Y012508D01*
X012106Y012411D01*
X012005Y012460D02*
X011957Y012508D01*
X011860Y012508D01*
X011812Y012460D01*
X011812Y012266D01*
X011860Y012218D01*
X011957Y012218D01*
X012005Y012266D01*
X014075Y011690D02*
X014075Y011399D01*
X014075Y011496D02*
X014220Y011496D01*
X014268Y011545D01*
X014268Y011641D01*
X014220Y011690D01*
X014075Y011690D01*
X014369Y011690D02*
X014563Y011399D01*
X014563Y011690D01*
X014664Y011690D02*
X014664Y011545D01*
X014761Y011593D01*
X014809Y011593D01*
X014858Y011545D01*
X014858Y011448D01*
X014809Y011399D01*
X014712Y011399D01*
X014664Y011448D01*
X014664Y011690D02*
X014858Y011690D01*
X014959Y011593D02*
X015056Y011690D01*
X015056Y011399D01*
X015152Y011399D02*
X014959Y011399D01*
X015253Y011399D02*
X015447Y011593D01*
X015447Y011641D01*
X015399Y011690D01*
X015302Y011690D01*
X015253Y011641D01*
X015253Y011399D02*
X015447Y011399D01*
X014369Y011399D02*
X014369Y011690D01*
X014989Y013132D02*
X015112Y013132D01*
X015174Y013194D01*
X015174Y013503D01*
X015296Y013441D02*
X015357Y013503D01*
X015481Y013503D01*
X015542Y013441D01*
X015664Y013441D02*
X015726Y013503D01*
X015849Y013503D01*
X015911Y013441D01*
X015911Y013379D01*
X015849Y013318D01*
X015911Y013256D01*
X015911Y013194D01*
X015849Y013132D01*
X015726Y013132D01*
X015664Y013194D01*
X015542Y013194D02*
X015542Y013256D01*
X015481Y013318D01*
X015357Y013318D01*
X015296Y013379D01*
X015296Y013441D01*
X015419Y013564D02*
X015419Y013071D01*
X015357Y013132D02*
X015481Y013132D01*
X015542Y013194D01*
X015357Y013132D02*
X015296Y013194D01*
X014989Y013132D02*
X014927Y013194D01*
X014927Y013503D01*
X015596Y013907D02*
X015658Y013845D01*
X015782Y013845D01*
X015843Y013907D01*
X015965Y014030D02*
X016212Y014030D01*
X016150Y013845D02*
X016150Y014215D01*
X015965Y014030D01*
X015843Y014154D02*
X015782Y014215D01*
X015658Y014215D01*
X015596Y014154D01*
X015596Y013907D01*
X015787Y013318D02*
X015849Y013318D01*
X016597Y012924D02*
X016597Y012800D01*
X016659Y012739D01*
X016659Y012617D02*
X016782Y012617D01*
X016844Y012555D01*
X016844Y012370D01*
X016967Y012370D02*
X016597Y012370D01*
X016597Y012555D01*
X016659Y012617D01*
X016844Y012494D02*
X016967Y012617D01*
X016967Y012739D02*
X016720Y012985D01*
X016659Y012985D01*
X016597Y012924D01*
X016967Y012985D02*
X016967Y012739D01*
X016967Y011556D02*
X016967Y011309D01*
X016967Y011433D02*
X016597Y011433D01*
X016720Y011309D01*
X016659Y011188D02*
X016597Y011126D01*
X016597Y011003D01*
X016659Y010941D01*
X016906Y010941D01*
X016967Y011003D01*
X016967Y011126D01*
X016906Y011188D01*
X016677Y010056D02*
X016431Y010056D01*
X016431Y009871D01*
X016554Y009933D01*
X016616Y009933D01*
X016677Y009871D01*
X016677Y009748D01*
X016616Y009686D01*
X016492Y009686D01*
X016431Y009748D01*
X016309Y009686D02*
X016186Y009809D01*
X016247Y009809D02*
X016062Y009809D01*
X016062Y009686D02*
X016062Y010056D01*
X016247Y010056D01*
X016309Y009995D01*
X016309Y009871D01*
X016247Y009809D01*
X014003Y006987D02*
X013879Y006987D01*
X013817Y006925D01*
X013817Y006678D01*
X014064Y006925D01*
X014064Y006678D01*
X014003Y006617D01*
X013879Y006617D01*
X013817Y006678D01*
X013696Y006617D02*
X013449Y006617D01*
X013572Y006617D02*
X013572Y006987D01*
X013449Y006864D01*
X013328Y006925D02*
X013266Y006987D01*
X013142Y006987D01*
X013081Y006925D01*
X013081Y006678D01*
X013142Y006617D01*
X013266Y006617D01*
X013328Y006678D01*
X014003Y006987D02*
X014064Y006925D01*
X012600Y005728D02*
X012600Y005535D01*
X012600Y005632D02*
X012310Y005632D01*
X012407Y005535D01*
X012407Y005434D02*
X012358Y005434D01*
X012310Y005385D01*
X012310Y005289D01*
X012358Y005240D01*
X012358Y005139D02*
X012310Y005091D01*
X012310Y004994D01*
X012358Y004946D01*
X012552Y004946D01*
X012600Y004994D01*
X012600Y005091D01*
X012552Y005139D01*
X012600Y005240D02*
X012407Y005434D01*
X012600Y005434D02*
X012600Y005240D01*
X011734Y005240D02*
X011734Y005434D01*
X011734Y005535D02*
X011734Y005728D01*
X011734Y005632D02*
X011444Y005632D01*
X011541Y005535D01*
X011444Y005240D02*
X011734Y005240D01*
X011711Y006389D02*
X011904Y006389D01*
X011807Y006389D02*
X011807Y006679D01*
X011711Y006583D01*
X011610Y006631D02*
X011561Y006679D01*
X011464Y006679D01*
X011416Y006631D01*
X011416Y006438D01*
X011464Y006389D01*
X011561Y006389D01*
X011610Y006438D01*
X012005Y006389D02*
X012199Y006583D01*
X012199Y006631D01*
X012151Y006679D01*
X012054Y006679D01*
X012005Y006631D01*
X012005Y006389D02*
X012199Y006389D01*
X015909Y006570D02*
X015970Y006509D01*
X016094Y006509D01*
X016156Y006570D01*
X016277Y006570D02*
X016339Y006509D01*
X016462Y006509D01*
X016524Y006570D01*
X016524Y006817D01*
X016462Y006879D01*
X016339Y006879D01*
X016277Y006817D01*
X016277Y006756D01*
X016339Y006694D01*
X016524Y006694D01*
X016156Y006817D02*
X016094Y006879D01*
X015970Y006879D01*
X015909Y006817D01*
X015909Y006570D01*
X017219Y013944D02*
X017170Y013992D01*
X017170Y014089D01*
X017219Y014137D01*
X017267Y014238D02*
X017170Y014335D01*
X017461Y014335D01*
X017461Y014238D02*
X017461Y014432D01*
X017315Y014533D02*
X017315Y014727D01*
X017170Y014678D02*
X017461Y014678D01*
X017315Y014533D02*
X017170Y014678D01*
X017412Y014137D02*
X017461Y014089D01*
X017461Y013992D01*
X017412Y013944D01*
X017219Y013944D01*
X015796Y014592D02*
X015796Y014839D01*
X015735Y014900D01*
X015611Y014900D01*
X015550Y014839D01*
X015550Y014777D01*
X015611Y014715D01*
X015796Y014715D01*
X015796Y014592D02*
X015735Y014530D01*
X015611Y014530D01*
X015550Y014592D01*
X015428Y014530D02*
X015181Y014530D01*
X015305Y014530D02*
X015305Y014900D01*
X015181Y014777D01*
X015060Y014839D02*
X014998Y014900D01*
X014875Y014900D01*
X014813Y014839D01*
X014813Y014592D01*
X014875Y014530D01*
X014998Y014530D01*
X015060Y014592D01*
X014993Y015040D02*
X015055Y015102D01*
X014993Y015040D02*
X014870Y015040D01*
X014808Y015102D01*
X014808Y015349D01*
X014870Y015411D01*
X014993Y015411D01*
X015055Y015349D01*
X015176Y015287D02*
X015300Y015411D01*
X015300Y015040D01*
X015423Y015040D02*
X015176Y015040D01*
X015545Y015102D02*
X015545Y015164D01*
X015606Y015225D01*
X015730Y015225D01*
X015792Y015164D01*
X015792Y015102D01*
X015730Y015040D01*
X015606Y015040D01*
X015545Y015102D01*
X015606Y015225D02*
X015545Y015287D01*
X015545Y015349D01*
X015606Y015411D01*
X015730Y015411D01*
X015792Y015349D01*
X015792Y015287D01*
X015730Y015225D01*
X015722Y015639D02*
X015599Y015639D01*
X015537Y015700D01*
X015537Y015824D01*
X015722Y015824D01*
X015784Y015762D01*
X015784Y015700D01*
X015722Y015639D01*
X015537Y015824D02*
X015660Y015947D01*
X015784Y016009D01*
X015415Y015947D02*
X015354Y016009D01*
X015230Y016009D01*
X015169Y015947D01*
X015169Y015700D01*
X015230Y015639D01*
X015354Y015639D01*
X015415Y015700D01*
X015366Y016337D02*
X015366Y016707D01*
X015181Y016522D01*
X015428Y016522D01*
X015060Y016522D02*
X014998Y016461D01*
X014813Y016461D01*
X014936Y016461D02*
X015060Y016337D01*
X015060Y016522D02*
X015060Y016646D01*
X014998Y016707D01*
X014813Y016707D01*
X014813Y016337D01*
X016719Y016358D02*
X016719Y016165D01*
X016768Y016064D02*
X016865Y016064D01*
X016913Y016015D01*
X016913Y015870D01*
X017010Y015870D02*
X016719Y015870D01*
X016719Y016015D01*
X016768Y016064D01*
X016913Y015967D02*
X017010Y016064D01*
X017010Y016165D02*
X016961Y016165D01*
X016768Y016358D01*
X016719Y016358D01*
X019572Y015633D02*
X019620Y015536D01*
X019717Y015439D01*
X019717Y015584D01*
X019765Y015633D01*
X019814Y015633D01*
X019862Y015584D01*
X019862Y015488D01*
X019814Y015439D01*
X019717Y015439D01*
X019717Y015338D02*
X019765Y015290D01*
X019765Y015145D01*
X019765Y015241D02*
X019862Y015338D01*
X019717Y015338D02*
X019620Y015338D01*
X019572Y015290D01*
X019572Y015145D01*
X019862Y015145D01*
X014076Y014154D02*
X014014Y014215D01*
X013891Y014215D01*
X013829Y014154D01*
X012204Y014491D02*
X011957Y014491D01*
X011835Y014491D02*
X011712Y014614D01*
X011774Y014614D02*
X011589Y014614D01*
X011589Y014491D02*
X011589Y014861D01*
X011774Y014861D01*
X011835Y014799D01*
X011835Y014676D01*
X011774Y014614D01*
X011957Y014738D02*
X012080Y014861D01*
X012080Y014491D01*
X012019Y015207D02*
X011957Y015269D01*
X011957Y015331D01*
X012019Y015392D01*
X012142Y015392D01*
X012204Y015331D01*
X012204Y015269D01*
X012142Y015207D01*
X012019Y015207D01*
X012019Y015392D02*
X011957Y015454D01*
X011957Y015516D01*
X012019Y015578D01*
X012142Y015578D01*
X012204Y015516D01*
X012204Y015454D01*
X012142Y015392D01*
X011835Y015269D02*
X011774Y015207D01*
X011650Y015207D01*
X011589Y015269D01*
X011589Y015516D01*
X011650Y015578D01*
X011774Y015578D01*
X011835Y015516D01*
D13*
X010709Y016823D02*
X010713Y016909D01*
X010725Y016995D01*
X010744Y017079D01*
X010771Y017161D01*
X010806Y017241D01*
X010847Y017317D01*
X010896Y017388D01*
X010950Y017455D01*
X011011Y017517D01*
X011076Y017573D01*
X011147Y017623D01*
X011222Y017666D01*
X011300Y017703D01*
X011382Y017732D01*
X011466Y017753D01*
X011551Y017767D01*
X011637Y017773D01*
X011724Y017771D01*
X011810Y017761D01*
X011894Y017743D01*
X011977Y017718D01*
X012057Y017686D01*
X012134Y017646D01*
X012207Y017599D01*
X012275Y017546D01*
X012338Y017487D01*
X012396Y017423D01*
X012447Y017353D01*
X012492Y017279D01*
X012530Y017201D01*
X012561Y017121D01*
X012584Y017037D01*
X012600Y016952D01*
X012608Y016866D01*
X012608Y016780D01*
X012600Y016694D01*
X012584Y016609D01*
X012561Y016525D01*
X012530Y016445D01*
X012492Y016367D01*
X012447Y016293D01*
X012396Y016223D01*
X012338Y016159D01*
X012275Y016100D01*
X012207Y016047D01*
X012134Y016000D01*
X012057Y015960D01*
X011977Y015928D01*
X011894Y015903D01*
X011810Y015885D01*
X011724Y015875D01*
X011637Y015873D01*
X011551Y015879D01*
X011466Y015893D01*
X011382Y015914D01*
X011300Y015943D01*
X011222Y015980D01*
X011147Y016023D01*
X011076Y016073D01*
X011011Y016129D01*
X010950Y016191D01*
X010896Y016258D01*
X010847Y016329D01*
X010806Y016405D01*
X010771Y016485D01*
X010744Y016567D01*
X010725Y016651D01*
X010713Y016737D01*
X010709Y016823D01*
X011695Y013530D02*
X011695Y012808D01*
X013095Y012808D01*
X013095Y013530D01*
X011695Y013530D01*
X011597Y012663D02*
X011597Y011942D01*
X012997Y011942D01*
X012997Y012663D01*
X011597Y012663D01*
X016444Y015245D02*
X016444Y016645D01*
X017165Y016645D01*
X017165Y015245D01*
X016444Y015245D01*
X017015Y015129D02*
X017736Y015129D01*
X017736Y013729D01*
X017015Y013729D01*
X017015Y015129D01*
X019417Y014930D02*
X020138Y014930D01*
X020138Y016330D01*
X019417Y016330D01*
X019417Y014930D01*
X016671Y009072D02*
X012371Y009072D01*
X012371Y007172D02*
X016671Y007172D01*
X012756Y006015D02*
X012756Y004615D01*
X012035Y004615D01*
X012035Y006015D01*
X012756Y006015D01*
X012485Y006234D02*
X012485Y006955D01*
X011085Y006955D01*
X011085Y006234D01*
X012485Y006234D01*
X011890Y006015D02*
X011169Y006015D01*
X011169Y004615D01*
X011890Y004615D01*
X011890Y006015D01*
D14*
X002029Y010799D02*
X002050Y011263D01*
X002113Y011723D01*
X002218Y012175D01*
X002364Y012615D01*
X002548Y013041D01*
X002771Y013448D01*
X003030Y013834D01*
X003323Y014194D01*
X003648Y014526D01*
X004001Y014827D01*
X004380Y015094D01*
X004782Y015326D01*
X005204Y015521D01*
X005641Y015676D01*
X006091Y015791D01*
X006549Y015865D01*
X007012Y015897D01*
X007476Y015886D01*
X007937Y015833D01*
X008392Y015739D01*
X008836Y015604D01*
X009265Y015428D01*
X009677Y015215D01*
X010068Y014965D01*
X010435Y014680D01*
X010774Y014363D01*
X011083Y014017D01*
X011360Y013644D01*
X011601Y013247D01*
X011805Y012830D01*
X011970Y012397D01*
X012095Y011950D01*
X012180Y011493D01*
X012222Y011031D01*
X012222Y010567D01*
X012180Y010105D01*
X012095Y009648D01*
X011970Y009201D01*
X011805Y008768D01*
X011601Y008351D01*
X011360Y007954D01*
X011083Y007581D01*
X010774Y007235D01*
X010435Y006918D01*
X010068Y006633D01*
X009678Y006383D01*
X009265Y006170D01*
X008836Y005994D01*
X008392Y005859D01*
X007937Y005765D01*
X007476Y005712D01*
X007012Y005701D01*
X006549Y005733D01*
X006091Y005807D01*
X005641Y005922D01*
X005204Y006077D01*
X004782Y006272D01*
X004380Y006504D01*
X004001Y006771D01*
X003648Y007072D01*
X003323Y007404D01*
X003030Y007764D01*
X002771Y008150D01*
X002548Y008557D01*
X002364Y008983D01*
X002218Y009423D01*
X002113Y009875D01*
X002050Y010335D01*
X002029Y010799D01*
D15*
X002452Y005421D02*
X002952Y005421D01*
X003202Y005171D01*
X003452Y005421D01*
X003952Y005421D01*
X004202Y005171D01*
X004202Y004671D01*
X003952Y004421D01*
X003452Y004421D01*
X003202Y004671D01*
X002952Y004421D01*
X002452Y004421D01*
X002202Y004671D01*
X002202Y005171D01*
X002452Y005421D01*
X003202Y005171D02*
X003202Y004671D01*
X008631Y004663D02*
X008881Y004413D01*
X009381Y004413D01*
X009631Y004663D01*
X009881Y004413D01*
X010381Y004413D01*
X010631Y004663D01*
X010631Y005163D01*
X010381Y005413D01*
X009881Y005413D01*
X009631Y005163D01*
X009631Y004663D01*
X009631Y005163D02*
X009381Y005413D01*
X008881Y005413D01*
X008631Y005163D01*
X008631Y004663D01*
X012982Y005069D02*
X013232Y004819D01*
X013732Y004819D01*
X013982Y005069D01*
X014232Y004819D01*
X014732Y004819D01*
X014982Y005069D01*
X014982Y005569D01*
X014732Y005819D01*
X014232Y005819D01*
X013982Y005569D01*
X013982Y005069D01*
X013982Y005569D02*
X013732Y005819D01*
X013232Y005819D01*
X012982Y005569D01*
X012982Y005069D01*
X018008Y007742D02*
X018008Y008242D01*
X018258Y008492D01*
X018008Y008742D01*
X018008Y009242D01*
X018258Y009492D01*
X018008Y009742D01*
X018008Y010242D01*
X018258Y010492D01*
X018008Y010742D01*
X018008Y011242D01*
X018258Y011492D01*
X018008Y011742D01*
X018008Y012242D01*
X018258Y012492D01*
X018008Y012742D01*
X018008Y013242D01*
X018258Y013492D01*
X018008Y013742D01*
X018008Y014242D01*
X018258Y014492D01*
X018008Y014742D01*
X018008Y015242D01*
X018258Y015492D01*
X018008Y015742D01*
X018008Y016242D01*
X018258Y016492D01*
X018758Y016492D01*
X019008Y016242D01*
X019008Y015742D01*
X018758Y015492D01*
X019008Y015242D01*
X019008Y014742D01*
X018758Y014492D01*
X018258Y014492D01*
X018758Y014492D02*
X019008Y014242D01*
X019008Y013742D01*
X018758Y013492D01*
X019008Y013242D01*
X019008Y012742D01*
X018758Y012492D01*
X019008Y012242D01*
X019008Y011742D01*
X018758Y011492D01*
X018258Y011492D01*
X018758Y011492D02*
X019008Y011242D01*
X019008Y010742D01*
X018758Y010492D01*
X019008Y010242D01*
X019008Y009742D01*
X018758Y009492D01*
X019008Y009242D01*
X019008Y008742D01*
X018758Y008492D01*
X019008Y008242D01*
X019008Y007742D01*
X018758Y007492D01*
X018258Y007492D01*
X018008Y007742D01*
X018258Y008492D02*
X018758Y008492D01*
X018758Y009492D02*
X018258Y009492D01*
X018258Y010492D02*
X018758Y010492D01*
X018758Y012492D02*
X018258Y012492D01*
X018258Y013492D02*
X018758Y013492D01*
X018758Y015492D02*
X018258Y015492D01*
X012759Y017673D02*
X012509Y017423D01*
X012259Y017673D02*
X012509Y017923D01*
X012759Y017673D01*
X010609Y016823D02*
X010613Y016918D01*
X010626Y017013D01*
X010648Y017106D01*
X010678Y017197D01*
X010716Y017285D01*
X010762Y017369D01*
X010815Y017448D01*
X010876Y017522D01*
X010942Y017590D01*
X011015Y017652D01*
X011093Y017707D01*
X011176Y017755D01*
X011263Y017795D01*
X011353Y017827D01*
X011445Y017851D01*
X011540Y017866D01*
X011635Y017873D01*
X011731Y017871D01*
X011826Y017860D01*
X011919Y017840D01*
X012011Y017812D01*
X012099Y017776D01*
X012184Y017732D01*
X012265Y017681D01*
X012340Y017622D01*
X012410Y017557D01*
X012473Y017486D01*
X012530Y017409D01*
X012580Y017327D01*
X012622Y017241D01*
X012656Y017152D01*
X012682Y017060D01*
X012699Y016966D01*
X012708Y016871D01*
X012708Y016775D01*
X012699Y016680D01*
X012682Y016586D01*
X012656Y016494D01*
X012622Y016405D01*
X012580Y016319D01*
X012530Y016237D01*
X012473Y016160D01*
X012410Y016089D01*
X012340Y016024D01*
X012265Y015965D01*
X012184Y015914D01*
X012099Y015870D01*
X012011Y015834D01*
X011919Y015806D01*
X011826Y015786D01*
X011731Y015775D01*
X011635Y015773D01*
X011540Y015780D01*
X011445Y015795D01*
X011353Y015819D01*
X011263Y015851D01*
X011176Y015891D01*
X011093Y015939D01*
X011015Y015994D01*
X010942Y016056D01*
X010876Y016124D01*
X010815Y016198D01*
X010762Y016277D01*
X010716Y016361D01*
X010678Y016449D01*
X010648Y016540D01*
X010626Y016633D01*
X010613Y016728D01*
X010609Y016823D01*
X024025Y016250D02*
X024025Y015750D01*
X024275Y015500D01*
X024775Y015500D01*
X025025Y015750D01*
X025025Y016250D01*
X024775Y016500D01*
X024275Y016500D01*
X024025Y016250D01*
X024275Y015500D02*
X024025Y015250D01*
X024025Y014750D01*
X024275Y014500D01*
X024775Y014500D01*
X025025Y014750D01*
X025025Y015250D01*
X024775Y015500D01*
X024775Y014500D02*
X025025Y014250D01*
X025025Y013750D01*
X024775Y013500D01*
X025025Y013250D01*
X025025Y012750D01*
X024775Y012500D01*
X025025Y012250D01*
X025025Y011750D01*
X024775Y011500D01*
X025025Y011250D01*
X025025Y010750D01*
X024775Y010500D01*
X025025Y010250D01*
X025025Y009750D01*
X024775Y009500D01*
X025025Y009250D01*
X025025Y008750D01*
X024775Y008500D01*
X025025Y008250D01*
X025025Y007750D01*
X024775Y007500D01*
X024275Y007500D01*
X024025Y007750D01*
X024025Y008250D01*
X024275Y008500D01*
X024025Y008750D01*
X024025Y009250D01*
X024275Y009500D01*
X024775Y009500D01*
X024275Y009500D02*
X024025Y009750D01*
X024025Y010250D01*
X024275Y010500D01*
X024025Y010750D01*
X024025Y011250D01*
X024275Y011500D01*
X024025Y011750D01*
X024025Y012250D01*
X024275Y012500D01*
X024775Y012500D01*
X024275Y012500D02*
X024025Y012750D01*
X024025Y013250D01*
X024275Y013500D01*
X024025Y013750D01*
X024025Y014250D01*
X024275Y014500D01*
X024275Y013500D02*
X024775Y013500D01*
X024775Y011500D02*
X024275Y011500D01*
X024275Y010500D02*
X024775Y010500D01*
X024775Y008500D02*
X024275Y008500D01*
D16*
X010935Y016819D02*
X010985Y016819D01*
X010984Y016818D02*
X010986Y016768D01*
X010992Y016719D01*
X011001Y016671D01*
X011014Y016623D01*
X011031Y016576D01*
X011051Y016531D01*
X011074Y016487D01*
X011100Y016445D01*
X011129Y016405D01*
X011161Y016367D01*
X011196Y016332D01*
X011233Y016299D01*
X011273Y016269D01*
X011315Y016242D01*
X011290Y016200D01*
X011289Y016199D01*
X011245Y016228D01*
X011202Y016260D01*
X011162Y016295D01*
X011125Y016333D01*
X011090Y016374D01*
X011059Y016417D01*
X011030Y016462D01*
X011006Y016509D01*
X010984Y016558D01*
X010967Y016608D01*
X010953Y016660D01*
X010943Y016712D01*
X010936Y016765D01*
X010934Y016818D01*
X010943Y016818D01*
X010945Y016765D01*
X010951Y016713D01*
X010961Y016662D01*
X010975Y016611D01*
X010993Y016561D01*
X011014Y016513D01*
X011038Y016466D01*
X011066Y016422D01*
X011097Y016379D01*
X011131Y016339D01*
X011168Y016302D01*
X011208Y016267D01*
X011250Y016236D01*
X011294Y016207D01*
X011298Y016215D01*
X011255Y016243D01*
X011213Y016274D01*
X011174Y016308D01*
X011138Y016345D01*
X011104Y016385D01*
X011073Y016427D01*
X011046Y016471D01*
X011022Y016517D01*
X011001Y016564D01*
X010984Y016613D01*
X010970Y016664D01*
X010960Y016715D01*
X010954Y016766D01*
X010952Y016818D01*
X010961Y016818D01*
X010963Y016767D01*
X010969Y016716D01*
X010979Y016666D01*
X010992Y016616D01*
X011009Y016568D01*
X011030Y016521D01*
X011054Y016475D01*
X011081Y016432D01*
X011111Y016390D01*
X011144Y016351D01*
X011180Y016315D01*
X011219Y016281D01*
X011260Y016250D01*
X011303Y016223D01*
X011308Y016230D01*
X011265Y016258D01*
X011225Y016288D01*
X011187Y016322D01*
X011151Y016358D01*
X011118Y016396D01*
X011088Y016437D01*
X011062Y016480D01*
X011038Y016525D01*
X011018Y016571D01*
X011001Y016619D01*
X010988Y016668D01*
X010978Y016717D01*
X010972Y016767D01*
X010970Y016818D01*
X010979Y016818D01*
X010981Y016768D01*
X010987Y016719D01*
X010997Y016670D01*
X011010Y016621D01*
X011026Y016574D01*
X011046Y016528D01*
X011069Y016484D01*
X011096Y016442D01*
X011125Y016402D01*
X011158Y016364D01*
X011193Y016328D01*
X011230Y016295D01*
X011270Y016265D01*
X011312Y016238D01*
X011290Y017446D02*
X011315Y017403D01*
X011315Y017404D02*
X011273Y017377D01*
X011233Y017347D01*
X011196Y017314D01*
X011161Y017279D01*
X011129Y017241D01*
X011100Y017201D01*
X011074Y017159D01*
X011051Y017115D01*
X011031Y017070D01*
X011014Y017023D01*
X011001Y016975D01*
X010992Y016927D01*
X010986Y016878D01*
X010984Y016828D01*
X010935Y016827D01*
X010934Y016828D01*
X010936Y016881D01*
X010943Y016934D01*
X010953Y016986D01*
X010967Y017038D01*
X010984Y017088D01*
X011006Y017137D01*
X011030Y017184D01*
X011059Y017229D01*
X011090Y017272D01*
X011125Y017313D01*
X011162Y017351D01*
X011202Y017386D01*
X011245Y017418D01*
X011289Y017447D01*
X011294Y017439D01*
X011250Y017410D01*
X011208Y017379D01*
X011168Y017344D01*
X011131Y017307D01*
X011097Y017267D01*
X011066Y017224D01*
X011038Y017180D01*
X011014Y017133D01*
X010993Y017085D01*
X010975Y017035D01*
X010961Y016984D01*
X010951Y016933D01*
X010945Y016881D01*
X010943Y016828D01*
X010952Y016828D01*
X010954Y016880D01*
X010960Y016931D01*
X010970Y016982D01*
X010984Y017033D01*
X011001Y017082D01*
X011022Y017129D01*
X011046Y017175D01*
X011073Y017219D01*
X011104Y017261D01*
X011138Y017301D01*
X011174Y017338D01*
X011213Y017372D01*
X011255Y017403D01*
X011298Y017431D01*
X011303Y017423D01*
X011260Y017396D01*
X011219Y017365D01*
X011180Y017331D01*
X011144Y017295D01*
X011111Y017256D01*
X011081Y017214D01*
X011054Y017171D01*
X011030Y017125D01*
X011009Y017078D01*
X010992Y017030D01*
X010979Y016980D01*
X010969Y016930D01*
X010963Y016879D01*
X010961Y016828D01*
X010970Y016828D01*
X010972Y016879D01*
X010978Y016929D01*
X010988Y016978D01*
X011001Y017027D01*
X011018Y017075D01*
X011038Y017121D01*
X011062Y017166D01*
X011088Y017209D01*
X011118Y017250D01*
X011151Y017288D01*
X011187Y017324D01*
X011225Y017358D01*
X011265Y017388D01*
X011308Y017416D01*
X011312Y017408D01*
X011270Y017381D01*
X011230Y017351D01*
X011193Y017318D01*
X011158Y017282D01*
X011125Y017244D01*
X011096Y017204D01*
X011069Y017162D01*
X011046Y017118D01*
X011026Y017072D01*
X011010Y017025D01*
X010997Y016976D01*
X010987Y016927D01*
X010981Y016878D01*
X010979Y016828D01*
X012383Y016827D02*
X012333Y016827D01*
X012334Y016828D02*
X012332Y016878D01*
X012326Y016927D01*
X012317Y016975D01*
X012304Y017023D01*
X012287Y017070D01*
X012267Y017115D01*
X012244Y017159D01*
X012218Y017201D01*
X012189Y017241D01*
X012157Y017279D01*
X012122Y017314D01*
X012085Y017347D01*
X012045Y017377D01*
X012003Y017404D01*
X012028Y017446D01*
X012029Y017447D01*
X012073Y017418D01*
X012116Y017386D01*
X012156Y017351D01*
X012193Y017313D01*
X012228Y017272D01*
X012259Y017229D01*
X012288Y017184D01*
X012312Y017137D01*
X012334Y017088D01*
X012351Y017038D01*
X012365Y016986D01*
X012375Y016934D01*
X012382Y016881D01*
X012384Y016828D01*
X012375Y016828D01*
X012373Y016881D01*
X012367Y016933D01*
X012357Y016984D01*
X012343Y017035D01*
X012325Y017085D01*
X012304Y017133D01*
X012280Y017180D01*
X012252Y017224D01*
X012221Y017267D01*
X012187Y017307D01*
X012150Y017344D01*
X012110Y017379D01*
X012068Y017410D01*
X012024Y017439D01*
X012020Y017431D01*
X012063Y017403D01*
X012105Y017372D01*
X012144Y017338D01*
X012180Y017301D01*
X012214Y017261D01*
X012245Y017219D01*
X012272Y017175D01*
X012296Y017129D01*
X012317Y017082D01*
X012334Y017033D01*
X012348Y016982D01*
X012358Y016931D01*
X012364Y016880D01*
X012366Y016828D01*
X012357Y016828D01*
X012355Y016879D01*
X012349Y016930D01*
X012339Y016980D01*
X012326Y017030D01*
X012309Y017078D01*
X012288Y017125D01*
X012264Y017171D01*
X012237Y017214D01*
X012207Y017256D01*
X012174Y017295D01*
X012138Y017331D01*
X012099Y017365D01*
X012058Y017396D01*
X012015Y017423D01*
X012010Y017416D01*
X012053Y017388D01*
X012093Y017358D01*
X012131Y017324D01*
X012167Y017288D01*
X012200Y017250D01*
X012230Y017209D01*
X012256Y017166D01*
X012280Y017121D01*
X012300Y017075D01*
X012317Y017027D01*
X012330Y016978D01*
X012340Y016929D01*
X012346Y016879D01*
X012348Y016828D01*
X012339Y016828D01*
X012337Y016878D01*
X012331Y016927D01*
X012321Y016976D01*
X012308Y017025D01*
X012292Y017072D01*
X012272Y017118D01*
X012249Y017162D01*
X012222Y017204D01*
X012193Y017244D01*
X012160Y017282D01*
X012125Y017318D01*
X012088Y017351D01*
X012048Y017381D01*
X012006Y017408D01*
X012028Y016200D02*
X012003Y016243D01*
X012003Y016242D02*
X012045Y016269D01*
X012085Y016299D01*
X012122Y016332D01*
X012157Y016367D01*
X012189Y016405D01*
X012218Y016445D01*
X012244Y016487D01*
X012267Y016531D01*
X012287Y016576D01*
X012304Y016623D01*
X012317Y016671D01*
X012326Y016719D01*
X012332Y016768D01*
X012334Y016818D01*
X012383Y016819D01*
X012384Y016818D01*
X012382Y016765D01*
X012375Y016712D01*
X012365Y016660D01*
X012351Y016608D01*
X012334Y016558D01*
X012312Y016509D01*
X012288Y016462D01*
X012259Y016417D01*
X012228Y016374D01*
X012193Y016333D01*
X012156Y016295D01*
X012116Y016260D01*
X012073Y016228D01*
X012029Y016199D01*
X012024Y016207D01*
X012068Y016236D01*
X012110Y016267D01*
X012150Y016302D01*
X012187Y016339D01*
X012221Y016379D01*
X012252Y016422D01*
X012280Y016466D01*
X012304Y016513D01*
X012325Y016561D01*
X012343Y016611D01*
X012357Y016662D01*
X012367Y016713D01*
X012373Y016765D01*
X012375Y016818D01*
X012366Y016818D01*
X012364Y016766D01*
X012358Y016715D01*
X012348Y016664D01*
X012334Y016613D01*
X012317Y016564D01*
X012296Y016517D01*
X012272Y016471D01*
X012245Y016427D01*
X012214Y016385D01*
X012180Y016345D01*
X012144Y016308D01*
X012105Y016274D01*
X012063Y016243D01*
X012020Y016215D01*
X012015Y016223D01*
X012058Y016250D01*
X012099Y016281D01*
X012138Y016315D01*
X012174Y016351D01*
X012207Y016390D01*
X012237Y016432D01*
X012264Y016475D01*
X012288Y016521D01*
X012309Y016568D01*
X012326Y016616D01*
X012339Y016666D01*
X012349Y016716D01*
X012355Y016767D01*
X012357Y016818D01*
X012348Y016818D01*
X012346Y016767D01*
X012340Y016717D01*
X012330Y016668D01*
X012317Y016619D01*
X012300Y016571D01*
X012280Y016525D01*
X012256Y016480D01*
X012230Y016437D01*
X012200Y016396D01*
X012167Y016358D01*
X012131Y016322D01*
X012093Y016288D01*
X012053Y016258D01*
X012010Y016230D01*
X012006Y016238D01*
X012048Y016265D01*
X012088Y016295D01*
X012125Y016328D01*
X012160Y016364D01*
X012193Y016402D01*
X012222Y016442D01*
X012249Y016484D01*
X012272Y016528D01*
X012292Y016574D01*
X012308Y016621D01*
X012321Y016670D01*
X012331Y016719D01*
X012337Y016768D01*
X012339Y016818D01*
M02*
