G75*
G70*
%OFA0B0*%
%FSLAX24Y24*%
%IPPOS*%
%LPD*%
%AMOC8*
5,1,8,0,0,1.08239X$1,22.5*
%
%ADD10O,0.1200X0.0600*%
%ADD11O,0.0600X0.1200*%
%ADD12O,0.1040X0.0520*%
%ADD13C,0.0396*%
%ADD14C,0.0396*%
%ADD15C,0.0100*%
%ADD16C,0.0240*%
%ADD17C,0.0120*%
D10*
X004583Y008000D03*
X004583Y009000D03*
X004583Y010000D03*
X004583Y011000D03*
X004583Y012000D03*
X004583Y013000D03*
X004583Y014000D03*
X004583Y015000D03*
X004583Y016000D03*
X010599Y015992D03*
X010599Y014992D03*
X010599Y013992D03*
X010599Y012992D03*
X010599Y011992D03*
X010599Y010992D03*
X010599Y009992D03*
X010599Y008992D03*
X010599Y007992D03*
D11*
X014625Y005319D03*
X015625Y005319D03*
X018976Y004913D03*
X019976Y004913D03*
X025405Y004921D03*
X026405Y004921D03*
D12*
X017448Y016323D03*
X017448Y017323D03*
D13*
X016673Y015925D03*
X014625Y017401D03*
X014625Y019035D03*
X011751Y016181D03*
X012578Y015571D03*
X012814Y014941D03*
X012185Y014763D03*
X013940Y013807D03*
X014374Y014019D03*
X015314Y012756D03*
X015826Y012500D03*
X015842Y011842D03*
X014704Y011122D03*
X014192Y011968D03*
X013149Y012598D03*
X012814Y011830D03*
X011574Y013307D03*
X009665Y012244D03*
X009251Y011496D03*
X012027Y010354D03*
X012086Y008760D03*
X011476Y007086D03*
X009251Y008681D03*
X014173Y006712D03*
X015118Y007697D03*
X014881Y008996D03*
X014488Y009330D03*
X014527Y010059D03*
X015570Y009074D03*
X017440Y010137D03*
X017185Y011397D03*
X016161Y013386D03*
X016417Y014015D03*
X016830Y014291D03*
X017480Y014291D03*
X009901Y015492D03*
X009330Y014941D03*
X009940Y016574D03*
X016338Y006260D03*
X013582Y002401D03*
X014488Y001338D03*
D14*
X012421Y010630D03*
X012814Y011063D03*
D15*
X013228Y001252D02*
X000307Y001252D01*
X000307Y019476D01*
X028806Y019476D01*
X028806Y001252D01*
X014842Y001252D01*
X014842Y002657D01*
X025826Y002657D01*
X027401Y004212D01*
X027401Y016476D01*
X025807Y018051D01*
X003346Y018051D01*
X001751Y016437D01*
X001751Y004271D01*
X003346Y002657D01*
X013228Y002657D01*
X013228Y001252D01*
X013228Y001319D02*
X000307Y001319D01*
X000307Y001418D02*
X013228Y001418D01*
X013228Y001516D02*
X000307Y001516D01*
X000307Y001615D02*
X000958Y001615D01*
X000870Y001651D02*
X001084Y001562D01*
X001316Y001562D01*
X001531Y001651D01*
X001695Y001815D01*
X001783Y002029D01*
X001783Y002261D01*
X001695Y002476D01*
X001531Y002640D01*
X001316Y002728D01*
X001084Y002728D01*
X000870Y002640D01*
X000706Y002476D01*
X000617Y002261D01*
X000617Y002029D01*
X000706Y001815D01*
X000870Y001651D01*
X000808Y001713D02*
X000307Y001713D01*
X000307Y001812D02*
X000709Y001812D01*
X000667Y001910D02*
X000307Y001910D01*
X000307Y002009D02*
X000626Y002009D01*
X000617Y002108D02*
X000307Y002108D01*
X000307Y002206D02*
X000617Y002206D01*
X000635Y002305D02*
X000307Y002305D01*
X000307Y002403D02*
X000676Y002403D01*
X000732Y002502D02*
X000307Y002502D01*
X000307Y002600D02*
X000831Y002600D01*
X001013Y002699D02*
X000307Y002699D01*
X000307Y002797D02*
X003208Y002797D01*
X003305Y002699D02*
X001388Y002699D01*
X001570Y002600D02*
X013228Y002600D01*
X013228Y002502D02*
X001669Y002502D01*
X001725Y002403D02*
X013228Y002403D01*
X013228Y002305D02*
X001765Y002305D01*
X001783Y002206D02*
X013228Y002206D01*
X013228Y002108D02*
X001783Y002108D01*
X001775Y002009D02*
X013228Y002009D01*
X013228Y001910D02*
X001734Y001910D01*
X001691Y001812D02*
X013228Y001812D01*
X013228Y001713D02*
X001593Y001713D01*
X001443Y001615D02*
X013228Y001615D01*
X014842Y001615D02*
X027670Y001615D01*
X027583Y001651D02*
X027797Y001562D01*
X028029Y001562D01*
X028243Y001651D01*
X028407Y001815D01*
X028496Y002029D01*
X028496Y002261D01*
X028407Y002476D01*
X028243Y002640D01*
X028029Y002728D01*
X027797Y002728D01*
X027583Y002640D01*
X027419Y002476D01*
X027330Y002261D01*
X027330Y002029D01*
X027419Y001815D01*
X027583Y001651D01*
X027520Y001713D02*
X014842Y001713D01*
X014842Y001812D02*
X027422Y001812D01*
X027379Y001910D02*
X014842Y001910D01*
X014842Y002009D02*
X027338Y002009D01*
X027330Y002108D02*
X014842Y002108D01*
X014842Y002206D02*
X027330Y002206D01*
X027348Y002305D02*
X014842Y002305D01*
X014842Y002403D02*
X027389Y002403D01*
X027445Y002502D02*
X014842Y002502D01*
X014842Y002600D02*
X027543Y002600D01*
X027725Y002699D02*
X025868Y002699D01*
X025968Y002797D02*
X028806Y002797D01*
X028806Y002699D02*
X028100Y002699D01*
X028283Y002600D02*
X028806Y002600D01*
X028806Y002502D02*
X028381Y002502D01*
X028437Y002403D02*
X028806Y002403D01*
X028806Y002305D02*
X028478Y002305D01*
X028496Y002206D02*
X028806Y002206D01*
X028806Y002108D02*
X028496Y002108D01*
X028488Y002009D02*
X028806Y002009D01*
X028806Y001910D02*
X028447Y001910D01*
X028404Y001812D02*
X028806Y001812D01*
X028806Y001713D02*
X028305Y001713D01*
X028156Y001615D02*
X028806Y001615D01*
X028806Y001516D02*
X014842Y001516D01*
X014842Y001418D02*
X028806Y001418D01*
X028806Y001319D02*
X014842Y001319D01*
X014370Y004370D02*
X017972Y004370D01*
X017972Y005686D01*
X016216Y005686D01*
X016075Y005686D01*
X016075Y005369D01*
X015676Y005369D01*
X015675Y005369D02*
X015675Y006069D01*
X015684Y006069D01*
X015673Y006080D01*
X011354Y006080D01*
X011204Y006080D01*
X009492Y007792D01*
X009333Y007792D01*
X011279Y005846D01*
X012893Y005846D01*
X014370Y004370D01*
X014365Y004374D02*
X017972Y004374D01*
X017972Y004473D02*
X014267Y004473D01*
X014168Y004571D02*
X015437Y004571D01*
X015439Y004569D02*
X015176Y004832D01*
X015176Y005269D01*
X015575Y005269D01*
X015575Y005369D01*
X015576Y005369D02*
X015675Y005369D01*
X015676Y005369D02*
X015676Y005269D01*
X016075Y005269D01*
X016075Y004832D01*
X015812Y004569D01*
X015675Y004569D01*
X015675Y005268D01*
X015576Y005268D01*
X015576Y004569D01*
X015439Y004569D01*
X015576Y004571D02*
X015675Y004571D01*
X015675Y004670D02*
X015576Y004670D01*
X015576Y004768D02*
X015675Y004768D01*
X015675Y004867D02*
X015576Y004867D01*
X015576Y004965D02*
X015675Y004965D01*
X015675Y005064D02*
X015576Y005064D01*
X015576Y005162D02*
X015675Y005162D01*
X015675Y005261D02*
X015576Y005261D01*
X015575Y005359D02*
X015055Y005359D01*
X015055Y005261D02*
X015176Y005261D01*
X015176Y005162D02*
X015055Y005162D01*
X015055Y005064D02*
X015176Y005064D01*
X015176Y004965D02*
X015055Y004965D01*
X015055Y004867D02*
X015176Y004867D01*
X015239Y004768D02*
X014983Y004768D01*
X015055Y004840D02*
X014804Y004589D01*
X014447Y004589D01*
X014196Y004840D01*
X014196Y005797D01*
X014447Y006049D01*
X014804Y006049D01*
X015055Y005797D01*
X015055Y004840D01*
X014885Y004670D02*
X015338Y004670D01*
X015814Y004571D02*
X017972Y004571D01*
X017972Y004670D02*
X015913Y004670D01*
X016011Y004768D02*
X017972Y004768D01*
X017972Y004867D02*
X016075Y004867D01*
X016075Y004965D02*
X017972Y004965D01*
X017972Y005064D02*
X016075Y005064D01*
X016075Y005162D02*
X017972Y005162D01*
X017972Y005261D02*
X016075Y005261D01*
X016075Y005458D02*
X017972Y005458D01*
X017972Y005359D02*
X015676Y005359D01*
X015675Y005458D02*
X015576Y005458D01*
X015576Y005369D02*
X015576Y006069D01*
X015439Y006069D01*
X015176Y005805D01*
X015176Y005369D01*
X015575Y005369D01*
X015576Y005557D02*
X015675Y005557D01*
X015675Y005655D02*
X015576Y005655D01*
X015576Y005754D02*
X015675Y005754D01*
X015675Y005852D02*
X015576Y005852D01*
X015576Y005951D02*
X015675Y005951D01*
X015675Y006049D02*
X015576Y006049D01*
X015420Y006049D02*
X011076Y006049D01*
X011136Y006148D02*
X010977Y006148D01*
X011038Y006246D02*
X010879Y006246D01*
X010939Y006345D02*
X010780Y006345D01*
X010841Y006443D02*
X010682Y006443D01*
X010742Y006542D02*
X010583Y006542D01*
X010644Y006641D02*
X010485Y006641D01*
X010545Y006739D02*
X010386Y006739D01*
X010446Y006838D02*
X010288Y006838D01*
X010348Y006936D02*
X010189Y006936D01*
X010249Y007035D02*
X010090Y007035D01*
X010151Y007133D02*
X009992Y007133D01*
X010052Y007232D02*
X009893Y007232D01*
X009954Y007330D02*
X009795Y007330D01*
X009855Y007429D02*
X009696Y007429D01*
X009757Y007527D02*
X009598Y007527D01*
X009658Y007626D02*
X009499Y007626D01*
X009560Y007724D02*
X009401Y007724D01*
X009641Y008152D02*
X009869Y007924D01*
X009869Y008170D01*
X010121Y008422D01*
X011077Y008422D01*
X011327Y008172D01*
X014413Y008172D01*
X014909Y008668D01*
X014816Y008668D01*
X014696Y008718D01*
X014603Y008810D01*
X014601Y008816D01*
X012267Y008816D01*
X012162Y008921D01*
X011756Y009328D01*
X011171Y009328D01*
X011329Y009170D01*
X011329Y008814D01*
X011077Y008562D01*
X010121Y008562D01*
X009869Y008814D01*
X009869Y009049D01*
X009367Y009551D01*
X009367Y009700D01*
X009367Y010968D01*
X009367Y011118D01*
X009715Y011466D01*
X009256Y011926D01*
X009150Y012031D01*
X009150Y014660D01*
X009144Y014662D01*
X009055Y014752D01*
X009055Y008152D01*
X009169Y008152D01*
X009247Y008152D01*
X009492Y008152D01*
X009641Y008152D01*
X009674Y008119D02*
X009869Y008119D01*
X009869Y008020D02*
X009773Y008020D01*
X009566Y007972D02*
X009094Y007972D01*
X004566Y007972D01*
X004566Y007984D01*
X004583Y008000D01*
X001751Y008020D02*
X000307Y008020D01*
X000307Y007922D02*
X001751Y007922D01*
X001751Y007823D02*
X000307Y007823D01*
X000307Y007724D02*
X001751Y007724D01*
X001751Y007626D02*
X000307Y007626D01*
X000307Y007527D02*
X001751Y007527D01*
X001751Y007429D02*
X000307Y007429D01*
X000307Y007330D02*
X001751Y007330D01*
X001751Y007232D02*
X000307Y007232D01*
X000307Y007133D02*
X001751Y007133D01*
X001751Y007035D02*
X000307Y007035D01*
X000307Y006936D02*
X001751Y006936D01*
X001751Y006838D02*
X000307Y006838D01*
X000307Y006739D02*
X001751Y006739D01*
X001751Y006641D02*
X000307Y006641D01*
X000307Y006542D02*
X001751Y006542D01*
X001751Y006443D02*
X000307Y006443D01*
X000307Y006345D02*
X001751Y006345D01*
X001751Y006246D02*
X000307Y006246D01*
X000307Y006148D02*
X001751Y006148D01*
X001751Y006049D02*
X000307Y006049D01*
X000307Y005951D02*
X001751Y005951D01*
X001751Y005852D02*
X000307Y005852D01*
X000307Y005754D02*
X001751Y005754D01*
X001751Y005655D02*
X000307Y005655D01*
X000307Y005557D02*
X001751Y005557D01*
X001751Y005458D02*
X000307Y005458D01*
X000307Y005359D02*
X001751Y005359D01*
X001751Y005261D02*
X000307Y005261D01*
X000307Y005162D02*
X001751Y005162D01*
X001751Y005064D02*
X000307Y005064D01*
X000307Y004965D02*
X001751Y004965D01*
X001751Y004867D02*
X000307Y004867D01*
X000307Y004768D02*
X001751Y004768D01*
X001751Y004670D02*
X000307Y004670D01*
X000307Y004571D02*
X001751Y004571D01*
X001751Y004473D02*
X000307Y004473D01*
X000307Y004374D02*
X001751Y004374D01*
X001751Y004275D02*
X000307Y004275D01*
X000307Y004177D02*
X001845Y004177D01*
X001942Y004078D02*
X000307Y004078D01*
X000307Y003980D02*
X002039Y003980D01*
X002137Y003881D02*
X000307Y003881D01*
X000307Y003783D02*
X002234Y003783D01*
X002331Y003684D02*
X000307Y003684D01*
X000307Y003586D02*
X002429Y003586D01*
X002526Y003487D02*
X000307Y003487D01*
X000307Y003389D02*
X002623Y003389D01*
X002721Y003290D02*
X000307Y003290D01*
X000307Y003191D02*
X002818Y003191D01*
X002915Y003093D02*
X000307Y003093D01*
X000307Y002994D02*
X003013Y002994D01*
X003110Y002896D02*
X000307Y002896D01*
X000307Y008119D02*
X001751Y008119D01*
X001751Y008217D02*
X000307Y008217D01*
X000307Y008316D02*
X001751Y008316D01*
X001751Y008414D02*
X000307Y008414D01*
X000307Y008513D02*
X001751Y008513D01*
X001751Y008611D02*
X000307Y008611D01*
X000307Y008710D02*
X001751Y008710D01*
X001751Y008808D02*
X000307Y008808D01*
X000307Y008907D02*
X001751Y008907D01*
X001751Y009006D02*
X000307Y009006D01*
X000307Y009104D02*
X001751Y009104D01*
X001751Y009203D02*
X000307Y009203D01*
X000307Y009301D02*
X001751Y009301D01*
X001751Y009400D02*
X000307Y009400D01*
X000307Y009498D02*
X001751Y009498D01*
X001751Y009597D02*
X000307Y009597D01*
X000307Y009695D02*
X001751Y009695D01*
X001751Y009794D02*
X000307Y009794D01*
X000307Y009892D02*
X001751Y009892D01*
X001751Y009991D02*
X000307Y009991D01*
X000307Y010090D02*
X001751Y010090D01*
X001751Y010188D02*
X000307Y010188D01*
X000307Y010287D02*
X001751Y010287D01*
X001751Y010385D02*
X000307Y010385D01*
X000307Y010484D02*
X001751Y010484D01*
X001751Y010582D02*
X000307Y010582D01*
X000307Y010681D02*
X001751Y010681D01*
X001751Y010779D02*
X000307Y010779D01*
X000307Y010878D02*
X001751Y010878D01*
X001751Y010976D02*
X000307Y010976D01*
X000307Y011075D02*
X001751Y011075D01*
X001751Y011174D02*
X000307Y011174D01*
X000307Y011272D02*
X001751Y011272D01*
X001751Y011371D02*
X000307Y011371D01*
X000307Y011469D02*
X001751Y011469D01*
X001751Y011568D02*
X000307Y011568D01*
X000307Y011666D02*
X001751Y011666D01*
X001751Y011765D02*
X000307Y011765D01*
X000307Y011863D02*
X001751Y011863D01*
X001751Y011962D02*
X000307Y011962D01*
X000307Y012060D02*
X001751Y012060D01*
X001751Y012159D02*
X000307Y012159D01*
X000307Y012257D02*
X001751Y012257D01*
X001751Y012356D02*
X000307Y012356D01*
X000307Y012455D02*
X001751Y012455D01*
X001751Y012553D02*
X000307Y012553D01*
X000307Y012652D02*
X001751Y012652D01*
X001751Y012750D02*
X000307Y012750D01*
X000307Y012849D02*
X001751Y012849D01*
X001751Y012947D02*
X000307Y012947D01*
X000307Y013046D02*
X001751Y013046D01*
X001751Y013144D02*
X000307Y013144D01*
X000307Y013243D02*
X001751Y013243D01*
X001751Y013341D02*
X000307Y013341D01*
X000307Y013440D02*
X001751Y013440D01*
X001751Y013539D02*
X000307Y013539D01*
X000307Y013637D02*
X001751Y013637D01*
X001751Y013736D02*
X000307Y013736D01*
X000307Y013834D02*
X001751Y013834D01*
X001751Y013933D02*
X000307Y013933D01*
X000307Y014031D02*
X001751Y014031D01*
X001751Y014130D02*
X000307Y014130D01*
X000307Y014228D02*
X001751Y014228D01*
X001751Y014327D02*
X000307Y014327D01*
X000307Y014425D02*
X001751Y014425D01*
X001751Y014524D02*
X000307Y014524D01*
X000307Y014623D02*
X001751Y014623D01*
X001751Y014721D02*
X000307Y014721D01*
X000307Y014820D02*
X001751Y014820D01*
X001751Y014918D02*
X000307Y014918D01*
X000307Y015017D02*
X001751Y015017D01*
X001751Y015115D02*
X000307Y015115D01*
X000307Y015214D02*
X001751Y015214D01*
X001751Y015312D02*
X000307Y015312D01*
X000307Y015411D02*
X001751Y015411D01*
X001751Y015509D02*
X000307Y015509D01*
X000307Y015608D02*
X001751Y015608D01*
X001751Y015706D02*
X000307Y015706D01*
X000307Y015805D02*
X001751Y015805D01*
X001751Y015904D02*
X000307Y015904D01*
X000307Y016002D02*
X001751Y016002D01*
X001751Y016101D02*
X000307Y016101D01*
X000307Y016199D02*
X001751Y016199D01*
X001751Y016298D02*
X000307Y016298D01*
X000307Y016396D02*
X001751Y016396D01*
X001809Y016495D02*
X000307Y016495D01*
X000307Y016593D02*
X001906Y016593D01*
X002004Y016692D02*
X000307Y016692D01*
X000307Y016790D02*
X002101Y016790D01*
X002198Y016889D02*
X000307Y016889D01*
X000307Y016988D02*
X002296Y016988D01*
X002393Y017086D02*
X000307Y017086D01*
X000307Y017185D02*
X002490Y017185D01*
X002588Y017283D02*
X000307Y017283D01*
X000307Y017382D02*
X002685Y017382D01*
X002782Y017480D02*
X000307Y017480D01*
X000307Y017579D02*
X002880Y017579D01*
X002977Y017677D02*
X000307Y017677D01*
X000307Y017776D02*
X003074Y017776D01*
X003172Y017874D02*
X000307Y017874D01*
X000307Y017973D02*
X003269Y017973D01*
X001783Y018466D02*
X027330Y018466D01*
X027330Y018698D01*
X027419Y018913D01*
X027583Y019077D01*
X027797Y019165D01*
X028029Y019165D01*
X028243Y019077D01*
X028407Y018913D01*
X028496Y018698D01*
X028496Y018466D01*
X028806Y018466D01*
X028806Y018564D02*
X028496Y018564D01*
X028496Y018466D02*
X028407Y018252D01*
X028243Y018088D01*
X028029Y017999D01*
X027797Y017999D01*
X027583Y018088D01*
X027419Y018252D01*
X027330Y018466D01*
X027330Y018564D02*
X001783Y018564D01*
X001783Y018466D02*
X001783Y018698D01*
X001695Y018913D01*
X001531Y019077D01*
X001316Y019165D01*
X001084Y019165D01*
X000870Y019077D01*
X000706Y018913D01*
X000617Y018698D01*
X000617Y018466D01*
X000706Y018252D01*
X000870Y018088D01*
X001084Y017999D01*
X001316Y017999D01*
X001531Y018088D01*
X001695Y018252D01*
X001783Y018466D01*
X001742Y018367D02*
X027371Y018367D01*
X027412Y018269D02*
X001701Y018269D01*
X001613Y018170D02*
X027501Y018170D01*
X027623Y018072D02*
X001491Y018072D01*
X000910Y018072D02*
X000307Y018072D01*
X000307Y018170D02*
X000788Y018170D01*
X000699Y018269D02*
X000307Y018269D01*
X000307Y018367D02*
X000658Y018367D01*
X000618Y018466D02*
X000307Y018466D01*
X000307Y018564D02*
X000617Y018564D01*
X000617Y018663D02*
X000307Y018663D01*
X000307Y018761D02*
X000643Y018761D01*
X000684Y018860D02*
X000307Y018860D01*
X000307Y018958D02*
X000752Y018958D01*
X000850Y019057D02*
X000307Y019057D01*
X000307Y019156D02*
X001060Y019156D01*
X001340Y019156D02*
X027773Y019156D01*
X027563Y019057D02*
X001550Y019057D01*
X001649Y018958D02*
X027464Y018958D01*
X027397Y018860D02*
X001716Y018860D01*
X001757Y018761D02*
X027356Y018761D01*
X027330Y018663D02*
X001783Y018663D01*
X000307Y019254D02*
X028806Y019254D01*
X028806Y019156D02*
X028053Y019156D01*
X028263Y019057D02*
X028806Y019057D01*
X028806Y018958D02*
X028361Y018958D01*
X028429Y018860D02*
X028806Y018860D01*
X028806Y018761D02*
X028470Y018761D01*
X028496Y018663D02*
X028806Y018663D01*
X028806Y018367D02*
X028455Y018367D01*
X028414Y018269D02*
X028806Y018269D01*
X028806Y018170D02*
X028325Y018170D01*
X028203Y018072D02*
X028806Y018072D01*
X028806Y017973D02*
X025885Y017973D01*
X025985Y017874D02*
X028806Y017874D01*
X028806Y017776D02*
X026085Y017776D01*
X026185Y017677D02*
X028806Y017677D01*
X028806Y017579D02*
X026284Y017579D01*
X026384Y017480D02*
X028806Y017480D01*
X028806Y017382D02*
X026484Y017382D01*
X026584Y017283D02*
X028806Y017283D01*
X028806Y017185D02*
X026684Y017185D01*
X026783Y017086D02*
X028806Y017086D01*
X028806Y016988D02*
X026883Y016988D01*
X026983Y016889D02*
X028806Y016889D01*
X028806Y016790D02*
X027083Y016790D01*
X027182Y016692D02*
X028806Y016692D01*
X028806Y016593D02*
X027282Y016593D01*
X027382Y016495D02*
X028806Y016495D01*
X028806Y016396D02*
X027401Y016396D01*
X027401Y016298D02*
X028806Y016298D01*
X028806Y016199D02*
X027401Y016199D01*
X027401Y016101D02*
X028806Y016101D01*
X028806Y016002D02*
X027401Y016002D01*
X027401Y015904D02*
X028806Y015904D01*
X028806Y015805D02*
X027401Y015805D01*
X027401Y015706D02*
X028806Y015706D01*
X028806Y015608D02*
X027401Y015608D01*
X027401Y015509D02*
X028806Y015509D01*
X028806Y015411D02*
X027401Y015411D01*
X027401Y015312D02*
X028806Y015312D01*
X028806Y015214D02*
X027401Y015214D01*
X027401Y015115D02*
X028806Y015115D01*
X028806Y015017D02*
X027401Y015017D01*
X027401Y014918D02*
X028806Y014918D01*
X028806Y014820D02*
X027401Y014820D01*
X027401Y014721D02*
X028806Y014721D01*
X028806Y014623D02*
X027401Y014623D01*
X027401Y014524D02*
X028806Y014524D01*
X028806Y014425D02*
X027401Y014425D01*
X027401Y014327D02*
X028806Y014327D01*
X028806Y014228D02*
X027401Y014228D01*
X027401Y014130D02*
X028806Y014130D01*
X028806Y014031D02*
X027401Y014031D01*
X027401Y013933D02*
X028806Y013933D01*
X028806Y013834D02*
X027401Y013834D01*
X027401Y013736D02*
X028806Y013736D01*
X028806Y013637D02*
X027401Y013637D01*
X027401Y013539D02*
X028806Y013539D01*
X028806Y013440D02*
X027401Y013440D01*
X027401Y013341D02*
X028806Y013341D01*
X028806Y013243D02*
X027401Y013243D01*
X027401Y013144D02*
X028806Y013144D01*
X028806Y013046D02*
X027401Y013046D01*
X027401Y012947D02*
X028806Y012947D01*
X028806Y012849D02*
X027401Y012849D01*
X027401Y012750D02*
X028806Y012750D01*
X028806Y012652D02*
X027401Y012652D01*
X027401Y012553D02*
X028806Y012553D01*
X028806Y012455D02*
X027401Y012455D01*
X027401Y012356D02*
X028806Y012356D01*
X028806Y012257D02*
X027401Y012257D01*
X027401Y012159D02*
X028806Y012159D01*
X028806Y012060D02*
X027401Y012060D01*
X027401Y011962D02*
X028806Y011962D01*
X028806Y011863D02*
X027401Y011863D01*
X027401Y011765D02*
X028806Y011765D01*
X028806Y011666D02*
X027401Y011666D01*
X027401Y011568D02*
X028806Y011568D01*
X028806Y011469D02*
X027401Y011469D01*
X027401Y011371D02*
X028806Y011371D01*
X028806Y011272D02*
X027401Y011272D01*
X027401Y011174D02*
X028806Y011174D01*
X028806Y011075D02*
X027401Y011075D01*
X027401Y010976D02*
X028806Y010976D01*
X028806Y010878D02*
X027401Y010878D01*
X027401Y010779D02*
X028806Y010779D01*
X028806Y010681D02*
X027401Y010681D01*
X027401Y010582D02*
X028806Y010582D01*
X028806Y010484D02*
X027401Y010484D01*
X027401Y010385D02*
X028806Y010385D01*
X028806Y010287D02*
X027401Y010287D01*
X027401Y010188D02*
X028806Y010188D01*
X028806Y010090D02*
X027401Y010090D01*
X027401Y009991D02*
X028806Y009991D01*
X028806Y009892D02*
X027401Y009892D01*
X027401Y009794D02*
X028806Y009794D01*
X028806Y009695D02*
X027401Y009695D01*
X027401Y009597D02*
X028806Y009597D01*
X028806Y009498D02*
X027401Y009498D01*
X027401Y009400D02*
X028806Y009400D01*
X028806Y009301D02*
X027401Y009301D01*
X027401Y009203D02*
X028806Y009203D01*
X028806Y009104D02*
X027401Y009104D01*
X027401Y009006D02*
X028806Y009006D01*
X028806Y008907D02*
X027401Y008907D01*
X027401Y008808D02*
X028806Y008808D01*
X028806Y008710D02*
X027401Y008710D01*
X027401Y008611D02*
X028806Y008611D01*
X028806Y008513D02*
X027401Y008513D01*
X027401Y008414D02*
X028806Y008414D01*
X028806Y008316D02*
X027401Y008316D01*
X027401Y008217D02*
X028806Y008217D01*
X028806Y008119D02*
X027401Y008119D01*
X027401Y008020D02*
X028806Y008020D01*
X028806Y007922D02*
X027401Y007922D01*
X027401Y007823D02*
X028806Y007823D01*
X028806Y007724D02*
X027401Y007724D01*
X027401Y007626D02*
X028806Y007626D01*
X028806Y007527D02*
X027401Y007527D01*
X027401Y007429D02*
X028806Y007429D01*
X028806Y007330D02*
X027401Y007330D01*
X027401Y007232D02*
X028806Y007232D01*
X028806Y007133D02*
X027401Y007133D01*
X027401Y007035D02*
X028806Y007035D01*
X028806Y006936D02*
X027401Y006936D01*
X027401Y006838D02*
X028806Y006838D01*
X028806Y006739D02*
X027401Y006739D01*
X027401Y006641D02*
X028806Y006641D01*
X028806Y006542D02*
X027401Y006542D01*
X027401Y006443D02*
X028806Y006443D01*
X028806Y006345D02*
X027401Y006345D01*
X027401Y006246D02*
X028806Y006246D01*
X028806Y006148D02*
X027401Y006148D01*
X027401Y006049D02*
X028806Y006049D01*
X028806Y005951D02*
X027401Y005951D01*
X027401Y005852D02*
X028806Y005852D01*
X028806Y005754D02*
X027401Y005754D01*
X027401Y005655D02*
X028806Y005655D01*
X028806Y005557D02*
X027401Y005557D01*
X027401Y005458D02*
X028806Y005458D01*
X028806Y005359D02*
X027401Y005359D01*
X027401Y005261D02*
X028806Y005261D01*
X028806Y005162D02*
X027401Y005162D01*
X027401Y005064D02*
X028806Y005064D01*
X028806Y004965D02*
X027401Y004965D01*
X027401Y004867D02*
X028806Y004867D01*
X028806Y004768D02*
X027401Y004768D01*
X027401Y004670D02*
X028806Y004670D01*
X028806Y004571D02*
X027401Y004571D01*
X027401Y004473D02*
X028806Y004473D01*
X028806Y004374D02*
X027401Y004374D01*
X027401Y004275D02*
X028806Y004275D01*
X028806Y004177D02*
X027365Y004177D01*
X027265Y004078D02*
X028806Y004078D01*
X028806Y003980D02*
X027166Y003980D01*
X027066Y003881D02*
X028806Y003881D01*
X028806Y003783D02*
X026966Y003783D01*
X026866Y003684D02*
X028806Y003684D01*
X028806Y003586D02*
X026767Y003586D01*
X026667Y003487D02*
X028806Y003487D01*
X028806Y003389D02*
X026567Y003389D01*
X026467Y003290D02*
X028806Y003290D01*
X028806Y003191D02*
X026367Y003191D01*
X026268Y003093D02*
X028806Y003093D01*
X028806Y002994D02*
X026168Y002994D01*
X026068Y002896D02*
X028806Y002896D01*
X026417Y004921D02*
X026417Y005590D01*
X025905Y006102D01*
X017559Y006102D01*
X017972Y006148D02*
X016114Y006148D01*
X016212Y006049D02*
X017972Y006049D01*
X017972Y006046D02*
X017972Y016006D01*
X017878Y015913D01*
X017478Y015913D01*
X017478Y016292D01*
X017418Y016292D01*
X017418Y015913D01*
X017019Y015913D01*
X016778Y016153D01*
X016778Y016292D01*
X017418Y016292D01*
X017418Y016353D01*
X017478Y016353D01*
X017478Y016732D01*
X017878Y016732D01*
X017972Y016639D01*
X017972Y016771D01*
X017144Y016771D01*
X017105Y016732D01*
X017418Y016732D01*
X017418Y016353D01*
X016778Y016353D01*
X016778Y016406D01*
X015813Y015441D01*
X015813Y015437D01*
X015708Y015331D01*
X015704Y015331D01*
X015555Y015331D01*
X012803Y015331D01*
X012764Y015292D01*
X012644Y015242D01*
X012513Y015242D01*
X012392Y015292D01*
X012300Y015385D01*
X012250Y015505D01*
X012250Y015636D01*
X012300Y015756D01*
X012392Y015849D01*
X012513Y015899D01*
X012644Y015899D01*
X012764Y015849D01*
X012856Y015756D01*
X012883Y015691D01*
X015555Y015691D01*
X016635Y016771D01*
X009055Y016771D01*
X009055Y015129D01*
X009144Y015219D01*
X009265Y015269D01*
X009396Y015269D01*
X009516Y015219D01*
X009608Y015126D01*
X009658Y015006D01*
X009658Y014875D01*
X009608Y014755D01*
X009516Y014662D01*
X009510Y014660D01*
X009510Y014157D01*
X009590Y014238D01*
X010018Y014665D01*
X009869Y014814D01*
X009869Y015170D01*
X010121Y015422D01*
X011077Y015422D01*
X011329Y015170D01*
X011329Y014989D01*
X011571Y015232D01*
X011571Y015900D01*
X011566Y015903D01*
X011473Y015995D01*
X011423Y016115D01*
X011423Y016246D01*
X011473Y016367D01*
X011566Y016459D01*
X011686Y016509D01*
X011817Y016509D01*
X011937Y016459D01*
X012030Y016367D01*
X012080Y016246D01*
X012080Y016115D01*
X012030Y015995D01*
X011937Y015903D01*
X011931Y015900D01*
X011931Y015232D01*
X011931Y015083D01*
X011174Y014325D01*
X011329Y014170D01*
X011329Y013814D01*
X011077Y013562D01*
X010121Y013562D01*
X009869Y013814D01*
X009869Y014007D01*
X009845Y013983D01*
X009845Y012524D01*
X009851Y012522D01*
X009943Y012430D01*
X009993Y012309D01*
X009993Y012294D01*
X010121Y012422D01*
X011077Y012422D01*
X011329Y012170D01*
X011329Y011814D01*
X011152Y011636D01*
X011323Y011636D01*
X011697Y012010D01*
X011846Y012010D01*
X012534Y012010D01*
X012536Y012016D01*
X012629Y012109D01*
X012749Y012158D01*
X012880Y012158D01*
X013000Y012109D01*
X013037Y012072D01*
X013037Y012289D01*
X012963Y012320D01*
X012871Y012412D01*
X012821Y012533D01*
X012821Y012663D01*
X012871Y012784D01*
X012899Y012812D01*
X012899Y012908D01*
X012899Y013115D01*
X012899Y013695D01*
X012159Y014435D01*
X012119Y014435D01*
X011999Y014485D01*
X011906Y014578D01*
X011856Y014698D01*
X011856Y014829D01*
X011906Y014949D01*
X011999Y015042D01*
X012119Y015092D01*
X012250Y015092D01*
X012370Y015042D01*
X012463Y014949D01*
X012513Y014829D01*
X012513Y014789D01*
X013399Y013902D01*
X013399Y013695D01*
X013399Y013615D01*
X013612Y013828D01*
X013612Y013872D01*
X013662Y013993D01*
X013755Y014085D01*
X013875Y014135D01*
X014006Y014135D01*
X014126Y014085D01*
X014219Y013993D01*
X014269Y013872D01*
X014269Y013741D01*
X014219Y013621D01*
X014126Y013529D01*
X014006Y013479D01*
X013970Y013479D01*
X013399Y012908D01*
X013399Y012812D01*
X013427Y012784D01*
X013477Y012663D01*
X013477Y012623D01*
X013537Y012564D01*
X013537Y011746D01*
X014325Y011746D01*
X014522Y011943D01*
X014542Y011962D01*
X015064Y012485D01*
X015064Y012542D01*
X015036Y012570D01*
X014986Y012690D01*
X014986Y012821D01*
X015036Y012941D01*
X015129Y013034D01*
X015249Y013084D01*
X015289Y013084D01*
X015408Y013202D01*
X015615Y013202D01*
X015624Y013202D01*
X015833Y013411D01*
X015833Y013451D01*
X015883Y013571D01*
X015975Y013664D01*
X016096Y013714D01*
X016226Y013714D01*
X016347Y013664D01*
X016439Y013571D01*
X016489Y013451D01*
X016489Y013417D01*
X016650Y013578D01*
X016650Y014010D01*
X016644Y014013D01*
X016552Y014105D01*
X016502Y014226D01*
X016502Y014356D01*
X016552Y014477D01*
X016644Y014569D01*
X016765Y014619D01*
X016896Y014619D01*
X017016Y014569D01*
X017108Y014477D01*
X017155Y014364D01*
X017202Y014477D01*
X017294Y014569D01*
X017415Y014619D01*
X017545Y014619D01*
X017666Y014569D01*
X017758Y014477D01*
X017808Y014356D01*
X017808Y014226D01*
X017758Y014105D01*
X017666Y014013D01*
X017660Y014010D01*
X017660Y013558D01*
X017660Y013409D01*
X016167Y011916D01*
X016170Y011907D01*
X016170Y011777D01*
X016120Y011656D01*
X016028Y011564D01*
X015907Y011514D01*
X015777Y011514D01*
X015771Y011517D01*
X015750Y011496D01*
X015750Y009759D01*
X015750Y009610D01*
X015645Y009505D01*
X013488Y009505D01*
X013383Y009610D01*
X012624Y010369D01*
X012607Y010352D01*
X012486Y010302D01*
X012356Y010302D01*
X012235Y010352D01*
X012143Y010444D01*
X012093Y010564D01*
X012093Y010695D01*
X012143Y010815D01*
X012235Y010908D01*
X012356Y010958D01*
X012486Y010958D01*
X012507Y010949D01*
X012486Y010997D01*
X012486Y011128D01*
X012536Y011248D01*
X012629Y011341D01*
X012749Y011391D01*
X012805Y011391D01*
X012942Y011528D01*
X012880Y011502D01*
X012749Y011502D01*
X012629Y011552D01*
X012536Y011645D01*
X012534Y011650D01*
X011846Y011650D01*
X011577Y011382D01*
X011472Y011276D01*
X011223Y011276D01*
X011329Y011170D01*
X011329Y010814D01*
X011077Y010562D01*
X010121Y010562D01*
X009996Y010687D01*
X009963Y010653D01*
X009963Y010264D01*
X010121Y010422D01*
X011077Y010422D01*
X011329Y010170D01*
X011329Y009814D01*
X011203Y009688D01*
X011756Y009688D01*
X011905Y009688D01*
X012417Y009176D01*
X014601Y009176D01*
X014603Y009182D01*
X014696Y009274D01*
X014816Y009324D01*
X014947Y009324D01*
X015067Y009274D01*
X015160Y009182D01*
X015209Y009061D01*
X015209Y008968D01*
X015245Y009003D01*
X015242Y009009D01*
X015242Y009140D01*
X015292Y009260D01*
X015385Y009353D01*
X015505Y009403D01*
X015636Y009403D01*
X015756Y009353D01*
X015849Y009260D01*
X015898Y009140D01*
X015898Y009009D01*
X015849Y008889D01*
X015756Y008796D01*
X015636Y008746D01*
X015505Y008746D01*
X015499Y008749D01*
X014668Y007917D01*
X014562Y007812D01*
X011327Y007812D01*
X011077Y007562D01*
X010231Y007562D01*
X011354Y006439D01*
X015822Y006439D01*
X015928Y006334D01*
X016216Y006046D01*
X017972Y006046D01*
X017972Y006246D02*
X016015Y006246D01*
X015917Y006345D02*
X017972Y006345D01*
X017972Y006443D02*
X011350Y006443D01*
X011251Y006542D02*
X017972Y006542D01*
X017972Y006641D02*
X011153Y006641D01*
X011054Y006739D02*
X017972Y006739D01*
X017972Y006838D02*
X010955Y006838D01*
X010857Y006936D02*
X017972Y006936D01*
X017972Y007035D02*
X010758Y007035D01*
X010660Y007133D02*
X017972Y007133D01*
X017972Y007232D02*
X010561Y007232D01*
X010463Y007330D02*
X017972Y007330D01*
X017972Y007429D02*
X010364Y007429D01*
X010266Y007527D02*
X017972Y007527D01*
X017972Y007626D02*
X011141Y007626D01*
X011240Y007724D02*
X017972Y007724D01*
X017972Y007823D02*
X014573Y007823D01*
X014672Y007922D02*
X017972Y007922D01*
X017972Y008020D02*
X014771Y008020D01*
X014869Y008119D02*
X017972Y008119D01*
X017972Y008217D02*
X014968Y008217D01*
X015066Y008316D02*
X017972Y008316D01*
X017972Y008414D02*
X015165Y008414D01*
X015263Y008513D02*
X017972Y008513D01*
X017972Y008611D02*
X015362Y008611D01*
X015460Y008710D02*
X017972Y008710D01*
X017972Y008808D02*
X015768Y008808D01*
X015856Y008907D02*
X017972Y008907D01*
X017972Y009006D02*
X015897Y009006D01*
X015898Y009104D02*
X017972Y009104D01*
X017972Y009203D02*
X015872Y009203D01*
X015808Y009301D02*
X017972Y009301D01*
X017972Y009400D02*
X015642Y009400D01*
X015498Y009400D02*
X012193Y009400D01*
X012291Y009301D02*
X014761Y009301D01*
X014624Y009203D02*
X012390Y009203D01*
X012342Y008996D02*
X014881Y008996D01*
X015001Y009301D02*
X015333Y009301D01*
X015268Y009203D02*
X015138Y009203D01*
X015192Y009104D02*
X015242Y009104D01*
X015244Y009006D02*
X015209Y009006D01*
X015570Y009074D02*
X014488Y007992D01*
X010599Y007992D01*
X010114Y008414D02*
X009055Y008414D01*
X009055Y008316D02*
X010015Y008316D01*
X009916Y008217D02*
X009055Y008217D01*
X009094Y007972D02*
X009173Y007972D01*
X009566Y007972D02*
X011279Y006260D01*
X015748Y006260D01*
X016141Y005866D01*
X025078Y005866D01*
X025413Y005531D01*
X025413Y004921D01*
X025405Y004921D01*
X026405Y004921D02*
X026417Y004921D01*
X017972Y005557D02*
X016075Y005557D01*
X016075Y005655D02*
X017972Y005655D01*
X015321Y005951D02*
X014901Y005951D01*
X015000Y005852D02*
X015223Y005852D01*
X015176Y005754D02*
X015055Y005754D01*
X015055Y005655D02*
X015176Y005655D01*
X015176Y005557D02*
X015055Y005557D01*
X015055Y005458D02*
X015176Y005458D01*
X014350Y005951D02*
X011174Y005951D01*
X011273Y005852D02*
X014251Y005852D01*
X014196Y005754D02*
X012986Y005754D01*
X013084Y005655D02*
X014196Y005655D01*
X014196Y005557D02*
X013183Y005557D01*
X013281Y005458D02*
X014196Y005458D01*
X014196Y005359D02*
X013380Y005359D01*
X013478Y005261D02*
X014196Y005261D01*
X014196Y005162D02*
X013577Y005162D01*
X013676Y005064D02*
X014196Y005064D01*
X014196Y004965D02*
X013774Y004965D01*
X013873Y004867D02*
X014196Y004867D01*
X014268Y004768D02*
X013971Y004768D01*
X014070Y004670D02*
X014366Y004670D01*
X014459Y008217D02*
X011282Y008217D01*
X011183Y008316D02*
X014557Y008316D01*
X014656Y008414D02*
X011085Y008414D01*
X011127Y008611D02*
X014853Y008611D01*
X014754Y008513D02*
X009055Y008513D01*
X009055Y008611D02*
X010071Y008611D01*
X009973Y008710D02*
X009055Y008710D01*
X009055Y008808D02*
X009874Y008808D01*
X009869Y008907D02*
X009055Y008907D01*
X009055Y009006D02*
X009869Y009006D01*
X009814Y009104D02*
X009055Y009104D01*
X009055Y009203D02*
X009715Y009203D01*
X009617Y009301D02*
X009055Y009301D01*
X009055Y009400D02*
X009518Y009400D01*
X009420Y009498D02*
X009055Y009498D01*
X009055Y009597D02*
X009367Y009597D01*
X009367Y009695D02*
X009055Y009695D01*
X009055Y009794D02*
X009367Y009794D01*
X009367Y009892D02*
X009055Y009892D01*
X009055Y009991D02*
X009367Y009991D01*
X009367Y010090D02*
X009055Y010090D01*
X009055Y010188D02*
X009367Y010188D01*
X009367Y010287D02*
X009055Y010287D01*
X009055Y010385D02*
X009367Y010385D01*
X009367Y010484D02*
X009055Y010484D01*
X009055Y010582D02*
X009367Y010582D01*
X009367Y010681D02*
X009055Y010681D01*
X009055Y010779D02*
X009367Y010779D01*
X009367Y010878D02*
X009055Y010878D01*
X009055Y010976D02*
X009367Y010976D01*
X009367Y011075D02*
X009055Y011075D01*
X009055Y011174D02*
X009423Y011174D01*
X009521Y011272D02*
X009055Y011272D01*
X009055Y011371D02*
X009620Y011371D01*
X009713Y011469D02*
X009055Y011469D01*
X009055Y011568D02*
X009614Y011568D01*
X009515Y011666D02*
X009055Y011666D01*
X009055Y011765D02*
X009417Y011765D01*
X009318Y011863D02*
X009055Y011863D01*
X009055Y011962D02*
X009220Y011962D01*
X009150Y012060D02*
X009055Y012060D01*
X009055Y012159D02*
X009150Y012159D01*
X009150Y012257D02*
X009055Y012257D01*
X009055Y012356D02*
X009150Y012356D01*
X009150Y012455D02*
X009055Y012455D01*
X009055Y012553D02*
X009150Y012553D01*
X009150Y012652D02*
X009055Y012652D01*
X009055Y012750D02*
X009150Y012750D01*
X009150Y012849D02*
X009055Y012849D01*
X009055Y012947D02*
X009150Y012947D01*
X009150Y013046D02*
X009055Y013046D01*
X009055Y013144D02*
X009150Y013144D01*
X009150Y013243D02*
X009055Y013243D01*
X009055Y013341D02*
X009150Y013341D01*
X009150Y013440D02*
X009055Y013440D01*
X009055Y013539D02*
X009150Y013539D01*
X009150Y013637D02*
X009055Y013637D01*
X009055Y013736D02*
X009150Y013736D01*
X009150Y013834D02*
X009055Y013834D01*
X009055Y013933D02*
X009150Y013933D01*
X009150Y014031D02*
X009055Y014031D01*
X009055Y014130D02*
X009150Y014130D01*
X009150Y014228D02*
X009055Y014228D01*
X009055Y014327D02*
X009150Y014327D01*
X009150Y014425D02*
X009055Y014425D01*
X009055Y014524D02*
X009150Y014524D01*
X009150Y014623D02*
X009055Y014623D01*
X009055Y014721D02*
X009086Y014721D01*
X009330Y014941D02*
X009330Y012106D01*
X009980Y011456D01*
X011397Y011456D01*
X011771Y011830D01*
X012814Y011830D01*
X012581Y012060D02*
X011329Y012060D01*
X011329Y011962D02*
X011648Y011962D01*
X011550Y011863D02*
X011329Y011863D01*
X011280Y011765D02*
X011451Y011765D01*
X011352Y011666D02*
X011182Y011666D01*
X011227Y011272D02*
X012560Y011272D01*
X012505Y011174D02*
X011325Y011174D01*
X011329Y011075D02*
X012486Y011075D01*
X012495Y010976D02*
X011329Y010976D01*
X011329Y010878D02*
X012205Y010878D01*
X012128Y010779D02*
X011295Y010779D01*
X011196Y010681D02*
X012093Y010681D01*
X012093Y010582D02*
X011098Y010582D01*
X011114Y010385D02*
X012201Y010385D01*
X012126Y010484D02*
X009963Y010484D01*
X009963Y010582D02*
X010101Y010582D01*
X010002Y010681D02*
X009990Y010681D01*
X009783Y010728D02*
X010039Y010984D01*
X010590Y010984D01*
X010598Y010992D01*
X010599Y010992D01*
X009980Y011456D02*
X009960Y011456D01*
X009547Y011043D01*
X009547Y009626D01*
X010181Y008992D01*
X010599Y008992D01*
X011198Y009301D02*
X011782Y009301D01*
X011881Y009203D02*
X011296Y009203D01*
X011329Y009104D02*
X011979Y009104D01*
X012078Y009006D02*
X011329Y009006D01*
X011329Y008907D02*
X012176Y008907D01*
X012342Y008996D02*
X011830Y009508D01*
X010019Y009508D01*
X009783Y009744D01*
X009783Y010728D01*
X009963Y010385D02*
X010084Y010385D01*
X009986Y010287D02*
X009963Y010287D01*
X011212Y010287D02*
X012706Y010287D01*
X012805Y010188D02*
X011311Y010188D01*
X011329Y010090D02*
X012903Y010090D01*
X013002Y009991D02*
X011329Y009991D01*
X011329Y009892D02*
X013100Y009892D01*
X013199Y009794D02*
X011309Y009794D01*
X011211Y009695D02*
X013297Y009695D01*
X013396Y009597D02*
X011995Y009597D01*
X012094Y009498D02*
X017972Y009498D01*
X017972Y009597D02*
X015737Y009597D01*
X015750Y009695D02*
X017972Y009695D01*
X017972Y009794D02*
X015750Y009794D01*
X015750Y009892D02*
X017972Y009892D01*
X017972Y009991D02*
X015750Y009991D01*
X015750Y010090D02*
X017972Y010090D01*
X017972Y010188D02*
X015750Y010188D01*
X015750Y010287D02*
X017972Y010287D01*
X017972Y010385D02*
X015750Y010385D01*
X015750Y010484D02*
X017972Y010484D01*
X017972Y010582D02*
X015750Y010582D01*
X015750Y010681D02*
X017972Y010681D01*
X017972Y010779D02*
X015750Y010779D01*
X015750Y010878D02*
X017972Y010878D01*
X017972Y010976D02*
X015750Y010976D01*
X015750Y011075D02*
X017972Y011075D01*
X017972Y011174D02*
X015750Y011174D01*
X015750Y011272D02*
X017972Y011272D01*
X017972Y011371D02*
X015750Y011371D01*
X015750Y011469D02*
X017972Y011469D01*
X017972Y011568D02*
X016031Y011568D01*
X016124Y011666D02*
X017972Y011666D01*
X017972Y011765D02*
X016165Y011765D01*
X016170Y011863D02*
X017972Y011863D01*
X017972Y011962D02*
X016212Y011962D01*
X016311Y012060D02*
X017972Y012060D01*
X017972Y012159D02*
X016409Y012159D01*
X016508Y012257D02*
X017972Y012257D01*
X017972Y012356D02*
X016606Y012356D01*
X016705Y012455D02*
X017972Y012455D01*
X017972Y012553D02*
X016804Y012553D01*
X016902Y012652D02*
X017972Y012652D01*
X017972Y012750D02*
X017001Y012750D01*
X017099Y012849D02*
X017972Y012849D01*
X017972Y012947D02*
X017198Y012947D01*
X017296Y013046D02*
X017972Y013046D01*
X017972Y013144D02*
X017395Y013144D01*
X017493Y013243D02*
X017972Y013243D01*
X017972Y013341D02*
X017592Y013341D01*
X017660Y013440D02*
X017972Y013440D01*
X017972Y013539D02*
X017660Y013539D01*
X017660Y013637D02*
X017972Y013637D01*
X017972Y013736D02*
X017660Y013736D01*
X017660Y013834D02*
X017972Y013834D01*
X017972Y013933D02*
X017660Y013933D01*
X017684Y014031D02*
X017972Y014031D01*
X017972Y014130D02*
X017768Y014130D01*
X017808Y014228D02*
X017972Y014228D01*
X017972Y014327D02*
X017808Y014327D01*
X017779Y014425D02*
X017972Y014425D01*
X017972Y014524D02*
X017711Y014524D01*
X017972Y014623D02*
X012679Y014623D01*
X012580Y014721D02*
X017972Y014721D01*
X017972Y014820D02*
X012513Y014820D01*
X012476Y014918D02*
X017972Y014918D01*
X017972Y015017D02*
X012395Y015017D01*
X011974Y015017D02*
X011866Y015017D01*
X011894Y014918D02*
X011767Y014918D01*
X011856Y014820D02*
X011668Y014820D01*
X011570Y014721D02*
X011856Y014721D01*
X011888Y014623D02*
X011471Y014623D01*
X011373Y014524D02*
X011960Y014524D01*
X012169Y014425D02*
X011274Y014425D01*
X011176Y014327D02*
X012268Y014327D01*
X012366Y014228D02*
X011271Y014228D01*
X011329Y014130D02*
X012465Y014130D01*
X012563Y014031D02*
X011329Y014031D01*
X011329Y013933D02*
X012662Y013933D01*
X012760Y013834D02*
X011329Y013834D01*
X011251Y013736D02*
X012859Y013736D01*
X012899Y013637D02*
X011152Y013637D01*
X011077Y013422D02*
X011329Y013170D01*
X011329Y012814D01*
X011077Y012562D01*
X010121Y012562D01*
X009869Y012814D01*
X009869Y013170D01*
X010121Y013422D01*
X011077Y013422D01*
X011158Y013341D02*
X012899Y013341D01*
X012899Y013243D02*
X011256Y013243D01*
X011329Y013144D02*
X012899Y013144D01*
X012899Y013046D02*
X011329Y013046D01*
X011329Y012947D02*
X012899Y012947D01*
X012899Y012849D02*
X011329Y012849D01*
X011266Y012750D02*
X012857Y012750D01*
X012821Y012652D02*
X011167Y012652D01*
X011143Y012356D02*
X012927Y012356D01*
X012853Y012455D02*
X009918Y012455D01*
X009973Y012356D02*
X010055Y012356D01*
X009845Y012553D02*
X012821Y012553D01*
X013037Y012257D02*
X011241Y012257D01*
X011329Y012159D02*
X013037Y012159D01*
X013537Y012159D02*
X014738Y012159D01*
X014640Y012060D02*
X013537Y012060D01*
X013537Y011962D02*
X014541Y011962D01*
X014443Y011863D02*
X013537Y011863D01*
X013537Y011765D02*
X014344Y011765D01*
X014625Y011693D02*
X014665Y011653D01*
X014704Y011771D01*
X014875Y011589D02*
X014532Y011246D01*
X014325Y011246D01*
X013509Y011246D01*
X013367Y011246D01*
X013142Y011021D01*
X013142Y010997D01*
X013093Y010877D01*
X013000Y010785D01*
X012880Y010735D01*
X012767Y010735D01*
X012798Y010704D01*
X013637Y009865D01*
X015390Y009865D01*
X015390Y011645D01*
X015496Y011751D01*
X015516Y011771D01*
X015514Y011777D01*
X015514Y011907D01*
X015564Y012028D01*
X015656Y012120D01*
X015777Y012170D01*
X015907Y012170D01*
X015910Y012169D01*
X015928Y012187D01*
X015892Y012172D01*
X015761Y012172D01*
X015640Y012222D01*
X015564Y012298D01*
X015564Y012278D01*
X014895Y011609D01*
X014875Y011589D01*
X014854Y011568D02*
X015390Y011568D01*
X015390Y011469D02*
X014756Y011469D01*
X014657Y011371D02*
X015390Y011371D01*
X015390Y011272D02*
X014558Y011272D01*
X014953Y011666D02*
X015412Y011666D01*
X015510Y011765D02*
X015051Y011765D01*
X015150Y011863D02*
X015514Y011863D01*
X015536Y011962D02*
X015248Y011962D01*
X015347Y012060D02*
X015596Y012060D01*
X015445Y012159D02*
X015749Y012159D01*
X015605Y012257D02*
X015544Y012257D01*
X015826Y012500D02*
X016830Y013504D01*
X016830Y014291D01*
X016599Y014524D02*
X012777Y014524D01*
X012876Y014425D02*
X016531Y014425D01*
X016502Y014327D02*
X012975Y014327D01*
X013073Y014228D02*
X016502Y014228D01*
X016542Y014130D02*
X014018Y014130D01*
X013863Y014130D02*
X013172Y014130D01*
X013270Y014031D02*
X013701Y014031D01*
X013637Y013933D02*
X013369Y013933D01*
X013399Y013834D02*
X013612Y013834D01*
X013520Y013736D02*
X013399Y013736D01*
X013399Y013637D02*
X013421Y013637D01*
X013833Y013341D02*
X015763Y013341D01*
X015833Y013440D02*
X013931Y013440D01*
X014136Y013539D02*
X015869Y013539D01*
X015949Y013637D02*
X014225Y013637D01*
X014266Y013736D02*
X016650Y013736D01*
X016650Y013834D02*
X014269Y013834D01*
X014243Y013933D02*
X016650Y013933D01*
X016626Y014031D02*
X014180Y014031D01*
X013956Y013819D02*
X013944Y013807D01*
X013940Y013807D01*
X013936Y013803D01*
X013734Y013243D02*
X015665Y013243D01*
X015350Y013144D02*
X013636Y013144D01*
X013537Y013046D02*
X015158Y013046D01*
X015042Y012947D02*
X013438Y012947D01*
X013399Y012849D02*
X014998Y012849D01*
X014986Y012750D02*
X013441Y012750D01*
X013477Y012652D02*
X015002Y012652D01*
X015053Y012553D02*
X013537Y012553D01*
X013537Y012455D02*
X015034Y012455D01*
X014935Y012356D02*
X013537Y012356D01*
X013537Y012257D02*
X014837Y012257D01*
X015570Y011571D02*
X015570Y009685D01*
X013562Y009685D01*
X012618Y010630D01*
X012421Y010630D01*
X012821Y010681D02*
X015390Y010681D01*
X015390Y010779D02*
X012988Y010779D01*
X013093Y010878D02*
X015390Y010878D01*
X015390Y010976D02*
X013134Y010976D01*
X013196Y011075D02*
X015390Y011075D01*
X015390Y011174D02*
X013295Y011174D01*
X012822Y011055D02*
X012814Y011063D01*
X012701Y011371D02*
X011566Y011371D01*
X011664Y011469D02*
X012883Y011469D01*
X012613Y011568D02*
X011763Y011568D01*
X012919Y010582D02*
X015390Y010582D01*
X015390Y010484D02*
X013018Y010484D01*
X013117Y010385D02*
X015390Y010385D01*
X015390Y010287D02*
X013215Y010287D01*
X013314Y010188D02*
X015390Y010188D01*
X015390Y010090D02*
X013412Y010090D01*
X013511Y009991D02*
X015390Y009991D01*
X015390Y009892D02*
X013609Y009892D01*
X014605Y008808D02*
X011324Y008808D01*
X011225Y008710D02*
X014714Y008710D01*
X015570Y011571D02*
X015842Y011842D01*
X015842Y011846D01*
X017480Y013484D01*
X017480Y014291D01*
X017249Y014524D02*
X017061Y014524D01*
X017130Y014425D02*
X017180Y014425D01*
X016650Y013637D02*
X016373Y013637D01*
X016453Y013539D02*
X016611Y013539D01*
X016512Y013440D02*
X016489Y013440D01*
X017972Y015115D02*
X011931Y015115D01*
X011931Y015214D02*
X017972Y015214D01*
X017972Y015312D02*
X012784Y015312D01*
X012637Y015511D02*
X012578Y015571D01*
X012637Y015511D02*
X015629Y015511D01*
X017431Y017313D01*
X017421Y017323D01*
X017448Y017323D01*
X017448Y017330D02*
X017431Y017313D01*
X017418Y016692D02*
X017478Y016692D01*
X017478Y016593D02*
X017418Y016593D01*
X017418Y016495D02*
X017478Y016495D01*
X017478Y016396D02*
X017418Y016396D01*
X017418Y016298D02*
X016670Y016298D01*
X016572Y016199D02*
X016778Y016199D01*
X016830Y016101D02*
X016473Y016101D01*
X016375Y016002D02*
X016929Y016002D01*
X017418Y016002D02*
X017478Y016002D01*
X017478Y016101D02*
X017418Y016101D01*
X017418Y016199D02*
X017478Y016199D01*
X017968Y016002D02*
X017972Y016002D01*
X017972Y015904D02*
X016276Y015904D01*
X016178Y015805D02*
X017972Y015805D01*
X017972Y015706D02*
X016079Y015706D01*
X015980Y015608D02*
X017972Y015608D01*
X017972Y015509D02*
X015882Y015509D01*
X015787Y015411D02*
X017972Y015411D01*
X016778Y016396D02*
X016769Y016396D01*
X016555Y016692D02*
X009055Y016692D01*
X009055Y016593D02*
X016457Y016593D01*
X016358Y016495D02*
X011851Y016495D01*
X012000Y016396D02*
X016260Y016396D01*
X016161Y016298D02*
X012058Y016298D01*
X012080Y016199D02*
X016063Y016199D01*
X015964Y016101D02*
X012073Y016101D01*
X012033Y016002D02*
X015866Y016002D01*
X015767Y015904D02*
X011938Y015904D01*
X011931Y015805D02*
X012349Y015805D01*
X012279Y015706D02*
X011931Y015706D01*
X011931Y015608D02*
X012250Y015608D01*
X012250Y015509D02*
X011931Y015509D01*
X011931Y015411D02*
X012289Y015411D01*
X012372Y015312D02*
X011931Y015312D01*
X011751Y015157D02*
X010590Y013996D01*
X010594Y013992D01*
X010599Y013992D01*
X010046Y013637D02*
X009845Y013637D01*
X009845Y013539D02*
X012899Y013539D01*
X012899Y013440D02*
X009845Y013440D01*
X009845Y013341D02*
X010041Y013341D01*
X009942Y013243D02*
X009845Y013243D01*
X009845Y013144D02*
X009869Y013144D01*
X009869Y013046D02*
X009845Y013046D01*
X009845Y012947D02*
X009869Y012947D01*
X009869Y012849D02*
X009845Y012849D01*
X009845Y012750D02*
X009933Y012750D01*
X009845Y012652D02*
X010031Y012652D01*
X009665Y012244D02*
X009665Y014058D01*
X010599Y014992D01*
X010110Y015411D02*
X009055Y015411D01*
X009055Y015509D02*
X011571Y015509D01*
X011571Y015411D02*
X011088Y015411D01*
X011187Y015312D02*
X011571Y015312D01*
X011554Y015214D02*
X011285Y015214D01*
X011329Y015115D02*
X011455Y015115D01*
X011356Y015017D02*
X011329Y015017D01*
X011751Y015157D02*
X011751Y016181D01*
X011445Y016298D02*
X011201Y016298D01*
X011103Y016396D02*
X011503Y016396D01*
X011652Y016495D02*
X009055Y016495D01*
X009055Y016396D02*
X010096Y016396D01*
X010121Y016422D02*
X011077Y016422D01*
X011329Y016170D01*
X011329Y015814D01*
X011077Y015562D01*
X010121Y015562D01*
X009869Y015814D01*
X009869Y016170D01*
X010121Y016422D01*
X009997Y016298D02*
X009055Y016298D01*
X009055Y016199D02*
X009898Y016199D01*
X009869Y016101D02*
X009055Y016101D01*
X009055Y016002D02*
X009869Y016002D01*
X009869Y015904D02*
X009055Y015904D01*
X009055Y015805D02*
X009878Y015805D01*
X009976Y015706D02*
X009055Y015706D01*
X009055Y015608D02*
X010075Y015608D01*
X010012Y015312D02*
X009055Y015312D01*
X009055Y015214D02*
X009139Y015214D01*
X009521Y015214D02*
X009913Y015214D01*
X009869Y015115D02*
X009613Y015115D01*
X009654Y015017D02*
X009869Y015017D01*
X009869Y014918D02*
X009658Y014918D01*
X009635Y014820D02*
X009869Y014820D01*
X009962Y014721D02*
X009575Y014721D01*
X009510Y014623D02*
X009975Y014623D01*
X009877Y014524D02*
X009510Y014524D01*
X009510Y014425D02*
X009778Y014425D01*
X009680Y014327D02*
X009510Y014327D01*
X009510Y014228D02*
X009581Y014228D01*
X009845Y013933D02*
X009869Y013933D01*
X009869Y013834D02*
X009845Y013834D01*
X009845Y013736D02*
X009947Y013736D01*
X011123Y015608D02*
X011571Y015608D01*
X011571Y015706D02*
X011222Y015706D01*
X011320Y015805D02*
X011571Y015805D01*
X011565Y015904D02*
X011329Y015904D01*
X011329Y016002D02*
X011470Y016002D01*
X011430Y016101D02*
X011329Y016101D01*
X011300Y016199D02*
X011423Y016199D01*
X012808Y015805D02*
X015668Y015805D01*
X015570Y015706D02*
X012877Y015706D01*
X015629Y015511D02*
X015633Y015511D01*
X017919Y016692D02*
X017972Y016692D01*
X013405Y011496D02*
X013287Y011519D01*
X000307Y019353D02*
X028806Y019353D01*
X028806Y019451D02*
X000307Y019451D01*
D16*
X012185Y014763D02*
X013149Y013799D01*
X013149Y013011D01*
X013944Y013807D01*
X014370Y014015D02*
X014374Y014019D01*
X015511Y012952D02*
X015728Y012952D01*
X016161Y013386D01*
X015511Y012952D02*
X015314Y012756D01*
X015314Y012382D01*
X014704Y011771D01*
X014645Y011712D02*
X014625Y011693D01*
X014429Y011496D01*
X013405Y011496D01*
X013267Y011496D01*
X013287Y011519D02*
X013287Y012460D01*
X013149Y012598D01*
X013149Y013011D01*
X013287Y011519D02*
X012822Y011055D01*
D17*
X014192Y011968D02*
X014370Y012145D01*
X014370Y014015D01*
X014370Y014035D01*
X014625Y017401D02*
X014625Y019035D01*
X013582Y002401D02*
X013582Y002323D01*
X014488Y001417D01*
X014488Y001338D01*
M02*
